<mxfile host="app.diagrams.net" modified="2021-04-25T08:14:01.428Z" agent="5.0 (Macintosh; Intel Mac OS X 10_15_7) AppleWebKit/537.36 (KHTML, like Gecko) Chrome/90.0.4430.85 Safari/537.36" etag="5bc5kn3a_czVCAu2JEEo" version="14.6.6" type="github">
  <diagram id="QifeDQdBTRs_SjzfQKQA" name="Page-1">
    <mxGraphModel dx="946" dy="589" grid="1" gridSize="10" guides="1" tooltips="1" connect="1" arrows="1" fold="1" page="1" pageScale="1" pageWidth="827" pageHeight="1169" math="0" shadow="0">
      <root>
        <mxCell id="0" />
        <mxCell id="1" parent="0" />
        <mxCell id="dYbXDlQR-0rIkNIVQ8Nb-6" value="" style="group" vertex="1" connectable="0" parent="1">
          <mxGeometry x="80" y="24.93" width="360" height="255.07" as="geometry" />
        </mxCell>
        <mxCell id="dYbXDlQR-0rIkNIVQ8Nb-8" value="" style="group" vertex="1" connectable="0" parent="dYbXDlQR-0rIkNIVQ8Nb-6">
          <mxGeometry width="356.6478764705882" height="255.07" as="geometry" />
        </mxCell>
        <mxCell id="dYbXDlQR-0rIkNIVQ8Nb-7" value="" style="shape=image;verticalLabelPosition=bottom;labelBackgroundColor=#ffffff;verticalAlign=top;aspect=fixed;imageAspect=0;image=data:image/jpeg,/9j/4AAQSkZJRgABAQEAAAAAAAD/4QAuRXhpZgAATU0AKgAAAAgAAkAAAAMAAAABAAAAAEABAAEAAAABAAAAAAAAAAD/2wBDAAoHBwkHBgoJCAkLCwoMDxkQDw4ODx4WFxIZJCAmJSMgIyIoLTkwKCo2KyIjMkQyNjs9QEBAJjBGS0U+Sjk/QD3/2wBDAQsLCw8NDx0QEB09KSMpPT09PT09PT09PT09PT09PT09PT09PT09PT09PT09PT09PT09PT09PT09PT09PT09PT3/wAARCAFTAdoDASIAAhEBAxEB/8QAHwAAAQUBAQEBAQEAAAAAAAAAAAECAwQFBgcICQoL/8QAtRAAAgEDAwIEAwUFBAQAAAF9AQIDAAQRBRIhMUEGE1FhByJxFDKBkaEII0KxwRVS0fAkM2JyggkKFhcYGRolJicoKSo0NTY3ODk6Q0RFRkdISUpTVFVWV1hZWmNkZWZnaGlqc3R1dnd4eXqDhIWGh4iJipKTlJWWl5iZmqKjpKWmp6ipqrKztLW2t7i5usLDxMXGx8jJytLT1NXW19jZ2uHi4+Tl5ufo6erx8vP09fb3+Pn6/8QAHwEAAwEBAQEBAQEBAQAAAAAAAAECAwQFBgcICQoL/8QAtREAAgECBAQDBAcFBAQAAQJ3AAECAxEEBSExBhJBUQdhcRMiMoEIFEKRobHBCSMzUvAVYnLRChYkNOEl8RcYGRomJygpKjU2Nzg5OkNERUZHSElKU1RVVldYWVpjZGVmZ2hpanN0dXZ3eHl6goOEhYaHiImKkpOUlZaXmJmaoqOkpaanqKmqsrO0tba3uLm6wsPExcbHyMnK0tPU1dbX2Nna4uPk5ebn6Onq8vP09fb3+Pn6/9oADAMBAAIRAxEAPwD1p3OTzUA1eyhZkkuEDA8gdvyputO9vp7vCCzsQuAPWuD1nUbiwtjcCMxwQDfLsj+Z+wUAn8c1y1q7g1FLU3pUlNXZ351qxIOJwTjjCmof7XtR/wAtj/3ya4/R9bh1ISfumG0K65HIDdj7itHzVPRR+JFc312fZG31aPdnRR65YqmGn5z/AHTRJr2nlCBPz/umueB9l/8AHaMr32D8j/Sj67Psg+rR7s3BrVkek/6Gp01uxCAGbn/dNc3vX+Fl/Bc/0pd5/vN+CGj67Psg+rw7s6KTW7IrgTHP+6ai/tm0/wCex/75NYg3H+JvxUily3Q8/VM0vrs+yD6vHuzfGv6eAAZzkDn5TTZdesCoxOev9w1gkD0X/v3ShI+6r/3xT+uT7IPq0fM2f7bs/wDnsf8Avg1YGuWR6SOf+AGuaeO3P8aj8KjdIOzR/oaX1yfZB9Wh3Z00usWjEbXbgf3DTRq9tkHe+M/88zXOxG3iAX922O5NP86LswA9A2P6UfXZ9kH1ePmdL/bdn/ff/vg1FJrFqXyHfGP+eZrnzLEer5/4ET/SjfB3I/M/4UfXJ9kH1aPmby61aq4Jd8Dr+7NS/wBvWX9+T/v2a54G1P8AEv50uy29Fo+uT7IPq8fM221u1ZyQ0mP+uZpY9ZtlfJaTGP8AnmaxMW46bfzpd/8AddB9eaPrk+yD6vHzN7+3bL+9J/37NRHWrYkkGTGf+eZrBKSk8XKj2C0eTIfvT5+i0fXKnZB9Xh3ZvprlohJZpMHp+7NO/wCEisP70v8A36b/AArBEK/xOx+lBiiHUt+eaPrlTsg+rw7s1/7dtP703/fo1JF4gswOfO56fumrD2Qf7X4U3ZEPuhz9SaPrlTyH9Xh5nQnX7Ug4E3/fs1D/AG3bDtN/37NY/mP2Ax7qTS/MeuwfVP8A69H1yfkL6vA201+0UYPnZz/zzNK2v2hQgedk/wDTOsPaf70f/fH/ANenBEx8wUn1AxR9cqeQfV4eZrf21bf9Nf8AvipF1+0CgHzsjr+7rDIj7HFJ8v8Az0H6UfXKnkH1eHmbj6/alcDzc5/uVH/blt/01/74rH3n/nt/L/CgOe8ufxo+uVPIf1eBuDxDZqAD5ucf3DTH8Q2bAAGTr/crH35/iX9aaY2fpJj6Zo+uVPIPq8DX/t619ZP++an/AOEhs/8Ab/Kue+zMf+W7D6Cj7OR/y2kNH1yp5B9XgbkviGzOMGTjr8tRjxDZgg5l4P8AcrHw6dCT6EuBSebL32/hIKX1up5B9Xgb/wDwk1j/ANNv+/dMbxDaOcqJsY/551h/aHHVX/BhR9p9fN/MGj65UD6tA3k1y33A7Zv++Km/t23/AOec3/fI/wAa5rzcnIBb/eYCmOZnP/LJV7ANR9cqeQfVoHRvrUJckJNj/dFIuu26NkrLjHoP8a59DIP4lPsST/SpPtLIPmTJ9Qpo+uVPIPq0DcPiW0H8En5D/GoT4jtSSQJOT6D/ABrHN4p6xP8AypPtK/8APF/zNL63U8h/VoG3H4jtVJJWXn2H+NSjxHanpHN/3yP8a57zlP8AywelG1+kbD6kCj63U8hfV4G4dcg/uy/kKcniC3XOY5Tnp0/xrB8pe+B+Kn+lGI06sf8AvgH+lH1up5B9XgdAfEVvg/upenqv+NQf8JBD/wA8pvwANY29R0MZ+seP6Un2lhwPI/Ij+lP63UD6vA3k8SW6jDRTZz/dFPHiK2fK7JUz3KcCuS1KWWWzaNXihVvvSpkMB1wPc9PxrI0PW7i/uEhls/KcKQ6OS+0Dox9z0prF1N9A+rwPT0k3gMrAqwyCOc1PvPrWT4fAlsnXoEbgBcYzz3rZ8oepr0ac+eKkcc1yyaMnxPJs0aV1XzGQhggPLew9T7V59caityAs2jaku05BEe08/j3rvdf/AOPA/wDXRf51z11F+8HH8Kn8q4MXbn1XQ6qCfLdM56HW7Pw7ahDp17DHK27dKu4sT759v0p48eaeekM3/fFVvHUYGn2h/wBoD9DXIxgYoo0YTjdmNavOnKyO4/4Tux/54zf98Uf8J3Yf88Z/++K4rAowK1+qw8zL63PyO2/4Tuw/54z/AIJSHx1Yn/lncj/gA/xrisCjAo+qw8w+tz8js/8AhN7H+7c/98Ck/wCE2sj/AAzn6oK43AowKPqsPMPrc/I7H/hNbD/nlN/37FH/AAm1j/zym/79iuOwKMCj6rT8w+uT8jsh43sf+eEp/wCAClHjqzHS3m/BQK4zAowKPqsPMPrdTyOz/wCE8tP+eE//AHyP8aP+E7tf+eM//fA/xrjMUYFH1an5h9bqeR2X/Cd23/PGf/vkf40n/CdWv/PGf/vkf41x2B6UYFH1WHmH1up5HZf8JzZ/88rgfRRSf8Jvaf3Lr/vkVx2BRgUfVafmH1yp5HY/8Jza/wDPO5P1UUv/AAnVp/zxnP8AwAf41xuBRgUfVafmH1up5HZ/8J1Zj/lhP+QH9aQ+OrM9be4P4D/GuNxRgelH1WAfW5nXnxvZ/wDPnOfwH+NNPjaz/wCfKX8QK5LA9KMCj6rAPrdQ6v8A4TW27Wkn5Cj/AITeAdLWT8h/jXKYFGBR9VgH1uodcPHcQ/5dpfyH+NL/AMJ3b97af8AP8a5DAowKPq0BfW6h13/CcW3/AD7XH6f40n/CcW3/AD7XP6f41yWBRij6rAf1uodZ/wAJzb/8+tx+Y/xpD45i7Wk/4kf41ymKMUfVafYPrdTudX/wnUf/AD6Tf99D/GnDx3F3tZ/wI/xrksUYHpR9WgL63U7nXf8ACdwH/l1n/T/Gk/4Ti3/59bj81rksCjAo+rQ7B9bqHW/8Jxb/APPrc/mtNPjeD/n0n/ErXKYoxT+rU+wfW6nc6r/hNoO1lL+JWk/4TaLtZP8A+O1y2KMUfVodg+tVO51SeOkXpZP+YFO/4T5f+fJ/++hXJ4oxR9Wh2D61U7nWf8J6v/Pk/wCYpP8AhPV/58n/ADFcpijFH1aHYPrVTudV/wAJ2v8Az5P/AN9Un/CdD/nyf/vuuWxRij6tDsL61U7nU/8ACdD/AJ8n/wC/lJ/wnH/Tk/8A38rl8UYo+rU+wfWqnc6r/hPG6fYmP1cGk/4Ts/8APif++hXLYoxR9Wh2D61U7nUf8J03/Pl/48KP+E7f/ny/UVy+KMUfVodg+tVO51P/AAnkv/Pmf++hS/8ACfMF/wCPN/8AvoVytIehp/Vodg+s1O52Vn4pudb8yCDTlcKAGWWUKDn8Pap4hqFk8r22i2cbuFaRluQN2eBn5axvBIzeXX0U/wA67UJ5kchPeOM/rXFUShNpI7qLc4Jtm54UkdrGUXCpHOHxJGhyFP8AvfxeueK38j1Fc9oYw177yg/pW3Xp4d3po5auk2Z/iBFTTC3PDqf1rAugMBvUYFb/AIkYHR5MHJDLXP3T4gHsuf0rgxvx/I68N8PzOV8fcabbj/pqP5GuOj6V2Hj8/wCgW3/XQH9K4+LpW+F/h/M4sX/EHUUUV0nKFFFFABRRRQAUUUUAFFFFABRRRQAUUUUAFFFFABRRRQAUUUUAFFFFABRRRQAUUUUAFFFFABRRRQAUUUUAFFFFABRRRQAUUUUAFFFFABRRRQAUUUUAFFFFABRRRQAUUUUAFB+7RQfu0AdB4FGb+6Hqo/rXcW4xCc/881H61xHgX/kI3P8Aur/Wu6jGLVj/ALP9a8rEfxGevhv4aNnQUD/as5++P5VteUvvWN4fZRHOc9XB/StrevrXp4f+GjlrfGzE8Qf8gmb8Kwbn50kH91P6V0fiRQNGmIHOR/Ouf2bjP9AP0rhxv8T5HVhvh+Zyfjs50y0P+2P5VyEfSut8bj/iU2/tNj9K5KLpW+F/h/M4sX/E+Q6iiiuk5QooooAKKKKACiiigAooooAKKKKACiiigAooooAKKKKACiiigAooooAKKKKACiiigAooooAKKKKACiiigAooooAKKKKACiiigAooooAKKKKACiiigAooooAKKKKACiiigAoP3aKD0NAHQeBf+Qjc/wC6P613w/49WX/ZNcB4G/4/7n/dH9a9AHKOP9g15WI/iM9bDfw0X9A/49pMdMrj8q2qyfDKq1pJkZxt/lW5sX0r08N/CRy1/jZleInVtHmXnOV/nWChAmkB/iK/yra1/wD5BU34Viy/IQ3qQP0rhxnxr0OrDfA/U5Hx1/yDIf8Ar4P9a4+PoK7Dxz/yDIv+vg/1rj4ulb4X4PmceL+P5D6KKK6TlCiiigAooooAKKKKACiiigAooooAKKKKACiiigAooooAKKKKACil5pKACiijmgAoo5o5oAKMGlxSjigBMH1ox70+mnNADfxoxTgKCRQA2ilApcCgBtFKaSgAooooAKKKKACiiigAooooAKKKKACiiigAooooAKD0NFB6GgDf8Ef8f9z/ALo/rXfQ8ySD/ZxXAeCf+P8Auf8AdH9a7+2/18n+6K8vE/xGethv4SNTw0wjt5g2eCB+lbvmrXP6H9y5/wB8fyrar0sN/DRzVvjZS8RqP7GmwBnjt71zdy/EYyeqjFdHr8obSpVx3X+dc1ckmSEY4YqR+dcOM+Neh04b4fmcv46/5BsP/Xcn+dcfH92uv8c86bF/13P9a5GLpW+F+D5nHi/4g6iiiuk5QooooAKKKKACiiigAooooAKKKKACiiigAopQM0+gCOlwaUkUmTQAuKdTRTqAGnpSDFPpuBQAUYFOooAaRmgDFOpueaAHUUUUAFFFFADCaUCjAoyOgoAdTD1p9FADMGkqSmHrQAlFFFABRRRQAUUUUAFFFFABRRRQAUUUUAFFFFABQehooPQ0Ab/gj/kIXJ9FH9a761IM0hHQqprgvAwBv7v2RSP1ruUDJCWVsMwTkdq8vEfxGethv4SNvw6Bi6BAOHHX6Vt4HoKwtAcR/a+MguMflW35o9DXpYb+GjlrfGzJ1sE6fIMdWX+dc+TvFsPU5/Wup1r/AJBrf7y/zrloxzB/sqT+tcON+Neh14b4Gcp4250yM/8ATwf61yMfSuu8a/8AIJj9RP8A41yMfSt8L8HzOLF/H8h1FFFdJyhRRRQAUUUUAFFFFABRRRQAUUUUAFFFFADhxTqKZn0oAXAowPU0CnUAJ0paKbuFADqKZk0lAElFMHFGc0ALnrQBikAp9ABRTScUmTQA+mk02loAME0vSk30ZNAD6KjyfWlBoAfTD1p9MPWgBKKKKACiiigAooooAKKKKACiiigAooooAKKKKACg9DRQehoA6DwL/wAhC7/65r/Ou+Qf6GT/ALFcB4G/5CF17ov8679B+5C+2DXl4j+Iz1sN/DRo6IDi4/3x/Ktqsvw792593/xrbr0sN/CRzV/jZl6xKWsHXH8S/wA65uE4eMf3kb+ddFqwYWTkg43L/OubHE1v7lxXDjPjXodOH+H5nL+NxjSkH/TVT/OuPi6V2Xjv/kGp/wBdE/rXGRdK3wvwfM48X8fyH0UUV0nKFFFFABRRRQAUUUUAFFFFABRRRQAUopKXrQAdfpTsAUCloAbwKTPpSkZoxQAnJo4HXrTulNoAOTQR60lGTQAUoHrRRk0AKSKTJpKKACiiigAooooAKKKKACiiigBc8UlFFABRRRQAUUUUAFFFFABRRRQAUUUUAFFFFABRRRQAUH7tFB+7QBveCTjUrj3Vf/Qq7+M4GewNef8Agn/kJXH+6v8AOu8TJUgdyR+leXif4jPXwv8ACRsaAzRfawefnGPyrb80+grD0XJa6wCfmXp9K2cH0P5V6WG/hI5K/wAbK2tf8g1/95f5iuVuOI7dvSRh/Ouk1qUmwcHGNy/zrm7wj7DG3pJmuLG/GvQ6sN8PzOa8ef8AIPi95F/rXGRdK7Px5j+zYfaQZrjI+lbYX+H8zjxfx/IdRRRXScoUUUUALSUUUAFFFFABRRRQAtJRSgUAAGafRRQAUUUUAFISBSE4ptACk5pKKKACiiigAooooAKKKKAFpKKKAFopKKAFpKKKAClpKKAFpKKKACiiigBaSiigBaKSigApaSigApaSigBaSiigAooooAKD0NFB6GgDe8E/8hO4/wB1f513kP32+p/lXB+Bv+QrP/uD+dd/EMSH3Ga8vE/xGethf4aNbw0ci5P+0v8AKt2ue8PSFY5yMcla2/NPtXo4b+EjmrfGzO1pWGnuSONy/wA65q5ObBR6yDFdXrf/ACC5P95f5iuTvAqRxRr0Bz+dceN+Neh04b4X6nN+O/8AkGp7Sr/KuOj6V2Xjv/kGj/rsP5VxsXStsL8HzOPF/H8h1FFFdJyhRRRQAUUUUAFFFFABRS0vFACDBp9MJ9KMmgB9N9c0A0j0AGTRnikooAKKKKACiiigAooooAKKKKACiiigAooooAKKKKACiiigAoopcE0AJRSkEUgoAKKXNJQAUUUUAFFFFABRRRQAUUUUAFFFFABRRRQAUHoaKD0NAG74JONTuD6Rg16BCckn1rz3wd/x/wB3/wBcq9CiGMfT+teXif4jPWw38NGj4fUmOfAzgjP61ueW3p+tZPhsYW4How/rW5Xo4b+Ejmr/ABsydXZjYSAk4yv865q5QlwfRkH5iun1eIiwkJxjI/nXPAK8jbvVSPrg1x4z416HThvhZy3jv/kG/wDbZa4uPpXa+Ox/xLP+2y1xUfStsL/D+ZyYz4/kOoopa6TkEopaSgAopaSgApaMUUAB60lFFABRRRQAtB60lFABRRRQAUUUUAFFFFABRRRQAUUUUAFFFFABRRRQAUUUUAFLjNJS5NAC4A60hPpSUUAFFFFABRRRQAUUUUAFFFFABRRRQAUUUUAFFFFABRRRQAUHoaWkPQ0AbXg7P9oXQ9YsV6LH2+grzzwV/wAhWYeqAfrXoEP3M+gFeXif4jPWw38NGrorFTc7Tj5hWzvb1NY2hqZWuSMdV/lW15Te1elhv4aOet8bKus/8g2X8P5iuY6TH/gP8yK39YcjTZjk8Y7+9YB7n/ZU/wDjxrixvxr0OjDfCzmfHf8AyCR7yrXEx9K7Xx1/yB4/eVf61xMXStsL8HzOTF/H8h9FFFdJyBRRRQAUUUUAKeaSiigAooooAKKKKACiiigAooooAKKKKACiiigAooooAKKWjBoASlwaMetLgUAGKMCnUwnNABkDoKTrRRQAUUUUAFFFFABRRRQAUUUUAFFFFABRRRQAUUUoFABg0bTS5xTqAI6KcRTaACiiigAoPQ0UH7tAG54J/wCQxL/uj+degwf6s/7prz3wT/yGJf8AdH869Ah+4foa8vE/xGethv4aNfwwcx3B91/lW9XNeGyRDNgkcr0+lb2W/vH869HC/wAJHNX+NlDXYiukXDZ6AfzrEdB9mJ77cVv+IP8AkCXX+6P51g9YXHocVx4z416HRh/hZyHjn/kCw/8AXQf1ri4uldn42/5A8f8A10H8zXGRdK1wvwfM5cX8fyH0UUV1HIFFFFABRRRQAUUUUAFFFFABRRRQAUUUUAFFFFABRRRQAUUtGAOtABRx9aM+gpKAHZozScUZ9BQAZNLnHvTaKAFOaSiigAooooAKKKKACiilAFABgmjAp9FADM+1H4UEYpKACiiigAoopeaAAUu4UYpeKAE69qdTc0mfagB9MNGfakoAKKKKACg/dooPQ0AbXgr/AJC83/XMfzr0GI4z9cV594M/5C0//XMfzrv4zwfrXl4n+Iz1sL/DRqeGoi0c3OMFetb3k+9Y3hn/AFc30X+tb1ejhf4SOav8bMbXP+QVcfQVjRvjzR/tcflW9rcQGlTnJ6D+dc3nMxA/iYn/AMdrjxvxr0OnD/C/U5bxnzoyn0lH/oRrjYuldp4yH/EhH/XVf/QjXFxdK1wvwfM5MX8fyH0UUV1HIFFFFABRRRQAUUUUAFFFFABRRRQAUUUUAFFFFABRRRQAtJRRQAUUUUAFFFFABRRRQAUUUUAFFFKOaAEop2BScdqAEpQcUlFADtwo3Cm0UAKTRSUUAFFFLmgAwaXIHSm9e9FAC5NJRRQAUUUUAFFFFABRRRQAUHoaKD0NAGz4M/5Ctx/1y/rXfA4DexrgvBgzqtwfSIfzrvthCSg/xE4/KvLxPxs9bC/w0a2hjAmHoAP51t1j6BGH8/kjG3+tbnlD1Nejhf4SOet8bKWtEHTJhkZ47+9ctFzOh9QT/wCOiui1b/jwm/D+dYEI+eM/7J/pXHjfjXodGG+FnNeNwBoj46eYn8zXERdK7fxt/wAgRv8Aron864eLpWuE+B+pyYv4/kPooorqOQKKKKACiiigAooooAKKKKACiiigAooooAKKKKACiiigAooooAKKKKACiiloASilwaXFADaKXBpcUANp1FB9zQAhOaMGjPpRk0ALgetJxSUUALn2pKUClwPWgBtFLxRkelACUUUUAFFFFABRRRQAUUUUAFFFFABRRRQAUH7tFB6GgDd8EDOrXA/6ZD/0Ku+7E+gJrgvBH/IXuP8ArkP/AEKu9TPmL6d68vE/Gz1sL/DRseHiA1xkgZI6/jW5uHqPzrntE/5a/Rc/rW3Xo4X+Ejmr/GyrrEajTZiM5AHf3rnkGI4z/s4rodYkU6ZOAecD+dc9JKIoEGMlsD6VyYz416HThvhfqcv4340Yj1dP51w0XSu68dj/AIk//A1/nXCx/drXC/B8zkxfxr0H0UUV0nIFFFFABRRRQAUUUUAFFFFABRRRQAUUUoGaAEpcH0p9FADMGjml3CjNACYNL8opM5pKAFpKKUYoAUCnUwn0pKAHZpMmkowaAFzRk0YNGKADk0YPpRil49aAEwfSil3Ckz7UAJRS0lABRRRQAUUUUAFFFFABRRRQAUUUUAFFFFABRRRQAUUUUAFB+7RQfu0Abvgg41if3i/9mrvRL+7kI6oK8+8FH/idye8eP1rvcf60D+JSf0ry8T/EZ62F/ho3NBUO9xnOBjGD9a3PKX3/ADrD8PkRmYMcHapNbnmL616OF/hI563xsytX/wCQfP8AQfzFYFz98egU10mtoo0i4IAyFHP4iufcB3kX/ZyK5Mb8a9Dow3wv1OY8df8AIG/4GtcLH0Fd146/5Ah/30rhYugrXC/B8zkxfxr0H0UUV0nIFFFFABRRRQAUUUUAFFFFABRzRS5NABj1pdwpAPal4oATJpKUn2pKACiiigAoopaAEpcGjI7UZNABj1peBTaKAHbhSZpKKAFzRk0lFABRRRQAUUUUAFFFFABRRRQAUUUUAFFFFABRRRQAUUUUAFFFFABRRRQAUUUUAFB+7RQfu0AbPgz/AJDcn/XMfzrv4hmf8f6VwHgz/kNyf9cx/Ou/Q4uT7Mf5V5eJ+NnrYT+GjW0d1e5uVB5ULn9a2/xrF8PRg3F2GAJ4J/M10GxfSvRwv8JHPW+NmbrcoOk3IGc7f61gIczn/dP862ta/wCQZc/7v9awov8AXMfY/wA65MZ8a9Dow3ws5vx1/wAgY/8AXRf51wsXSu68df8AIGb/AK6L/OuFi6VphfgfqcmL+P5D6KKK6jkClpKKAF/Cj8KSigBePQ0vA9abRQA7NJSUUAFLSUUALSUUUAFFFFABRRRQAUUUUAFFFFABRRRQAUUUUAFFFFABRRRQAUUUUAFFFFABRRRQAUUUUAFFFFABRRRQAUUUUAFFFFABRRRQAUUUUAFB+7RQfu0AbPgz/kNyf9c/616BsxJn1Oa8/wDBn/Idf/rn/WvQzy49sV5eJ+Nnq4X4Ea2hyBbm4znBVMfrW55q+/5Vz2if66c/7K/1ra/z0r0cL/CRhW+NlfXQP7GujgZ2+nvXPQgfOc85PH41va5JnR7lcdVHf3Fc/b9ZPoP61yY3416G+G+F+pzXjr/kCN/11X+dcLF0ruvHX/IDb/rov864WLpWmF+B+py4v416D6KKK6jkCiiigAooooAKKKKACiiigAooooAKKKKACiiigAooooAKKKKACiiigAooooAKKKKACiiigAooooAKKKKACiiigAooooAKKKKACiiigAooooAKKKKACiiigAooooAKKKKACg9DRQehoA2PBv8AyG5P+uf9a9Dj5A+iV554N/5DMn/XL+tehwH7v+6p/KvLxP8AEZ6uF/ho1vDoBefIB+VOv41vYHoK5/QJBHNOMZ+RD/Ot3zR6V6GG/hIwrfGzL1n/AJBlx/uj+YrFiGHcf7IP866LXMf2RcknGFz9cHp9T0rhIvEbbyTpGqYKgD90vbP+171zYuLc0/I2w7STuUvHP/IDP/XRf51wkXQV2PiWa71rTzBaaXfB9wP7xVA/9Crm4/D2tAc6dN+Y/wAarDSUYtN21OfExcpppX0KtFXf+Ef1r/oHTfmP8aP+Ef1r/oHTfmP8a6PaQ7o5/Zz7MpUVe/4R7Wv+gdN+Y/xpP+Ef1n/oHy/iQP60vaQ7oPZT7MpUVe/4R7Wf+fF/++1/xo/4R7Wf+fFv++1/xo9pDug9lPsyjRV7/hHNZP8Ay4t/32v+NH/CPawOti3/AH0v+NHtId0Hsp9mUaKvf8I9rP8Az4t/30P8aP8AhHNZ/wCfFv8Avof40e0h3Q/Yz7Mo0Vf/AOEb1r/nxb/vof407/hGta/58W/77X/Gj2kO6F7KfZmdRWj/AMI1rX/Pkf8Avtf8aP8AhGda/wCfL/yIv+NHtId0P2M+zM6itH/hGda/58v/AB9f8aP+Ea1r/nz/APIi0e0h3Qexn2ZnUVf/AOEb1j/n1H/fxaP+Ea1k/wDLoP8Av4KPaw7oPYz7MoUVpDwvrR6Wg/7+Cl/4RXXP+fMf9/BR7WHdB7GfZmZRWp/wieuf8+Y/7+Cg+E9cHW0X8ZBR7WHdB7GfZmXRWl/wi+t/8+q/9/FpP+EY1n/n2X/v6tHtYd0HsZ9mZ1FaQ8L60f8Al3T/AL+rR/wi2tf8+8f/AH9FHtYd0HsZ9mZtFaf/AAietf8APsn/AH9FO/4RHXD/AMuqf9/RR7WHdB7GfZmVRWr/AMIjrv8Az6p/39FH/CH67/z6x/8Af0Ue1h3Qexn2ZlUVrf8ACH67/wA+0f8A39FJ/wAIfrn/AD7Rf9/hR7WHdB7GfZmVRWr/AMIfrf8Az7xf9/hSHwlrI6wwj/tqKPaw7oPYz7My6K0/+EW1f/nlD/38FH/CKax/zyh/7+Ue2h3Qexn2ZmUVqf8ACJ6x/wA8of8Av5S/8IjrP/PKH/v5R7WHdB7GfZmVRWt/wiGtf88of+/lH/CIa1/zyh/7+Ue2h3Qexn2Zk0VqnwlrA6pAPrKKT/hE9W/6dv8Av8KPbQ7oPYVOzMuitUeEtX/6dv8Av8KX/hD9XPa2/wC/1L20O6D2FTszJorW/wCEQ1f0tv8Av7R/wh2sf3bf/v7R7aHdD9hU7MyaK1/+EN1g/wANv/39pf8AhDNa/u2//fyj20O6D2FTszHorY/4QzWf7tv/AN/P/rUv/CFaz6W3/fz/AOtR7aHdB7Cp2ZjUHoa2v+EJ1r0t/wDv5/8AWpD4K1jpm2/7+f8A1qPbQ7oPYVOzE8HEDWZPePH6136HYiH1iz/L/GuL0bw3rGj35uTHaS5Xbt8/b/St5rnWMKBp1p8sez/j769P9n2rirWnNtM76CcIJNHVaIQbm4A6iNM/ma3q53wf57/aZrpFinfaDEjb1UDOPm7k/QV1NehhtKaOetrNmbqkx/s+b5c4HYZrmTe9OHX/AIBmuslh8xWRkJVhgjHWsK40i8jci3jiePsTJsNc+LpSk00rmtCaSabKIuSf+Wjf9+x/jUgkJ/jb/vipRpOp/wDPJfwnFL/ZOpHrbj8ZM1x+xqdmdHtId0RnZ1aQfiMU3zrQdZU/Opf7Fve9vED7yCnDSL4dIIfoJBR7Gp2Ye0h3RVN1ajgFW9MGk+0wf88T+VXRpWo9rdB/wOj+y9R/55xD2MtHsanZh7SHdFI3UXaPb9QDUZnUtw0Y+vFaB0i/P/LGIn2lpv8AYt+ettH/AN/KPY1OzH7SHdFFPMJ4lT8DUyRS95cfTNWP7DvT/wAsYR/216U3+wr/ALRRH6S0exqdmL2kO6ESLH3pGP0OKQxMCSJGI9CcU/8AsO/7wJ/38pw0O9H8MA/7af8A1qfsZ9mHtId0VXhlPQge5OaljhUJiTazeoGKn/se/wCwiP0fP9KT+xNQPZR/wPH9KPYz7MPaQ7oj8qL+6KPKi/uj8Kk/sK9/vRf9/TSf2Ff9vLPuJDR7Gp2Ye0h3GhFHQkfQCk2f9NG/IVINE1D0jHuXP+FB0S/PB+zEe7//AFqPY1OzF7SHciwO8rfiBR+5HUqfqak/sK9/552x9wc/0pRoV53jtR7k/wD1qXsKnZj9rDuRb7f1T86YfJPQr+HNWv7Eu/S1/wC+v/rU06LqP8IhA9if8KPYVOzD2sO5TMUXUSKP+A0eWvaSM/Vat/2JqZ6tCv1Y0v8AYeo/89bf/vs0ewqdmHtYdyqFlPRoT/wGnhH7qn4AVMdC1A/eEJ/E0Dw/eH73kj6yNzR7Cp2Ye1h3Iwh74H0ApDEv95vw4qb/AIR64/6YH/to1A0C8HSOH8yaPYVOzD2sO5X8vHQsfq5phEvY/mxNXP7Dvx0a2T2JP+FH9iaj2ltifQMf8KfsJ9mL2sO5RxL3VT+dGG7on5kVe/sTU/70P5n/AApRoeod5rcH0JP+FH1ep2Ye2h3KOxf4kj/76ozCOqR/nV46HqHaWBj6An/Cj+w9R/vR/wDfR/wo+r1Owe2h3KQkt/7ifqakEsfREX8iKs/2HfkDM1t9CTxSHw/e9pLdvoTR9Xqdh+1h3KxMpP8AqwB7HNNPmjoP0xVr/hH731h/Wnf8I9dd5bb8SaX1ep2Ye2h3KP749d34MRSOshHDOp/3utXj4euextm+gJx+lOGgXg/59x+B/wAKf1ep2D20O5mIkwxudjzziSpkwOrn6eZmrx0G6P8Ay1tf1pp0C87Pbt7jcaPq9TsL20O5AZVPRVP4g0wu/wDzwTHr1q0PD953aAD1O6nf2Dd/897b82o+rVX0D20O5TyO6xD2INGfRIj9Aauf2Be9pYCPUbqP7Cve8sA9yGo+rVOwe2h3KmWH8CL7gZqMyN/eH4IP8a0P7Auv+e1r/wCPU3+wbztJAR6gNzT+rVew/bQ7mfv92/74WlTaersPqgrQGg3neW3X6g0v9g3X/PxbfkaPq1XsL20O5QxEOsp/EAf0pweAfxK31YVc/wCEfu/71uf+AGmjw7cH70lqv1QjNH1ep2D20O5W8yLsgP0INMeRcfLEfxq8PD1yvKz2wPsCKX+wrz/ntH+Ro+r1Owe2h3Mx5P8Apgp+rf8A1qqybi/+pUZ9HI/kK3hoN0etxGD6EGlXQLnPN1ER3wpJprDVOwOtDuN8MlkNydgAIUZ3E+vrXQ+YfSqltaC1hEaKxHcnnNWNp/u/pXp0Y8kEmcNRqUros1FIoyOKKK0EtxgUbxwKnoooERSKNw4pEUbhxRRT6DJqhdRvPFFFJCCJRvPFT0UUMCuyjceKfEAM8UUUASVX2j0FFFAEsQGDx3px6H6UUUAQbR6VNF92iigp7A/3D9Kh2j0oopMSJo/uCkk+5RRQHUi2j0FTp9wfSiigQ2UDA471FtHoKKKGBZqKVRxxRRQwGBRvXgdasUUUICGRRvHFIijeOKKKoCeoHUbzxRRSAWNRu6VNRRQBXZRvPHenxAZPHaiigCWq20c8CiigB8I4b61Keh+lFFAFfaPQVNF9z8aKKYCv9w/SoNo9KKKQE0f3BSSD5DRRQBFtHoKnT7g+lFFADZAMDjvUW0egoooAs1FMBxxRRQAwKNw4HWrFFFAEMijcOO1JGo3DgUUUAT02iigD/9k=;" vertex="1" parent="dYbXDlQR-0rIkNIVQ8Nb-8">
          <mxGeometry width="356.6478764705882" height="255.07" as="geometry" />
        </mxCell>
        <mxCell id="dYbXDlQR-0rIkNIVQ8Nb-5" value="&lt;b&gt;&lt;font color=&quot;#ffffff&quot;&gt;以下是正文的正文&lt;/font&gt;&lt;/b&gt;" style="text;html=1;strokeColor=none;fillColor=none;align=center;verticalAlign=middle;whiteSpace=wrap;rounded=0;fontSize=64;" vertex="1" parent="dYbXDlQR-0rIkNIVQ8Nb-8">
          <mxGeometry x="50" y="117.59845678330942" width="260" height="19.869742797218237" as="geometry" />
        </mxCell>
        <mxCell id="dYbXDlQR-0rIkNIVQ8Nb-9" value="存储每一棵子树" style="rounded=1;whiteSpace=wrap;html=1;fontFamily=Helvetica;fontSize=48;fontStyle=1;fontColor=#FFFFFF;fillColor=#97D077;strokeColor=none;arcSize=50;" vertex="1" parent="1">
          <mxGeometry x="190" y="360" width="420" height="80" as="geometry" />
        </mxCell>
        <mxCell id="dYbXDlQR-0rIkNIVQ8Nb-12" value="" style="group" vertex="1" connectable="0" parent="1">
          <mxGeometry x="340" y="500" width="741.8200000000002" height="400" as="geometry" />
        </mxCell>
        <mxCell id="dYbXDlQR-0rIkNIVQ8Nb-11" value="" style="shape=image;verticalLabelPosition=bottom;labelBackgroundColor=#ffffff;verticalAlign=top;aspect=fixed;imageAspect=0;image=data:image/png,iVBORw0KGgoAAAANSUhEUgAAA3AAAAZgCAIAAACwZjK8AAAACXBIWXMAAAsTAAALEwEAmpwYAAAgAElEQVR4nOzdeVxU9f4/8M/sLAMDyL5vgogKKJW7Ai64p5l9XW59r6VpaVpefdQvzfzmt2vdbiqWKRHX8puVmGWKaeSS5JKkoCAoIjAgsu/bwGy/P06dRpaZwTMzhxlezz98nDl85szbmc+cec2Z8/kcjlqtJgAAAAAAj4rLdgEAAAAAYN4QKAEAAACAEQRKAAAAAGAEgRIAAAAAGEGgBAAAAABGECgBAAAAgBEESgAAAABgBIESAAAAABhBoAQAAAAARhAoAQAAAIARBEoAAAAAYASBEgAAAAAYQaAEAAAAAEYQKAEAAACAEQRKAAAAAGAEgRIAAAAAGEGgBAAAAABGECgBAAAAgBEESgAAAABgBIESAAAAABhBoAQAAAAARhAoAQAAAIARBEoAAAAAYASBEgAAAAAYQaAEAAAAAEYQKAEAAACAEQRKAAAAAGAEgRIAAAAAGEGgBAAAAABG+Mbb9KtH4423cQAAAADok50LThlpyzhCCQAAAACMIFACAAAAACMIlAAAAADACAIlAAAAADCCQAkAAAAAjCBQAgAAAAAjCJQAAAAAwAgCJQAAAAAwgkAJAAAAAIwgUAIAAAAAIwiUAAAAAMAIAiUAAAAAMIJACQAAAACMIFACAAAAACMIlAAAAADACAIlAAAAADCCQAkAAAAAjCBQAgAAAAAjCJQAAAAAwAgCJQAAAAAwwme7AADQTSyS+DsN9R8UVt5YfK30LNvlAFN4QQEY8rD3H+kz+X7DvRtl6WzXAoQgUAL0TyM8xwUMCre3cnKydXO29RSLJNT630vOIn+YI7ygAMyJ+NY+jiGDXSKGuj/u7RBMCLlUlIpA2U8gUAL0Rx2Kdom1U5jbY1YCW7ZrAQN45BdUxLem7m6cugAMzxid1kZot2nKPnuRE4fDMeBmwYAQKAH6oztV1+9UXbcS2C6MfHmUTyzb5QBTj/aCzhz63ISguRwO96o07bsbn6iJ2qhFAjBnpE7b1tn82eVtkV4TxwfOFvKtDLJNMCwMygHov2Ty1qNZe9muAgymTy+opyRw6pDFVgJbEd96QtDcIW7RRq0NgDmjdtrS+vzjOUknbiUbcJtgQAiUAP1am7wFP3daEv1f0HCPJzRvRnpPME5FAAZjgk6bUXJGruw0+GaBOQRKgP5OoZKzXQIYkp4vaM6Dy5o379VkG6ccAIMxQaeVyVubO+oNvllgDudQAgD0R+VNxSmZeyYEzVOoOtPv/XBVmsZ2RQA6oNMOZAiUxsLlcFVqFdtVAIAZu1SUeqko1diPgp0VGJBpOq2R4L3ABH7yNopIrwmbpuxjuwoAAB2wswKg4L3AEAKl4Ql4wrnDV3Dw3AJA/4adFQAF7wXm+uNzJ+Rb2Qrt2a7i0cWHPeto44rJVwGgn8POCoCC9wJz/S5QikUOr07ePWfY84+8BR6Xz+UY4P/1aNuZGPxkbMhCQohBagBj4HA4L4zdNjv87z38iTDamxiq7zEsw6hbg0fA8CXgEI4V30bfxnp/IrK4szLee5D05Rkw7ONatr4+P33qtNpJrAcZZDta4IPbIPrXoBw7K8eXJ7znZuf7oLHwjzUix4VRa0JdR9a0PsiQnvml4GiPdwxzf8zPcYi7vZ+7va+L2EulUlY2lz5oLHzQVFxQfeN+Q4GeBTDZDpfDmzH02bjQRdRNTrd+yeFw1Gpc6IJ9s4b+d7j7E43tNfQaP6chYwNmBjmPcLRxbZbVVzRLr5ee03N8oqH6np/TkFDXkb6OIb5OoTYCu4b2mob26tyKq5eKTvb1P8jj8iO8xntJgr0dgrwcgvhcQUWTtLypOK8i4+aDi33dGjwaQ72gHMJZNHLdaP/4f3w/W6lS9NggzP2xx/2mudp5O9m4CXjCZllDo6y2oPpGRklaRVNJ97sw2VlxOVxnsZeXJNBLEmgrcmjpqK9qKcuvvN4oqyWEeNj7zx62vKzh3sncz7X8pwz7HnQWe4a6jvSw9/ew93e397MWiFs7m+rbq/IqMn4vOVPdUtbjvczobWJv5eRq59OhaFeplCq1khDC4XC5HK6AJxTxbe5UXhMJbPychsjkrUqVQqVWqdUqqg2Hw+FzBVYC2+La3A5Fu1jk4G7v1yFvU6qVf7bh8Dh8K4FtRZO0y1w8TJ4fnZ2WxucK3Ox9vSRBXpJAAV/U2tFY11pZUHOTetXc7f2einhZqVbs+/X/6fNEBQwaOi5wtq9j6CBb906FTFp/507l9fTCHxS9z1uJD24D6keB0kXstWLs/7iIvQghAp6IEOIpCVg1/l07kSMhxEsS5DUi6G515oPGIs17Odt6LIxaG+o6khDSqewors3NvP+LnchxsEvkY35TCSFqtfrCve9Tb/1H+1SoTLbDIZwRXuOmDVnqKQmgVzpYu7w940sel8/n8nlcAXXs6s0TT7d1Nhvi2YJHYSMQLxq5PsJrPL2GzxM+FfHyaP/p9BqJ9SCJ9aBQ15FR3pP/c+V/OpUdvW3NUH1PyBPNGf7CuMDZ1DEAubJTWnfbRewV5Dw8yHn41NDFAp5Q//+jh73/ssc2eUoC1Wp1RsnPWWXpXA53pE/MaP/40f7xWfcvpGTtQSc0KgO+oM5iz6cj14a4RvXWwEsS9Ozjr7va+RBCqppLr5eesxLYBDtH+DqG+DqGxIY8vTf99bvVWXR7hjurYR5jno5aa2/l1GW9mqjzqzKbZQ2jfGI4HE6PKZZi2Pcgj8ufEvrMlND/4nMFLR0NhbW35KpOGw5HLJKIRRIfh8Exgxd+de3fmfd/6XJH83qbuIi9loza4Gjj2v1Plc0l7/+8WiySLBix2sXOq/txRKVKUdlcknT57Q5Fu5ON61MRL7mIvXjchz76a1oe/N/v72sGSibPj85OS+FwOBOD5s8Mf07IE3X/a2nD3bKGe4/7TeVyeHeqrmvfFCFExLdePOq1CK+/5lG3EtiGuo4MdR0Z5T0x+cr/NGh8e/mjAHxwG1q/CJShriMnBM0d6v4E/VOFgCcUixxeGLONSpO0UT5xDxqT6JuxIQvjw56l9s71bVV7Lvyjvq2K/uuEoHkLIlZzOJxJwfOHuj/+5e//ktbd7rEAhtuZH7FqQtC8LtvkcrgmOFAPenK1837cb9q4gNlWgr9+hXG29fjv0Zu9JEGEEJVa1eXHjiFuo2JDFp3KO9jjBg3V93wdQ5c9ton6HqVQyb+69mH2g4tUAHWwdlkQsXq451j9/5uTBy+YFf53PlfQqZDtv7S5sCaHWn+l+NRrMXs8JQGR3hO9HILe/3kVJks3EkO9oG52vpMHL4j2jeNzBb21cbXzXjX+XbFI0qmQfZy+qaQ+n1rP5woWRq55wn86IcRW9ND56I+8s7IV2j8V+VKU92Tq/5V+71hB9U0O4YS4Ro3yjbUV2lPfrCg9/uZs8Pegn9OQxaNec7PzValVn19992bZr9SEL8M8xiyJ3mAtEBNCBDzhnGHPZ92/oHlFabN7m9yryX7n1HOj/eMXjVynuf7nO1+n3jpACKlpefDPtBecbNz++4k3fRxD6Aa/l5w5kvURfWWmkvr8935+kc8TTgicO3f4C4SQ5o76w9cTcsofmo38kZ8ffTotxd3eb/Go13wdQwkhLR0NaXe+ltbdtuLbDHaJGOUb62Dt4uMw2MdhsJ7Pj63Q/uWJ73vY+/f4Vx/HkEUj1yVe3NJlPT64DY79QLl+8i4/pyFdVvK5wvkjXnSwdmntbNIcoNMo++tLxnDPsXOGvUAtt3Q0fpy+SfMTnRCSfu+YtcB2xtBnCSEuYq+V47b/86fnWzoauzwW8+38WniipD5fqVI87jdtiNsoamVzR33SpbcVqk65slOhklP/dsjb+vwEAWPzhq+cPHhBl5V+TkM2xH6kIuoz+YdvV14rqr0lFklGeI5/csSL9KdabMjTvxYeb+lo6HJfQ/U9schh5bh3qB6uVCkOXNl+q+I3+q8N7dUHfvvfF8dt1/ldnxLuMXre8JXU8olb/6E/BqiNXys96yl5nqonJmRh2u2v9Nkm9IlBXlAfh8FLov/hbu+n8+GejnxFLJIQQu5UXafTJCFEoZJ/fX2njdBuuOdYKlfRHm1nxePy10z8wN3elxBS21rxn9/eKWu4R/3pVsVvv5ecWTPpA83jTN2Pkxn8PSixGrRy3HYbgZgQciInOev+BfpPOeWX/3127Yqx29zsfAkhKrVSM02a6dtETdSXi38MdokY6TOZXtnlUHFdW2VK5p7XYvfQa1o6Grpf51Oh7Dx398gonxgvh6CUzD1d0uSjPT/6d1pCiJ2V49pJ/6Zeu9L6/KTLbzfJ6qg/3am6fqX41LrJu6iOrQ8BV/jC2G0e9v75VVnp945VNpeI+NaDXSJnDH2W/ikgzO0xf6ew4ro8zTvig9vg2D//9Lub+76/mViqsTckhHhI/Id5jNl1ft3Wk0t+Kz5NrZQrO3PL/9g7W/Ftnop8mW5/VZpW21rRfeNn8g/Tn+I2AvHcP0MAzSDbqWou/b3kTOb9X2pby+mVCqW8pP7Og8ai6pay+raqlo4GmbxVc78GJpN256sDv23vcrKElySoprX8w7NrTuQkF1TfUKoUje216feOpd0+RLcR8IReDkFdtmaovkcIWRi5hv6+dLEoVTN8UFRqpZ5TBAt5oqciXqKWWzoaLxYe79IgV2PjU0L/y6wnUui3DPKCtstbSurzZfJW7c2EfKuAQUOp5R53LClZe5QqhbXgoYERj7azmjZkCZUmCSFfX99Jp0lKacPdH3O/0F6tYd+DhJCnR75CJZLa1vJzd490+Wtta/mu86/+UvBdacPd72/up9eb+9vk5ztfa96M8p7cpcLShrtFtbn0zUjvSb2NMlGo5Hers7IfXNJc+cjPj56dlvJ05FqbP7/nHM5MoNMkpaa1/Nusj/TZDmWUb6y/U1jqrf988uvrOeWXq1vK7jcUnLt75NDv/9Js1v1bHD64DY79QCmtu/1LwdGEXzZonihjK7Q/k/8N9e3h6+s791/cfPTGJ2//uLTmzxd+9rDlEqu/jktnlPR87rZSpbhWeoa++Zjf1CDn4ZoNDLUd6M/aOptvlP366aW3NFcWVN/c/ctr3bPgjbJfNW8623p0aWCoPhPpNUHzTLJLhT3njDuVus8fIoRMG7KEPsUqp/xKl4s98Lj8IOcR9E0hT0RnETAUQ72gNa3lX1379/bTf9d+2paHvT99Jlyo60hPSWCXBs2y+psPLnI5PN2la+Vh7x8X8seQhduVvxdU3+jeJrvrKI2uRygN+x58zHdKuPsTfzbueYCITN76/c39H55dm1N+hV5p7m+T8qbi3Iqr9E0BTzg2cFaXNleKT9HLDtbOQ90f776dQbbuvo6hZ+4c7rL+kZ8fPTstISTKexJ91kf2g0s9DlvMq/xd+1AeTVwO72LhiZ/vfNNl/Y2yXzXPCnWycdNzg/DI2P/Jm6JQyUvr8zU/cS9rvCtuV/5+u/J3zfajfGLo5arm+xVN0t62fK30/KTgv35qmRA0V/Ny9YbaDvR/De3VLR0NYpEDdbOqpbTHoX+a31YJId1PhDdUn5k7fAW9XFSbW9nc8zgGmaJNqVJ0OYm+u8f9p2lWGOE1TvOvIr51l2Dh7TBY84MWmDPsC9ra2XTjwa9j/Gf01kDzLAsR33rtxA/O3k25eO94m7yFXv/F1X/qW33v5o1YSVdL/17URW1rRW1rxSBbd+pmb/P2GOo9GBOykF7O7XYYWAsLeJucufONZkYcFzj7bH6KZvzKKruwIGK1iG9N3RwbOKv7f2FC0LyKZmn3wS4Mnx+dnZYQQo+nJoR0+VindSjaS+rz9Uzz92qyj97Y2329mqhrWsrpYRgONi76bA2Y6C+BkhCieXpvQ3t1s6y+t5YS60FWAlv6Zn17VW8tCSG1LQ80b2qe5GGo7YC50DJcVLONSq2k95s8zkPvEUP1GS9JkObHZEVTsZbtdCjabYR2WhrYCu01h69l3v9F53GCmtYH2htAnxj2BaVU9j5WmhDSJKtraK9xsHambloJbGYOfW5a6OK8yt+vl57LLr+s/zEeLahxEvTN6t67TUtHAx0oux+hpDF/D/K5Ajc7H/pmXVulzg1SLONtUlh7q6g2lw5bEqtBkV4Tr5WepRt0KmSZ9y/Qo+aHuEY72rh2+frxhN/0Y9n7ycMM8vxo77RcDs/d7q/dYG3vr133s2Z7U9lc0tvVtzXPH+UxPlQPOvWjQKmpqfc0SQjR7JGEkGaZtp7XJm9RKDv5f56cS82YQO1qDbUdsDAKlULI63nvY6g+E6zxIU0IaWiv1rIdnWfweEj8NW8eu7lf8zAVmIBhX1A9Hbu5/7kn3tRcw+cJh3uOHe45tklWd6ko9ULBsXZmPSHQeZjmQanalvLeWmo+EPNJwrW8B93sfemS1ETd5Qw8LSzmbXIm//ALY96mb04KflIzUBJCCmtz6EDJ4XDG+M/QnBb0Cb9pCpX899JzXTZrgufHzc5H89h8XU9nn1MwTY85Yv8cyh6pe/nCQXH78/RwSkuHtvRJCKFm3KVwOTxXsbdhtwMDh6H6jMT6oeGZ3edI65Mu82VoHkMF0zDsC6qnrLL0H7KTepzaxt7KKT7sb6/G7HbVOJj3CCR/HgElhMjkrTJFr8NdeztKZHBeGmeLqtVq/Sedtpi3SW75b5pn2vg4hgQMCtdsMD5wjubNJ/yn0xGcw+FMCH7yUlFq95MNTPD8eGjM+Ei0pkYh38rgjw7G1k8DpXZdjgvq8RvKQ1+X6dkuDbUdGDgM1WfEwocmxRD0NLWv/rocEGKYIeARGPYF1d+5u0c+PLs26/6FHk9GdBF7rZnwPn063SPQnL1FyLfWcmG6h2bvM+a+UbMkLofrLO46ZKc3FvM2URP12fwUzTWTgp+kl4e4Rfs6hmRoXGTI3sppuOcYajnc/QlHa5dfuw3fJiZ5frqcDmtn5dBbS4yhMUdmGSjLHz4/qftlGzRxCMdB40u2QiWvbC417HZg4DBUn2l+eE7KHq+Bob+Kh8d/uJntJ6X5MuwL2iflTcWfX333rZNLDmcmFNbkdPk93c7KcVLw/EfeuOZEMFwO187KsbeWDtZ/DXow6lftyqaHdrz6/1JkSW+T6/fPa54WOdxzHN3lpoctvVN57dsbezXPIBwTMJNamBj85PX753scomCC56f+4ZMm7US97j8RKM2ReQbKxmLNm/ZW2ua1txXZa560Ud5YRB9kMtR2esR8tg7ohwzVZ7oMAWa49+yyNc3rj4FpGPYF1QeXw7Pi/zXHZLu85XLRyT0X/vHOqeeuFJ/S/CFYc6qX3jbV259qHh5w7Wzr2WMzscjh4QkRjRgpu+SecI/Ret7Rkt4mSpXifMFR+iaXw50YNI8QEuIa5e8Udvr2oQ5Fe0bJz3SDENcoZ1sPD3v/wS6RvxR81+M2TfD8VD88TtHXKbTHZgGDhmr56mJU+OBmwiwDZbu8RfMUJSetBwO6fH+93/jXlLyG2k6PmPzMBP2WofpM1cOHt8Pcopl0mMb2Ws0jSQGDhkaa84elOTLsC6oPX8eQbTMPdX+U+raqb67v+vr6h/SaLud3dqel1LrWhw4paV6mRVO0b6zmTaOeDlTXWqF5qskTftN7nPm8Owt7m1wpPtXa2UTfHO0fL+JbTx+yNL8qq6j2FiFEc1pyDuGMDpgxKXj+vZrsLvPS00zw/FQ339c8gj7Se3KPzcb4z2BrvBQ+uJkwy0BJCDl/968vZ+72fr1dxJMQ8oR/PL2sVCl+vffQuSOG2g5Fc5yjSGBNX/cJLIlB+kx5U7HmvttKYEv/JvVormocjSCEzBn+gsYcLl2JRQ7Pa4wSBeYM/oLq1NLRIORbRXpP7PGvV6Vp9GyODxoLuzfQc2dV21qumVpGek8Wdjs9lEM4T/jFazZjPspbCzVRZ93/5a/H4nAWRa2zefgKk5o8JYH0bDiW9DbpVMjS7/1A37QS2P7XqNcCnYf9dPtLak1FU0lB9U26wWj/+FE+MZq7r+6M/fzIFG2ZpX+9dp6SgO7zrgc5Dw9zf5y+Kp4J4IPbUPpRoORoFKPzC276ve9LG+7SN8cFzu6xmY3QbqT3JPrmydzPu+xbDbUdiuYEFhzC8XEM0fwrh8NBT7UABukzHYr2nx6+TPCU0Ge8HYJ1Pjq3l7fG6dyDmkMmnWzcNsR+NMJzXJdmHMIZ6TN5Q+xHvR2lgEdj8BdUJ+rCnjGDn+ptr0Jf+bO4Nq/7X/XcWSlU8vN3v6XXWwlsl0Rv7DI0Z96IFQKeUPOiz8Y+PfGH7CTN3u7rGLIh7mNfx66/n3I53Cmhz7wWkxDqNpJaY2Fvk1/v/dCpkNE3I70m3KvJ1rx6gubgG1uhfYOs9laFtnnaTfD8nMz9XPNssece/3+aFzQJdB72wpht10rPdiplPd3bKPDBbSj9aB5KzV8PNadX7ZFKrfrm+q7XYvZQu7Zo37jfpD91uSA4l8NdGPkyPQvgvZrs7pd8NdR2KPVtD00+9+Twlf/5bXtDW7W1wDbENWp62N9+KTiqeV0sMDHNnzN6+2nDWiDWPAbT/foKhuozF+59PzZwFn1ZOVuh/ZqJ//rm+q7ciqvU2fRcDtfXMXRm+HOaZ6cJeym7Td5yKu/ggj+vw0v9R/4+ektta8X9hrtljYViocRD4u8pCbQV2t+uvHb69v/1uB14ZIZ9QUm3YbY2QjvNsRQyRZtCJXez810Yuearax92ua+NQExN0SKTt93SuFgfTf+dVfq9H2JCnqYPAUZ4jf/b42+kF3xfXJfnauczJmDmxKB5R2/s1aw2YFB4XOgzFU3SMLfoIw9fl9kg78HWzqbjOZ89M3I9vcbJxm3d5A9L6vPv1WRXNZc62bi52nl7Owx2EXvdqvjtWskf0zRa2NuktbPpSvGpiRpDvE/nfanZIPvBpUZZLX2p2PSC77XPssT8+dHeaQkhta3laXe+ig/7G3VTyLdaM/FfNS0PpPW3/Z3CBtl6VDWXnrx1YN6IlVrqtNaY0kjL+cqaYyJFD1/UXhM+uA2F9/bbbxtp06fz+vBWHOE5bkzATPrApLXA1opvU91yv733i803y+qldXlBzsOtBbZ8riDKe2Jh7S16PmEBT7hk1IaRPjGEEDVRXy3+6Zvru3qc5MVQ2yGE1LVXjQ2YQU+gJbEeNCl4/pTQ/5oy5L8ivSdm3v8l7c5XPd4RjE0skkwIfnKYxvn7rmIvK4FNQ3uN5k91Qr7VlNBnAp2H0Wsk1oMqm0trWh9onvpjkD6jVquqmkujvCfRx3v4XEGE14S4kGcivCdMCp4/d/iK0QEzSurznWzc+FwBXU95YzH19b3LsLD7DXdFfCu/QWGaPzjaCMXu9n6DXSL9nIYMsnUX8kSZ93/5IuOfKpXy0Z9N6IkBX1A7K8exAbMmBs2jmxFCJFbOlc0lrZ1/DScfGzDLSmDj5RDk6xhSWJNNTRLJ5XADBg19ZuSrzmJPlVqZfOV/unzboei/s1KqFA8aC8M9HqeP07jb+z3hPz0u5OmJwU/6OQ3Jr8o8euMTG6EdfSiLy+GGuEaN9Jl8reSMtP4OtdKw78GyhnsqtTJw0DD62eZwuA7WLoGDwod7jg12GeFh728rtL9VfuVgxnuaU3Va2NuksrlkQtBcDodLCCmqvfVj7heaf1UTtYhvE+wyghAik7d++fu/dF6M45GfHz07LSHkXk12ZZN0iFs0nyf4c/t2npIAG6FdWcO9//z2TnNHfbjHE/SRwtrW8t9Lzvy5wUHxYcsGu0TSW3MWezrZuLXJmzWvJiAWSaYOWTzcaxz9v7ATOXI4nPKmInm3CbYG2gd3fNgyI22Zo/+ssH316tF4nW24HN6CiNVBzsN7u5JhXVvl/YaCM3cOl/y5V+pCxLeeM+z5sYGzqH5T21peWHvL0drFf9BQqls/aCw8kvVRUW2u9koMtZ2xATOfilzT5SchNVFfKPj++5tdL3UFJmAtEG+I/UjLmUC/FZ/++vpOK4HtazEJzraePZ5u0amQnb79ZZe53wzSZ8LcHlsS/Q/NqfVo+VVZJ3I+K224u3324YeH0BJCSLOs/q2Ti7vfK9z9iSXR/+jxyn6Nstqz+SnpBccMdaUW6I7hC2otEP8j7mMtB10a2mve/Wk59aG4NHrjKJ9Yqseq1Krqlvu1rRV+TkOojVc2l6TeOpD94FJvm+rTzspZ7Pn86K3dd9TXSs9+m7W3Xd7C4/I3xH6keUrxleLTKZm7VWqV8d6DnpLApdEbPR+eLpvSLm85m3/kTP43PX7GWdLbZEn0Px7znUII2XfxzTuV17r81d7K6a34L3hc/vm7R49lJ+q5zT49P33qtLRBtu4RXhN8HAZ7Ow7mcwVlDQV3q2/+WvgDFXmfjnpl7J9nIV8rPft/Ge8TQpaPfmu459jeHqW5o/6dU8/JlZ2xIQtnhz/fYy9SqVU/5n7x852vu6wfUB/cOxcY62gr64GSG+I6slPRLlO0K1RylVqpUimpbsrl8DgcjoArFPKt6tuqtF9fy0Xs5e0Q7CkJ8JAEuNh6NrTXlDcVVzRJK5qkJfV39L+Eg0G24+c0ZFzgbFext43Qrr6turK55FLRiQqtVzgF4+Fx+b6OoTJ5q1zVqVar1WoV1cE4hMPlcAU8kZqoK5qkPC7f3ylMoZIrVHKlSq5QKdRqFY/L53MFfK6AxxW0dDRUt5R13z7zPmPFtxnpE0NtwYpvc7+hoKT+TnFdHn1+0vbZh634NvVtVbVtFTUtD6pbHlQ2S8saC3u73r1YJAl2ifB1DPFxCLG3cqxrq6prqyiqvZV5/wIuFmoCTF5QHpcf7DyiXd7SoZCp1EqVWkVd1ZrL4XI5PBHfylpod7cqk+5XDtbOUd6TvRwC7URO1Kyo9e2V9W1VuRUZueW/6YxEfdpZ8bh8L0mgj2OIj8NgK4HNg8bCezU5mmfsifjWk3yswdgAACAASURBVAcv8JIENbRX36nKvFV+hb6j8d6DPC4/yHmYpyTQUxLoKQlQqZRVLfdL6u78Jv1JcyLG7izmbeJu77dpyr6Suju7zq/vscFzj/+/EV7jt5/+b82pK3XS//npa6fVh2Z2/O7GJxfuHSOEBAwaqlarZYo2pUqh+Sg8Lk/Is7YWiqlHcbf3tRM5dSjaOpUyhUqhUim5HC6PKxDyrUR865aOBs3rDNEGzge3xQZKANDJRmjX3tliLsdLQCe8oGBY3g7BzR31je21Pf7VTuRob+VUpmuqO1MS8ITdf3rW9FrsHh+HwdTyrvPrpXW3TVLXgGC8QNmPBuUAQI+0XPEWzBFeUDCs+w0FWv7a3FHf3NHzrxmmF+b22NNRayXWg3IrMg78tr3Hg8FcDm/Qn4PbWjoa+vlYe6D1o2mDAAAAwILFhS5ytHHlcnjDPEY/4TetxzaP+02lZhVQE/X//f4vzTFV0J8hUAIAAIApaJ5lFxPytObFaSkO1i7Thiyhls/lH+k+zAj6LQRKAAAAMIUz+Yfp0TnOth6rx//T1zFUyLficDguYq8x/jM2TfnE0cZVoZKn3f4q9dYBVouFvsGgHAAAADCRYR5j4kIX+TuF0WvURK1SKemjlXmVGUdvfFLT8oClAi0cBuUAAACA2cspv5xTftnD3j/Iebirnbe1wE7Et5Ip2iqaissbpeVNRQ3tNWzXCI8CgRIAAABMqrypuLypmO0qwJBwDiUAAAAAMIJACQAAAACMIFACAAAAACMIlAAAAADACAIlAAAAADCCQAkAAAAAjCBQAgAAAAAjCJQAAAAAwAgCJQAAAAAwgkAJAAAAAIwgUAIAAAAAIwiUAAAAAMAIAiUAAAAAMIJACQAAAACM8E3/kDsXnDL9g4JFulVQRS+HB7uyWAlYKvQxMDb0MTCGV4/Gm/gRcYQSAAAAABhBoAQAAAAARhAoAQAAAIARBEoAAAAAYASBEgAAAAAYQaAEAAAAAEYQKAEAAACAEQRKAAAAAGAEgRIAAAAAGEGgBAAAAABGECgBAAAAgBEESgAAAABgBIESAAAAABhBoAQAAAAARhAoAQAAAIARBEoAAAAAYASBEgAAAAAY4bNdAMAfLl68mJ2dPW/ePA8PD7ZrAcuEPgbG09DQkJeXV1FRERgYOGTIEJFIxHZFYGn6eR9DoIR+ISkpafXq1QqFIiwsDB/2YAzoY2AkUql0+/btn3/+uUAgcHFxKSsrc3Bw2LBhwyuvvGJjY8N2dWAJzKKP4SdvYN+WLVtWrFihUCjYLgQsFvoYGMm5c+eioqKKi4svXbrU2tpaXFwsk8kSExOTk5MnTJhQXl7OdoFg9syljyFQApvkcvmzzz67fft2tgsBi4U+BsaTlpY2ffr0SZMm/fjjj9HR0dRKHo83f/789PT0pqamMWPGVFVVsVskmDUz6mMIlMCaysrK6dOnHzx4cNiwYWzXApYJfQyMp7S0dMmSJSKRKDExkc/vev6Ym5vbnj17pFLp4sWLlUolKxWCuTOvPoZACew4ffp0RERERkZGQkJCamoq2+WABUIfA6Nat25dTU3N8uXLXVxcemwQHx8/YsSIs2fPfvrppyauDSyDefUxBEowNblcvnHjxhkzZkRGRubk5Kxdu5bLRT8EQ0IfA2MrLi4+duwYIWTOnDlams2ePZsQsnv3brVabaLKwFKYXR/DThZMLS0tLTk5+cCBA6dOnfLz82O7HLBA6GNgbHv37lWpVAKBYOLEiVqaxcXFEUJu376dlpZmqtLAQphdH8O0QWBqM2fOLCoqsre3Z7sQsFjoY2BUbW1tSUlJhJCQkBChUKil5fDhw6mFhISEadOmmaI4sAjm2MdwhBJYgE96MDb0MTCeL7/8sr6+nhAydOhQ7S1dXFycnZ0JISdPniwoKDBFcWARzLGPIVACAAD0wdGjR6kFHx8fnY19fX0JIWq1mr4XgE7m2McQKAEAAPqgqKiIWuht7K0muk1hYaERawLLYo59DIESAABAX2q1WiqVUst9+rCnIwKAdmbaxxAoAQAA9FVRUSGTyahlW1tbne3pNgiUoCcz7WMIlAAAAPrS/MzWPvy2SxupVKpSqYxVFlgQM+1jCJQAAAD6euQP+87OzrKyMmOVBRbETPsYAiUAAIC+6urq6GUej6ezveYlmBsaGoxSE1gWM+1jCJQAAAD6oqZooXR0dOhs39nZ2eN9AXpjpn0MgRIAAEBfAQEB9HKfPuwdHR0lEomxygILYqZ9DIESAABAX5of9vRQXC3oQODv72+kksDCmGkfQ6AEAADQl52dHXWlO0JIdXW1zvbUBfTIwykBQAsz7WMIlAAAAH0QGBhILZSXl+tsTAcCBErQnzn2MQRKAACAPoiMjKQW7t+/r7NxVVUVtRAdHW3EmsCymGMfQ6AEAADog5deeolayM7O1t5SqVRScwq6urouWLDA6JWBpTDHPoZACQAA0AcRERGTJ08mhOTn57e1tWlpee/ePWrAxIoVK/SZoRqAYo59DIESAACgb9avX08IUSqV6enpWpplZGQQQng83qpVq0xUGVgKs+tjCJQAAAB9M2fOHGrYREpKipZmp06dIoTMmzfP29vbRJWBpTC7PoZACQAA0DdcLnfbtm2EkMOHD/c2sUtjY+Px48eFQuHmzZtNWx1YArPrYwiUwL6CggJ6ubCwkMVKwFKhj4HBLVu2bOXKlc3NzVu2bOmxwXvvvdfY2Pjvf/87KirKxLWBZTCvPoZACSzLzMx8/fXX6Zu7du26fv06i/WA5UEfAyNJSEhYsGDB/v37//Wvf3X5U2Ji4o4dOzZt2rRmzRpWagPLYEZ9jM92ATBAXbhwYevWrbm5ufQEWpSbN2+OGjXK29s7PDz8o48+Cg4OZqtCMHfoY2BsIpEoJSVl8+bNb7755tGjRxcuXOjp6VlSUvLdd9/l5eXt27dv5cqVbNcI5s2M+hhHrVYbadOvHo3vcf3OBaeM9IhgRmpqasrKyqytra2srPh8Pp/P5/F4SqVSoVDI5XKZTNbe3h4cHCwWi7Vs5FbBX0EhPNjV+FWDOUEfA5MpKSlJSEi4fv36gwcPAgICxowZs3btWkdHR33uiz4G+uhrHzN9BsMRSmCHs7Mzfa1SAGNAHwOT8fX1/eCDD9iuAixZ/+9jOIcSAAAAABhBoAQAAAAARhAoAQAAAIARBEoAAAAAYASBEgAAAAAYQaAEAAAAAEYQKAEAAACAEQRKAAAAAGAEgRIAAAAAGEGgBAAAAABGECgBAAAAgBEESgAAAABgBIESAAAAABjhm/4hXz0ab/oHBct3k+0CwOKhj4GxoY+B2cIRSgAAAABgBIESAAAAABhBoAQAAAAARlg4h3LnglOmf1CwSLcKqujl8GBXFisBS4U+BsaGPgbGYPrxKjhCCQAAAACMIFACAAAAACMIlAAAAADACAIlAAAAADCCQAkAAAAAjCBQAgAAAAAjCJQAAAAAwAgCJQAAAAAwgkAJAAAAAIwgUAIAAAAAIwiUAAAAAMAIAiUAAAAAMIJACQAAAACMIFACAAAAACMIlAAAAADACAIlAAAAADCCQAkAAAAAjPDZLgDgDxcvXszOzp43b56HhwfbtYClkcvl+fn5d+/e9fX1DQ8PF4lEbFcElgn7MTCehoaGvLy8ioqKwMDAIUOG9Lf9GAIl9AtJSUmrV69WKBRhYWHYEYMBnThxYsuWLbdu3ZLL5dQaPp8fFhb2+uuvL1myhN3awMJgPwZGIpVKt2/f/vnnnwsEAhcXl7KyMgcHhw0bNrzyyis2NjZsV/cH/OQN7NuyZcuKFSsUCgXbhYBFqaioWLRo0Zw5c7Kysug0SQhRKBTZ2dlLly6Nj48vKipisUKwJNiPgZGcO3cuKiqquLj40qVLra2txcXFMpksMTExOTl5woQJ5eXlbBf4BxyhBDbJ5fLnn3/+4MGDbBcClkYmk02bNi07O1ssFi9dujQiIiIoKKioqCgzM/OLL75ob28nhJw+fTomJiYrK8vBwYHtesGMYT8GxpOWljZr1qxZs2alpKTw+X9kNh6PN3/+/LFjx44fP37MmDFXr151dXVlt06CI5TAosrKyunTpx88eHDYsGFs1wKWZsOGDdnZ2QsXLszLy9u3b9/q1aunTZv24osv7tu378aNG+PGjaOaSaXSF198kd1SwaxhPwbGU1paumTJEpFIlJiYSKdJmpub2549e6RS6eLFi5VKJSsVakKgBHacPn06IiIiIyMjISEhNTWV7XLAopw8eXLv3r2LFy9OSUnx9vbu8tfBgwefOHHC3d2dunn48OEffvjB5DWCJcB+DIxq3bp1NTU1y5cvd3Fx6bFBfHz8iBEjzp49++mnn5q4tu4QKMHU5HL5xo0bZ8yYERkZmZOTs3btWi4X/RAM6ZNPPomMjPzss896a+Dg4LBz5076ZlpamknqAsuB/RgYW3Fx8bFjxwghc+bM0dJs9uzZhJDdu3er1WoTVdYLvAHA1NLS0pKTkw8cOHDq1Ck/Pz+2ywFL09zcnJaW9tZbb1lbW2tpNmPGDHr5ypUrxq8LLAr2Y2Bse/fuValUAoFg4sSJWprFxcURQm7fvs36F2MMygFTmzlzZlFRkb29PduFgGVKTU21t7envrVrIZFIPDw8qAGSOTk5JikNLAf2Y2BUbW1tSUlJhJCQkBChUKil5fDhw6mFhISEadOmmaK4XuAIJbAAe2EwntDQ0KSkJIFAoLOls7MztdD9PEsAnbAfA+P58ssv6+vrCSFDhw7V3tLFxYXalZ08ebKgoMAUxfUCgRIALEpUVNTcuXN1NlOr1fTONywszMhFAQD0wdGjR6kFHx8fnY19fX0JIWq1mr4XKxAoAWAgkkql1GyUhBB6FiEAgP6AvuZCb+O7NdFtCgsLjViTLgiUADAQffvtt9SCi4vLyy+/zG4xAAA0tVotlUqp5T4FSnYv/YVACQADjkKh2L17N7X8xhtviMVidusBAKBVVFTIZDJq2dbWVmd7ug0CJQCASX399delpaWEkJiYmLVr17JdDgDAXzRzofYh3l3aSKVSlUplrLJ0QaAEgIGlqqpqw4YNhJCgoKAjR450v6AZAACLHjlQdnZ2lpWVGassXRAoAWBgWb58eVVVlaOj4/Hjx52cnNguBwDgIXV1dfQyj8fT2V7zW3FDQ4NRatIDAiUADCAff/xxamqqk5PTzz//jNmCAKAfoqYBonR0dOhs39nZ2eN9TQy/9QDAQJGamrp+/XoqTUZFRbFdDgBADwICAujlPgVKR0dHiURirLJ0wRFKABgQLl++vGjRIgcHh7NnzyJNAkC/pRko6eHeWtCh09/f30gl6QOBEgAsX25u7uzZsyUSyfnz5yMiItguBwCgV3Z2dvSFYaurq3W2py7SSB5OoqaHQAkAFq6wsHDq1KlisfjChQvh4eFslwMAoENgYCC1UF5errMxHToRKAEAjKW0tDQ2NlYgEJw/fz44OJjtcgAAdIuMjKQW7t+/r7NxVVUVtRAdHW3EmnRBoAQAi1VRUREXF0cIOX/+PLvf3QEA9PfSSy9RC9nZ2dpbKpVKat5KV1fXBQsWGL2y3iFQAoBlqqmpiYuLa21tPX/+vM5z1a9du6bPye8AACYQERExefJkQkh+fn5bW5uWlvfu3aMG5axYsUKfWdCNB4ESACxQc3Pz9OnTi4qKjh07pjNNZmdnR0dHNzU1maQ0AADd1q9fTwhRKpXp6elammVkZBBCeDzeqlWrTFRZLxAoAcDSyOXyp556KjMz88CBA/qcVLR7926RSOTi4mKC2gAA9DFnzhxqaE5KSoqWZqdOnSKEzJs3z9vb20SV9QKBEgAszapVq9LS0rZu3bpo0SKdjQ8dOpScnOzl5cXhcExQGwCAPrhc7rZt2wghhw8f7m3yoMbGxuPHjwuFws2bN5u2uh7gSjnAvoKCAnq5sLBw0qRJLBYD5u7w4cPJyclCoTAnJ0d7oGxtbS0uLs7NzSWEsP7lHswd9mNgcMuWLUtPT09MTNyyZcu+ffu6N3jvvfcaGxv37NnTHy7WgEAJLMvMzHz99dfpm7t27YqIiBg5ciSLJYH5amhoWL16NSGks7PzyJEj+t/Rx8fHaEWB5cN+DIwkISGhpqZm//79QUFBGzdu1PxTYmLijh07Nm3atGbNGrbK04RACey4cOHC1q1bc3Nz6Qm0KDdv3hw1apS3t3d4ePhHH32EiQOhTz788MO6urpHuCOOUMIjwH4MjE0kEqWkpGzevPnNN988evTowoULPT09S0pKvvvuu7y8vH379q1cuZLtGv+AQAnsGDp06K5du6ytra2srPh8Pp/P5/F4SqVSoVDI5XKZTNbe3u7u7s52mWBm5syZEx8fLxKJRCKRQCDgcrkcDofL5VILhBCVSqVSqdRqtUqlUiqVnZ2dHR0dHR0dfn5+bNcO5gf7MTABLpf77rvvrlq1KiEhITU19cGDBwEBATNnzvzxxx8dHR3Zru4vCJTADmdnZ/papQCG8thjj7FdAgwg2I+Byfj6+n7wwQdsV6ENRnkDAAAAACMIlAAAAADACAIlAAAAADCCQAkAAAAAjCBQAgAAAAAjCJQAAAAAwAgCJQAAAAAwgkAJAAAAAIwgUAIAAAAAIwiUAAAAAMAIAiUAAAAAMIJACQAAAACMIFACAAAAACN80z/kq0fjTf+gYPlusl0AWDz0MTA29DEwWzhCCQAAAACMIFACAAAAACMIlAAAAADACAvnUO5ccMr0DwoW6VZBFb0cHuzKYiVgqdDHwNjQx8AYTD9eBUcoAQAAAIARBEoAAAAAYASBEgAAAAAYQaAEAAAAAEYQKAEAAACAEQRKAAAAAGAEgRIAAAAAGEGgBAAAAABGECgBAAAAgBEESgAAAABgBIESAAAAABhBoAQAAAAARhAoAQAAAIARBEoAAAAAYASBEgAAAAAYQaAEAAAAAEYQKAEAAACAET7bBQD84eLFi9nZ2fPmzfPw8GC7FrA0crm8sLAwPz9fLBaHhYW5u7uzXRFYGrlcnp+ff/fuXV9f3/DwcJFIxHZFYGkaGhry8vIqKioCAwOHDBnS3/oYjlBCv5CUlDR58uTVq1fn5+ezXQtYlOrq6jVr1ojF4iFDhsydOzc2NtbDwyMwMPDgwYMqlYrt6sASnDhxIioqytbWdtiwYfPnzx81apRYLB4xYsShQ4fYLg0shFQqXbFihaur65QpU1599dXo6Ghvb+8dO3a0tbWxXdpfECiBfVu2bFmxYoVCoWC7ELA0Z86cCQ4O/vjjjzs7OzXXFxUVPfvss/Hx8XK5nK3awAJUVFQsWrRozpw5WVlZmn1JoVBkZ2cvXbo0Pj6+qKiIxQrBApw7dy4qKqq4uPjSpUutra3FxcUymSwxMTE5OXnChAnl5eVsF/gH/OQNbJLL5c8///zBgwfZLgQs0M2bNxcsWNDU1DRz5syZM2cOHjy4srLy6tWrn376aUdHByEkLS3tpZde+vTTT9muFMySTCabNm1adna2WCxeunRpREREUFBQUVFRZmbmF1980d7eTgg5ffp0TExMVlaWg4MD2/WCWUpLS5s1a9asWbNSUlL4/D8yG4/Hmz9//tixY8ePHz9mzJirV6+6urqyWydBoAQWVVZWLl68+Ny5c8OGDcvJyWG7HLAobW1ts2fPdnBw+Omnn5544gl6/d/+9rf169fHxMSUlpYSQg4cOPDvf//b3t6evUrBXG3YsCE7O3vhwoU7d+709vbu8qe///3vFy9eJIRIpdIXX3zxm2++YalMMGOlpaVLliwRiUSJiYl0mqS5ubnt2bNnxowZixcv/umnn3g8HitF0vCTN7Dj9OnTERERGRkZCQkJqampbJcDluajjz4SCoXp6emaaZISFBT0+eefU8sKheLKlSsmrw7M3smTJ/fu3bt48eKUlJQuaZIQMnjw4BMnTtBjvw4fPvzDDz+YvEYwe+vWraupqVm+fLmLi0uPDeLj40eMGHH27Nn+8EsLAiWYmlwu37hx44wZMyIjI3NyctauXcvloh+CITU1Nb3//vvJycm+vr49NoiJiRk0aBC17OnpacLSwEJ88sknkZGRn332WW8NHBwcdu7cSd9MS0szSV1gOYqLi48dO0YImTNnjpZms2fPJoTs3r1brVabqLJe4IMcTC0tLS05OfnAgQOnTp3y8/NjuxywQK2trZs2bZo4caKWNkFBQYQQNze30NBQU9UFFqK5uTktLe2tt96ytrbW0mzGjBn0Mg6EQ1/t3btXpVIJBALtu7K4uDhCyO3bt1n/0oJACaY2c+ZMaowt24WAxfLw8Ni0aZOWBkqlMi8vjxDyzjvvCAQCU9UFFiI1NdXe3p46MqSFRCKhZ9XFaeLQJ21tbUlJSYSQkJAQoVCopeXw4cOphYSEBFNU1jsESmABxkAAu/bt29fc3Dx//vznn3+e7VrA/ISGhiYlJenzVcTZ2Zla6H6eJYAWX375ZX19PSFk6NCh2lu6uLhQ3ezkyZMFBQWmKK4XCJQAMLDk5+e/8cYbU6dO/eqrr3D+LjyCqKiouXPn6mymVqvpD/iwsDAjFwUW5ejRo9SCj4+PzsbUyeJqtZq+FyuwMwWAAaSoqCguLm7hwoXHjx/vbxcuAwsjlUqp2SgJIePGjWO3GDAv9Hz4vY3v1kS3KSwsNGJNuiBQAsBAcfPmzZiYmGXLliUnJyNNgrF9++231IKLi8vLL7/MbjFgRtRqtVQqpZb7FCjZvSwTAiUADAgpKSljx46VSqU7duywt7cfNWrUG2+8QR9AAjAshUKxe/duavmNN94Qi8Xs1gNmpKKiQiaTUcu2trY629NtECgBAIxIqVS+8cYbixYtam1tpdY0Nzdfv359x44dUVFRmM8FjOHrr7+mrsYUExOzdu1atssBc6KZC7UP8e7SRiqVqlQqY5WlCwIlAFgymUw2d+7c/fv3v/3222lpaenp6f/85z/puSfv3LkTGxtL/7oEYBBVVVUbNmwghAQFBR05cqT7RfMAtHjkQNnZ2VlWVmassnRBoAQASyYSiahrMm3dunXKlCnjx49//fXXf/vtt9jYWKpBe3s79dkPYCjLly+vqqpydHQ8fvy4k5MT2+WAmamrq6OX9blCt+Y3loaGBqPUpAcESgCwZBwO53//93+7XF9RIpGkpqbSK7/99ttLly6xUR1YoI8//jg1NdXJyennn3/GbEHwCDSvGdvR0aGzfWdnZ4/3NTEESgAYiKysrF5//XX65sWLF1ksBixGamrq+vXrqTQ5cuRItssBsxQQEEAv9ylQOjo6SiQSY5WlCwIlAAxQK1asoH8qoq7ECMDE5cuXFy1a5ODgcPbs2aioKLbLAXOlGSjp4d5a0KHT39/fSCXpA4ESAAYoKysrev+LQAkM5ebmzp49WyKRnD9/PiIigu1ywIzZ2dnRF+2srq7W2Z66SCN5OImaHgIlAAxcISEh1II+12UG6E1hYeHUqVPFYvGFCxfCw8PZLgfMXmBgILVQXl6uszEdOhEoAQDYQf/k7eHhwW4lYL5KS0tjY2MFAsH58+eDg4PZLgcsQWRkJLVw//59nY2rqqqohejoaCPWpAsCJQAMXLdu3aIWRo0axW4lYKYqKiri4uIIIefPn2f3+BBYkpdeeolayM7O1t5SqVRS81a6urouWLDA6JX1DoESAAaotrY2egLhp556it1iwBzV1NTExcW1traeP39e53iIa9eu6TPAAoAQEhERMXnyZEJIfn5+W1ublpb37t2jBuWsWLFCn1nQjQeBEgAGqF9//ZW6TNmCBQuCgoLYLgfMTHNz8/Tp04uKio4dO6YzTWZnZ0dHRzc1NZmkNLAE69evJ4Qolcr09HQtzTIyMgghPB5v1apVJqqsFwiUADAQqdXqzZs3E0I8PT0TExPZLgfMjFwuf+qppzIzMw8cOKDPiWu7d+8WiUQuLi4mqA0sw5w5c6ihOSkpKVqanTp1ihAyb948b29vE1XWCwRKALA0tbW1mpeO6FFKSkpGRgaHw/niiy8GDRpkmsLAYqxatSotLW3r1q2LFi3S2fjQoUPJycleXl4cDscEtYFl4HK527ZtI4QcPny4t8mDGhsbjx8/LhQKqa/H7MIV64F9BQUF9HJhYeGkSZNYLAbM3YcffrhhwwY3N7d33nnnhRde6PEjPCMj45VXXiGEvPXWW9SICgD9HT58ODk5WSgU5uTkaA+Ura2txcXFubm5hBDWDyCB2Vm2bFl6enpiYuKWLVv27dvXvcF7773X2Ni4Z8+e/jCRPgIlsCwzM1PzCni7du2KiIjAJcvgkVHfTyorK1euXHngwIFPP/106NChmg1SUlKee+45Hx+fr776KiYmhqUywVw1NDSsXr2aENLZ2XnkyBH97+jj42O0osBiJSQk1NTU7N+/PygoaOPGjZp/SkxM3LFjx6ZNm9asWcNWeZoQKIEdFy5c2Lp1a25uLj2BFuXmzZujRo3y9vYODw//6KOPMKkb9NWWLVvy8/PPnDlDCLl06VJUVNTChQtjY2NdXFwuXLhw7ty5W7dubdq06c033xSJRGwXC+bnww8/rKure4Q74gglPAKRSJSSkrJ58+Y333zz6NGjCxcu9PT0LCkp+e677/Ly8vbt27dy5Uq2a/wDR61WG2nTrx6N73H9zgWnjPSIYEZqamrKysqsra2trKz4fD6fz+fxeEqlUqFQyOVymUzW3t4eHBwsFou1bORWwV9hNDzY1fhVg3lQq9W//fbbyZMnr127VltbW19fz+Fw3Nzc/Pz8pk6dGh8fr//YCPQx6CIjI0Mul4tEIpFIJBAIuFwuh8PhcrnUAiFEpVKpVCq1Wq1SqZRKZWdnZ0dHR0dHh5+fn6+vb/cNoo+BPkpKShISEq5fv/7gwYOAgIAxY8asXbvW0dGxt/amz2A4QgnscHZ2fG90oQAAIABJREFUpq9VCmBYHA5n9OjRo0ePZrsQsECPPfYY2yXAQOTr6/vBBx+wXYU2GOUNAAAAAIwgUAIAAAAAIwiUAAAAAMAIAiUAAAAAMIJACQAAAACMIFACAAAAACMIlAAAAADACAIlAAAAADCCQAkAAAAAjCBQAgAAAAAjCJQAAAAAwAgCJQAAAAAwgkAJAAAAAIzwTf+Qrx6NN/2DguW7yXYBYPHQx8DY0MfAbOEIJQAAAAAwgkAJAAAAAIwgUAIAAAAAIyycQ7lzwSnTPyhYpFsFVfRyeLAri5WApUIfA2NDHwNjMP14FRyhBAAAAABGECgBAAAAgBEESgAAAABgBIESAAAAABhBoAQAAAAARhAoAQAAAIARBEoAAAAAYASBEgAAAAAYQaAEAAAAAEYQKAEAAACAEQRKAAAAAGAEgRIAAAAAGEGgBAAAAABGECgBAAAAgBEESgAAAABgBIESAAAAABhBoAQAAAAARvhsFwDwh4sXL2ZnZ8+bN8/Dw4PtWsDy5eTk3Lp165lnnmG7ELAQcrk8Pz//7t27vr6+4eHhIpGI7YrA0jQ0NOTl5VVUVAQGBg4ZMqS/9TEcoYR+ISkpafLkyatXr87Pz2e7FrB8dXV18fHxK1euZLsQsAQnTpyIioqytbUdNmzY/PnzR40aJRaLR4wYcejQIbZLAwshlUpXrFjh6uo6ZcqUV199NTo62tvbe8eOHW1tbWyX9hcESmDfli1bVqxYoVAo2C4EBoqVK1eWlZWxXQWYvYqKikWLFs2ZMycrK0sul9PrFQpFdnb20qVL4+Pji4qKWKwQLMC5c+eioqKKi4svXbrU2tpaXFwsk8kSExOTk5MnTJhQXl7OdoF/wE/ewCa5XP78888fPHiQ7UJgAElOTv7222/ZrgLMnkwmmzZtWnZ2tlgsXrp0aURERFBQUFFRUWZm5hdffNHe3k4IOX36dExMTFZWloODA9v1gllKS0ubNWvWrFmzUlJS+Pw/MhuPx5s/f/7YsWPHjx8/ZsyYq1evurq6slsnwRFKYFFlZeX06dMPHjw4bNgwtmuBgaKgoGDdunVsVwGWYMOGDdnZ2QsXLszLy9u3b9/q1aunTZv24osv7tu378aNG+PGjaOaSaXSF198kd1SwUyVlpYuWbJEJBIlJibSaZLm5ua2Z88eqVS6ePFipVLJSoWaECiBHadPn46IiMjIyEhISEhNTWW7HBgQFArF0qVLW1pa2C4EzN7Jkyf37t27ePHilJQUb2/vLn8dPHjwiRMn3N3dqZuHDx/+4YcfTF4jmL1169bV1NQsX77cxcWlxwbx8fEjRow4e/bsp59+auLaukOgBFOTy+UbN26cMWNGZGRkTk7O2rVruVz0QzCFbdu2ZWVlzZw5k+1CwOx98sknkZGRn332WW8NHBwcdu7cSd9MS0szSV1gOYqLi48dO0YImTNnjpZms2fPJoTs3r1brVabqLJe4IMcTC0tLS05OfnAgQOnTp3y8/NjuxwYKH799dd33313+/btI0eOZLsWMG/Nzc1paWlvvfWWtbW1lmYzZsygl69cuWL8usCi7N27V6VSCQSCiRMnamkWFxdHCLl9+zbrX1oQKMHUZs6cWVRU9Oyzz7JdCAwgjY2Ny5Yti4mJ+cc//sF2LWD2UlNT7e3tqSNDWkgkEnpW3ZycHOPXBZajra0tKSmJEBISEiIUCrW0HD58OLWQkJBgisp6h0AJLLC3t2e7BBhYXnrppZaWli+++ILD4bBdC5i90NDQpKQkgUCgs6WzszO10P08SwAtvvzyy/r6ekLI0KFDtbd0cXGhutnJkycLCgpMUVwvECgBwMJ9+eWXhw4dSkpK8vT0ZLsWsARRUVFz587V2UytVtMf8GFhYUYuCizK0aNHqQUfHx+djX19fQkharWavhcrECgBwJJJpdKXX37573//+5NPPsl2LTCwSKVSajZKQgg9ixCAPuj58Hsb362JblNYWGjEmnRBoAQAi6VSqZYtW+bo6Lh79262a4EBh54/38XF5eWXX2a3GDAjarVaKpVSy30KlOxelglXygEAi/X+++9funTp3LlzdnZ2bNcCA4tCoaC/xrzxxhtisZjdesCMVFRUyGQyatnW1lZne7oNu4ESRygBwDLdvHlz69at69at0z7pBoAxfP3116WlpYSQmJiYtWvXsl0OmBPNXKh9iHeXNlKpVKVSGassXRAoAcACdXZ2Pvvss97e3tu3b2e7FhhwqqqqNmzYQAgJCgo6cuRI94vmAWjxyIGys7OzrKzMWGXpgl4OABbo7bffvnHjxpkzZ2xsbNiuBQac5cuXV1VVOTo6Hj9+3MnJie1ywMzU1dXRyzweT2d7zW8sDQ0N+gwMNwYcoQQAS3P58uX333//hRdeiI2NZbsWGHA+/vjj1NRUJyenn3/+GbMFwSOgpgGidHR06Gzf2dnZ431NDEcoAcCitLW1Pffcc25ubh988AHbtcCAk5qaun79eipNRkVFsV0OmKWAgAB6uU+B0tHRUSKRGKssXRAoAcCibNy48e7du8eOHWNxxwoD0+XLlxctWuTg4PDzzz9HRESwXQ6YK81ASQ/31oIOnf7+/kYqSR8IlABgOdLS0vbu3evu7n7z5s2bN2/22CY9PZ1a6Ojo0ByyY29v/8orr5iiSrBEubm5s2fPlkgkaWlp4eHhbJcDZszOzs7Z2bmmpoYQUl1drbM9dZFG8nASNT0ESgCwHHv27CGEVFRUbNmyRWfjjo4OzWbe3t4IlPBoCgsLp06dKhaLz5w5ExwczHY5YPYCAwOpQFleXq6zMR06ESgBAAzDz89P50+NFRUVlZWVhBAulzt8+HB6vZubm3GLAwtVWloaGxsrEAjOnTvH7ic6WIzIyMirV68SQu7fv6+zcVVVFbUQHR1t3LK0QqAEAMtBHaHUbsuWLdQv3WKxOCsry/hFgSWrqKiIi4sjhJw/f57dM9jAkrz00kuJiYmEkOzsbO0tlUolNW+lq6vrggULTFFcLzBtEAAAwKOoqamJi4trbW3VJ01eu3ZNnwEWAISQiIiIyZMnE0Ly8/Pb2tq0tLx37x41KGfFihX6zIJuPAiUAAAAfdbc3Dx9+vSioqJjx47pTJPZ2dnR0dFNTU0mKQ0swfr16wkhSqWSHkfYo4yMDEIIj8dbtWqViSrrBQIlAABA38jl8qeeeiozM/PAgQP6nLi2e/dukUjk4uJigtrAMsyZMycwMJAQkpKSoqXZqVOnCCHz5s3z9vY2UWW9QKAEAADom1WrVqWlpW3dunXRokU6Gx86dCg5OdnLy4vD4ZigNrAMXC5327ZthJDDhw/3NnlQY2Pj8ePHhULh5s2bTVtdDzAoB9hXUFBALxcWFk6aNInFYgAAtDt8+HBycrJQKMzJydEeKFtbW4uLi3NzcwkhrB9AArOzbNmy9PT0xMTELVu27Nu3r3uD9957r7Gxcc+ePf3hskwIlMCyzMzM119/nb65a9euiIiIkSNHslgSAEBvGhoaVq9eTQjp7Ow8cuSI/nf08fExWlFgsRISEmpqavbv3x8UFLRx40bNPyUmJu7YseP/s3fvUVGVC9zHH66jiSIqeAkxhLxhAoKVHU0BL3hBj0ieTLM3C1PzukyS5S1PZXryimaKxjF9rY4kHlMMxZQlaRqvlwDFSLl4RSTlEggMw7x/7NYcUhnQ7cx2Nt/PXw/DM86vtZ6G3+zZez8RERHTpk1TKl5NFEoo4+jRo4sXLz5//rzhBlqS1NRUPz8/V1dXLy+v9evXc4tgAE+UVatW3b59+xGeyBFKPAKNRhMbG7tgwYL58+fHxcWFhYW1a9fu8uXLu3fvzsjI2Lhx46RJk5TO+CcKJZTRrVu3NWvWNG7cuFGjRra2tra2tjY2NjqdrqqqSqvVlpeX3717t02bNkrHhAo5OjpKf9qbNm2qdBZYnpCQkODgYI1Go9Fo7OzsrK2traysrK2tpYEQorq6urq6Wq/XV1dX63S6ysrKioqKioqKDh06KJ0dFsna2nrp0qWTJ0+OioqKj4+/fv26u7v70KFDv//+eycnJ6XT/Q+FEspo1apVq1atlE6Bhui999577733lE4BS9WrVy+lI6AhcnNzW7FihdIpjOEqbwAAAMhCoQQAAIAsFEoAAADIQqEEAACALBRKAAAAyEKhBAAAgCwUSgAAAMhCoQQAAIAsFEoAAADIQqEEAACALBRKAAAAyEKhBAAAgCwUSgAAAMhia/6XnB0XbP4XhfqlKh0Aqscag6mxxmCxOEIJAAAAWSiUAAAAkIVCCQAAAFkUOIdydWiC+V8UqnTuYr5h7OXpomASqBVrDKbGGoMpmP96FY5QAgAAQBYKJQAAAGShUAIAAEAWCiUAAABkoVACAABAFgolAAAAZKFQAgAAQBYKJQAAAGShUAIAAEAWCiUAAABkoVACAABAFgolAAAAZKFQAgAAQBYKJQAAAGShUAIAAEAWCiUAAABkoVACAABAFgolnhTHjh3buHHjjRs3lA6ChqK8vDwmJmbx4sVKB4F68D4G0yksLPzpp5927979yy+/VFRUKB3nXrZKBwCEEGLLli1Tpkypqqrq2rVr27ZtlY4DlRg5cuTZs2fvf1yv19+9e7eoqEir1U6dOtX8waBKvI/BRHJzcz/66KMvv/zSzs7O2dn52rVrzZs3nzNnzowZM5566iml0/2JQgnlLVy48KOPPlI6BVQoMzPz8uXLxue4urqaJwzUjfcxmMiRI0dGjx7t5+d3/Phxf39/IYROp/vuu+/ef//92NjYffv2PSGfXvjKG0rSarUTJkzgXRgmUlRUVOccCiVk4n0MppOYmDh48OB+/fp9//33UpsUQtjY2IwaNSo5Obm4uLh37975+fnKhpRwhBKKuXnz5tixY48cOdK9e/f09HSl40CFioqKli5d2r9/f1tbW2tra2vrB3yE9vDwMH8wqAbvYzCdK1euvPbaaxqNJjo62tb23sLWunXrdevWDRkyZOzYsQcPHrSxsVEkpAGFEso4cODAG2+8UVpaGhUVNXLkyA4dOiidCGqj1WrLysoGDBjQq1cvpbNAnXgfg0nNnDmzoKBgxowZzs7OD5wQHBzco0ePw4cPb968efLkyWaOdw++8oa5abXauXPnDhkyxMfHJz09ffr06Q88bgTIJH3f3bJlS6WDQIV4H4Op5eTk7NmzRwgREhJiZNrw4cOFEGvXrtXr9WZKVgv+B4C5JSYmxsTEbN26NSEhgQ/0MB2pULZo0ULpIFAh3sdgahs2bKiurrazs3v55ZeNTAsKChJCXLhwITEx0VzRHoyvvGFuQ4cOzc7ObtasmdJBoHJFRUU2NjaOjo5KB4EK8T4GkyorK9uyZYsQolOnTvb29kZmPvfcc9IgKipq0KBB5ghXC45QQgG8C8MMioqKWrRoYWVlpXQQqBPvYzCdHTt23LlzRwjRrVs34zOdnZ1btWolhNi/f//FixfNEa4WFEoA6lRUVMQJlAAsUVxcnDRo3759nZPd3NyEEHq93vAsRVAoAaiTdIRSGut0uqtXr+bl5SkbCQDqIzs7WxrUdn13TYY5WVlZJsxUFwolAHWSLsr59NNPfX19NRpN+/bt27Zt26ZNmyFDhsyfP59yCeDJpNfrc3NzpfFDFUpDDVUEhRKAOhUWFh4/fjwiIuLs2bM6nU568ObNmwkJCUuXLvXy8vr666+VTQgA98vLyysvL5fGTZo0qXO+YQ6FEgAev3v2Xbxnn4nbt2+/9tprr7zyiqFrAsCToGYvNH6J9z1zcnNzq6urTRWrLhRKAOokFcpJkyYlJSVJn/jT0tK++OKLwMBAw5xvv/127dq1ymUEgHs9cqGsrKy8du2aqWLVhUIJQJ0GDBiQkJCwadOmfv36tW7d2sbGpnv37hMnTjx06NDy5cvt7OykaYsWLTKcrgQAirt9+7ZhXJ8dumt+/VJYWGiSTPVAoQSgTq+++urgwYPvf9zKyioiIuKbb76RfiwtLZ01a5Z5owFAraTbAEkqKirqnF9ZWfnA55oZhRJAQxQaGvr3v/9dGh88eFDBE48AoCZ3d3fD+KEKpZOTk4J7g1EoATRQ69atk74qKisrU3aHCQAwqFkoDZd7G2Eonc8884yJItUHhRJAA+Xq6mrY1iwtLU3ZMAAgadq0qbSbohDi1q1bdc6XNmkUf22i5kehBNBweXt7S4Nz584pmwQADDp27CgNbty4UedkQ+mkUAKAMrp06SINGjdurGwSADDw8fGRBlevXq1zcn5+vjTw9/c3Yaa6UCgBNFxXrlyRBk8//bSySQDAYOrUqdKgzrNxdDqddN9KFxeX0NBQkyerHYUSQMMlvVlbW1v369dP6SwA8Cdvb+/+/fsLITIzM8vKyozMvHTpknRRTnh4eH3ugm46FEoADVRFRYVUKPv168cRSgBPFOn+uDqdLjk52ci0lJQUIYSNjc3kyZPNlKwWFEoADdSqVauKi4ubNGkSFRWldBYA+IuQkBDp0pzY2Fgj0xISEoQQI0eOdHV1NVOyWlAoAahNYWFhXFzcb7/9ZmROXl7e0qVLhRCbN2/u3r27uaIBQL1YW1svWbJECLFz587abh5UVFS0d+9ee3v7BQsWmDfdA1Aoobya95TOyspSMAlUoKqqys/Pb/To0d26dfvggw+0Wu39c/Ly8kaNGvXHH3/MnDlz7Nix5g8J9eF9DI/d+PHjJ02aVFJSsnDhwgdOWL58eVFR0cqVK319fc2c7X4USijszJkz8+bNM/y4Zs2a06dPK5gHlq6ioqKkpEQIUVVVtWTJkl69ev388881JyQnJ/v7+1+4cGHNmjUrV65UKCZUhfcxmEhUVFRoaOimTZs+/fTTe34VHR29bNmyiIiIadOmKZLtHrZKB0ADdfTo0cWLF58/f95wAy1Jamqqn5+fq6url5fX+vXrPT09lUoIC9WkSZO4uLipU6dKF9z88ssvL7zwQvv27QcOHFhWVpaUlJSfn//2229//PHHhr0ogEfD+xhMTaPRxMbGLliwYP78+XFxcWFhYe3atbt8+fLu3bszMjI2btw4adIkpTP+iUIJZXTr1m3NmjWNGzdu1KiRra2tra2tjY2NTqerqqrSarXl5eV3795t06aN0jFhkfr06XP27Nljx44dPHjw9OnTeXl5f/zxR0FBQY8ePUJDQ3v16qXsjrdQDd7HYAbW1tZLly6dPHlyVFRUfHz89evX3d3dhw4d+v333zs5OSmd7n8olFBGq1atOD4E07G2tu7bt2/fvn2VDgI1430MZuPm5rZixQqlUxjDOZQAAACQhUIJAAAAWSiUAAAAkIVCCQAAAFkolAAAAJCFQgkAAABZKJQAAACQhUIJAAAAWSiUAAAAkIVCCQAAAFkolAAAAJCFQgkAAABZKJQAAACQxdb8Lzk7Ltj8Lwr1S1U6AFSPNQZTY43BYnGEEgAAALJQKAEAACALhRIAAACyKHAO5erQBPO/KFTp3MV8w9jL00XBJFAr1hhMjTUGUzD/9SocoQQAAIAsFEoAAADIQqEEAACALBRKAAAAyEKhBAAAgCwUSgAAAMhCoQQAAIAsFEoAAADIQqEEAACALBRKAAAAyEKhBAAAgCwUSgAAAMhCoQQAAIAsFEoAAADIQqEEAACALBRKAAAAyEKhBAAAgCy2SgcA/nTs2LG0tLSRI0e2bdtW6SxoKFJTU4uKivr27at0EFg8rVabmZn522+/ubm5eXl5aTQapRNBbQoLCzMyMvLy8jp27NilS5cnbY1xhBJPhC1btvTv33/KlCmZmZlKZ4H65eXlffjhh15eXj179kxKSlI6Dizbvn37fH19mzRp0r1791GjRvn5+Tk4OPTo0eOrr75SOhpUIjc3Nzw83MXFZcCAAbNnz/b393d1dV22bFlZWZnS0f6HQgnlLVy4MDw8vKqqSukgUL/CwsLIyEgPD49FixY5OzufOnVq4cKFSoeCpcrLyxszZkxISMjZs2e1Wq3h8aqqqrS0tHHjxgUHB2dnZyuYECpw5MgRX1/fnJyc48ePl5aW5uTklJeXR0dHx8TE9O3b98aNG0oH/BNfeUNJWq32rbfe2r59u9JB0CBER0e///77hYWFbm5uK1aseOWVV5ROBAtWXl4+aNCgtLQ0BweHcePGeXt7e3h4ZGdnnzlzZtu2bXfv3hVCHDhwICAg4OzZs82bN1c6LyxSYmLisGHDhg0bFhsba2v7Z2ezsbEZNWrUSy+91KdPn969e//8888uLi7K5hQcoYSCbt68OXjw4O3bt3fv3l3pLFC54uLif/zjH++8805hYeHs2bMvXLhAm4RMc+bMSUtLCwsLy8jI2Lhx45QpUwYNGvTOO+9s3Ljxl19++dvf/iZNy83Nfeedd5SNCgt15cqV1157TaPRREdHG9qkQevWrdetW5ebmzt27FidTqdIwpoolFDGgQMHvL29U1JSoqKi4uPjlY4DNbt06VLPnj137twphJg2bdqqVasaN26sdChYtv3792/YsGHs2LGxsbGurq73/PbZZ5/dt29fmzZtpB937tz53XffmT0jLN7MmTMLCgomTpzo7Oz8wAnBwcE9evQ4fPjw5s2bzZztfhRKmJtWq507d+6QIUN8fHzS09OnT59ubc06hKlkZ2cHBARcunRJCPHqq6+uXbtW6URQg88//9zHx+eLL76obULz5s1Xr15t+DExMdEsuaAeOTk5e/bsEUKEhIQYmTZ8+HAhxNq1a/V6vZmS1YI/5DC3xMTEmJiYrVu3JiQkdOjQQek4ULOrV68GBgZeuXJFCDFo0KAvv/ySTy+Qr6SkJDExcdGiRcYPdQ8ZMsQwPnHihOlzQVU2bNhQXV1tZ2f38ssvG5kWFBQkhLhw4YLiH1p4b4W5DR06NDs7e8KECUoHgcpVV1ePHTs2JydHCPH888/v2rXL3t5e6VBQg/j4+GbNmklHhoxwdHQ03FU3PT3d9LmgHmVlZVu2bBFCdOrUyfgb13PPPScNoqKizJGsdhRKKKBZs2ZKR4D6LV++/McffxRCWFlZbd261cHBQelEUInOnTtv2bLFzs6uzpmtWrWSBvefZwkYsWPHjjt37gghunXrZnyms7OztMz2799/8eJFc4SrBYUSgAqdP39+8eLF0vjvf/97165dlc0DNfH19R0xYkSd0/R6veEPPCsQDyUuLk4atG/fvs7Jbm5uQgi9Xm94liIolABUaOnSpYYbTUdGRiobBg1Tbm6udDdKIYThLkJAfRjuh1/b9d01GeZkZWWZMFNdKJQA1CY7O/ubb76RxgMGDOjVq5eyedAw7dq1Sxo4Ozu/++67yoaBBdHr9bm5udL4oQqlstsysVMOALWJiooy3Oa35uHJa9eu/fzzz6Wlpf7+/p07d7ayslIoINSvqqrKcI+qyMhITuFF/eXl5ZWXl0vjJk2a1DnfMIdCCQCP0759+6RBjx49AgMDpXFAQMDt27eFEGlpaXq9vlmzZtOmTfvnP/9pY2OjWFCo1zfffCPdryogIGD69OlKx4ElqdkL63NvCsOc3Nzc6upqpW6OxlfeAFQlOzvbcCWEoU0KIQ4fPvzLL7/88ssv+fn5r7zySnFx8dKlSwMDA2/cuKFQUqhWfn7+nDlzhBAeHh7ffvvt/ZvmAUY8cqGsrKy8du2aqWLVhUIJQFUOHTpkGNe8EsLwBXerVq2+/vpraS/vo0eP/uMf/zBzQqjexIkT8/PznZyc9u7d26JFC6XjwMJI36VI6vMVSs1PLIWFhSbJVA8USgCqIt3JXPL8888/cI6Njc2nn34qvVMnJyfv3r3bPNnQEHz22Wfx8fEtWrQ4dOgQdwvCI5BuAySpqKioc35lZeUDn2tmFEoAqnLz5k3D2LBPyf06dOhg2Onk/fffV3wbXKhDfHz8rFmzpDbZs2dPpePAIrm7uxvGD1UonZycHB0dTRWrLhRKAKqSn58vDZo2bWp8L5Nhw4ZJg99++03BE4+gGj/99NOYMWOaN29++PBhX19fpePAUtUslIbLvY0wlM5nnnnGRJHqg0IJQFUMJdLJycn4zKefftow/vXXX02YCQ3A+fPnhw8f7ujomJSU5O3trXQcWLCmTZsaNu28detWnfOlTRrFX5uo+VEoAaiKh4eHNCgqKjI+k0KJxyUrK2vgwIEODg5Hjx718vJSOg4sXseOHaVBfW5DYSidFEoAeGxqFso//vjDyMxmzZoZxvU5DAA80JUrVwIDA+3s7JKSkjw9PZWOAzXw8fGRBlevXq1zsuE8H39/fxNmqguFEoCqGAqlqOu9uGaJ7NKliwkzQb3y8vKCgoKEEElJScoeH4KaTJ06VRqkpaUZn6nT6aT7Vrq4uISGhpo8We0olABUpeYhoszMTCMzDR/rhRDdu3c3YSaoVEFBQVBQUGlpaVJSUp3XQ5w6dao+F1gAQghvb+/+/fsLITIzM8vKyozMvHTpknRRTnh4eH3ugm46FEoAqvLMM8/07t1bGu/cudPITMMNhuzs7Dp16mTyZFCXkpKSwYMHZ2dn79mzp842mZaW5u/vX1xcbJZoUINZs2YJIXQ6XXJyspFpKSkpQggbG5vJkyebKVktKJQA1OaDDz6QBv/9739LS0trm3bs2DFpMHr0aOM3GALuodVqR48efebMma1bt9bnxLW1a9dqNBpnZ2czZIM6hISESJfmxMbGGpmWkJAghBg5cqSrq6uZktWCQglAbQYNGiQdpCwtLa3tIGVZWZn0Nt20adOVK1eaNR8s3+TJkxMTExcvXjxmzJg6J3/11VcxMTFPP/20Yf9PoE7W1tZLliwRQuzcubO2qwaLior27t1rb2+/YMEC86Z7AHash/IuXrxoGGdlZfXr10/BMFCHpUuXDho0SKvVzp49+6WXXurcufM9E7Zv3y5dA75kyZJ27dopkRGWaufOnTExMfb29umaoHIBAAAgAElEQVTp6cYLZWlpaU5Ozvnz54UQih9AgsUZP358cnJydHT0woULN27ceP+E5cuXFxUVrVu37km4kT6FEgo7c+bMvHnzDD+uWbPG29ubLcsgU//+/RMTE8PCwgoKCv7+97+fOHGi5o5ku3fvnjFjhrW19XvvvTdjxgwFc8LiFBYWTpkyRQhRWVn57bff1v+J7du3N1koqFZUVFRBQcGmTZs8PDzmzp1b81fR0dHLli2LiIiYNm2aUvFqolBCGUePHl28ePH58+drXmkrhEhNTfXz83N1dfXy8lq/fj03dcMj69ev388//zxixIj09PTu3bvPmTOne/fuv/7667Fjx2JjY59++ult27a9/PLLSseEhVm1atXt27cf4YkcocQj0Gg0sbGxCxYsmD9/flxcXFhYWLt27S5fvrx79+6MjIyNGzdOmjRJ6Yx/olBCGd26dVuzZk3jxo0bNWpka2tra2trY2Oj0+mqqqq0Wm15efndu3fbtGmjdExYNnd39//3//7fvn374uLivvnmmzt37nTt2rVnz567d+/u169f06ZNlQ4IyxMSEhIcHKzRaDQajZ2dnbW1tZWVlbW1tTQQQlRXV1dXV+v1+urqap1OV1lZWVFRUVFR0aFDB6WzwyJZW1svXbp08uTJUVFR8fHx169fd3d3Hzp06Pfff1/nBrPmRKGEMlq1amXYqxQwHY1GM3r06NGjRysdBCrRq1cvpSOgIXJzc1uxYoXSKYzhKm8AAADIQqEEAACALBRKAAAAyEKhBAAAgCwUSgAAAMhCoQQAAIAsFEoAAADIQqEEAACALBRKAAAAyEKhBAAAgCwUSgAAAMhCoQQAAIAsFEoAAADIYmv+l5wdF2z+F4X6pSodAKrHGoOpscZgsThCCQAAAFkolAAAAJCFQgkAAABZFDiHcnVogvlfFKp07mK+Yezl6aJgEqgVawymxhqDKZj/ehWOUAIAAEAWCiUAAABkoVACAABAFgolAAAAZKFQAgAAQBYKJQAAAGShUAIAAEAWCiUAAABkoVACAABAFgolAAAAZKFQAgAAQBYKJQAAAGShUAIAAEAWCiUAAABkoVACAABAFgolAAAAZKFQAgAAQBZbpQMAfzp27FhaWtrIkSPbtm2rdBYAeDharTYrKyszM9PBwaFr165t2rRROhHUprCwMCMjIy8vr2PHjl26dNFoNEon+gsKJZ4IW7ZsmTJlSlVVVdeuXSmUkOPVV1/96aefHvZZffr02bFjhynyQPVu3bq1ZMmSzZs3V1ZWGh50d3dfsmTJuHHjrK35JhBy5ebmfvTRR19++aWdnZ2zs/O1a9eaN28+Z86cGTNmPPXUU0qn+xOFEspbuHDhRx99pHQKqMSNGzcuX778sM/y8fExRRio3g8//BAaGlpcXHzP49nZ2RMmTNi+fXt8fLydnZ0i2aAOR44cGT16tJ+f3/Hjx/39/YUQOp3uu+++e//992NjY/ft2/eEHIXhkxOUpNVqJ0yYQJvEY1RdXf2wT2nZsuWUKVNMEQbqlpqaKrXJoUOHrl+//sCBA9u2bZs2bZrhu8jExMSpU6cqGxIWLTExcfDgwf369fv++++lNimEsLGxGTVqVHJycnFxce/evfPz85UNKeEIJRRz8+bNsWPHHjlypHv37unp6UrHgUpUV1e3b99+6dKlLVu2rHPyd999t3HjxkmTJjk4OJghG9SkrKxs+PDhzZs3P3jw4AsvvGB4/PXXX581a1ZAQMCVK1eEEFu3bl25cmWzZs2USwpLdeXKlddee02j0URHR9va3lvYWrduvW7duiFDhowdO/bgwYM2NjaKhDSgUEIZBw4ceOONN0pLS6OiokaOHNmhQwelE0Elqqurx44dO378+PpMXrp0qbW19TvvvGPqVFCf9evX29vbHz582M3N7Z5feXh4fPnll4GBgUKIqqqqEydODBo0SImMsGwzZ84sKCiYMWOGs7PzAycEBwf36NHj8OHDmzdvnjx5spnj3YOvvGFuWq127ty5Q4YM8fHxSU9Pnz59Oiet4zFycHB4/vnn6zPzwoULP/7447Bhw/g8g4dVXFz8r3/9KyYm5v42KQkICDAcI2/Xrp0Zo0ElcnJy9uzZI4QICQkxMm348OFCiLVr1+r1ejMlqwV/yGFuiYmJMTExW7duTUhI4A85HrvExMTRo0fXZ+aWLVuEEJMmTTJxIqhQaWlpRETEyy+/bGSOh4eHEKJ169adO3c2Vy6ox4YNG6qrq+3s7Iwvs6CgICHEhQsXEhMTzRXtwfjKG+Y2dOjQ7OxsziiCsiorK7dt29a2bdshQ4YonQWWp23bthEREUYm6HS6jIwMIcSHH37IVd54WGVlZdIn3k6dOtnb2xuZ+dxzz0mDqKgoZc+s4AglFECbhOL27Nlz69atCRMmKH4mO1Rp48aNJSUlo0aNeuutt5TOAsuzY8eOO3fuCCG6detmfKazs3OrVq2EEPv377948aI5wtWCQgmgIdq8ebMQ4s0331Q6CFQoMzMzMjJy4MCBX3/9NeeI4xHExcVJg/bt29c5WTqRV6/XG56lCBY6gAYnJyfn0KFDL730Eie34bHLzs4OCgoKCwvbu3fvk7Y5HixFdna2NKjt+u6aDHOysrJMmKkuFEoADc6///1vvV4/YcIEpYNAbVJTUwMCAsaPHx8TE0ObxKPR6/W5ubnS+KEKpaGGKoJCCaDB2b59u0ajGTNmjNJBoCqxsbEvvfRSbm7usmXLmjVr5ufnFxkZeffuXaVzwcLk5eWVl5dL4yZNmtQ53zCHQgkA5nPs2LHs7Ozhw4c7OTkpnQUqodPpIiMjx4wZU1paKj1SUlJy+vTpZcuW+fr6njhxQtl4sCw1e6HxS7zvmZObm/sIe88+LhRKAA3L//2//1cI8frrrysdBCpRXl4+YsSITZs2ffDBB4mJicnJyZ988onh9Nxff/01MDDQ8A0mUKdHLpSVlZXXrl0zVay6UCgBNCCVlZU7d+5s2bLl0KFDlc4CldBoNNK+X4sXLx4wYECfPn3mzZt38uRJaetFIcTdu3fnzJmjbEhYkNu3bxvG9bmvWc1tvgsLC02SqR4olAAakP3799++ffuVV17hXtN4XKysrD7++ON79ld0dHSMj483PLhr167jx48rkQ6Wp+Z+nhUVFXXOr6ysfOBzzYxCCaAB2b59uxBi7NixSgeB+jVq1GjevHmGH48dO6ZgGFgQd3d3w/ihCqWTk5Ojo6OpYtWFQgmgoSgqKoqPj3d1de3bt6/SWdAghIeHG76OlHZiBOpUs1AaLvc2wlA6n3nmGRNFqg8KJYCGYt++fRUVFf/4xz+srKyUzoIGoVGjRoa/8RRK1FPTpk2l3RSFELdu3apzvrRJo/hrEzU/CiWAhkLal4zvu2FOnTp1kgactov669ixozS4ceNGnZMNpZNCCQAmd/fu3YSEBA8PDz8/P6WzoAExfOXdtm1bZZPAgvj4+EiDq1ev1jk5Pz9fGvj7+5swU10olAAahISEhLKysldeeUXpIGhYzp07Jw34JIP6mzp1qjRIS0szPlOn00n3rXRxcQkNDTV5stpRKAE0CLt37xZCUChhTmVlZYabVI8ePVrZMLAg3t7e/fv3F0JkZmaWlZUZmXnp0iXpopzw8PD63AXddCiUANSvqqpq7969HTt27Nmzp9JZ0ID8+OOP0lZ4oaGhHh4eSseBJZk1a5YQQqfTJScnG5mWkpIihLCxsZk8ebKZktWCQglA/U6ePFlYWKjs90FoaPR6/YIFC4QQ7dq1i46OVjoOLExISIh0aU5sbKyRaQkJCUKIkSNHurq6milZLSiUANTv0KFDQoiQkBClg0Alfv/995rbkzxQbGxsSkqKlZXVtm3bWrZsaZ5gUA1ra+slS5YIIXbu3FnbzYOKior27t1rb28vfXRRFoUSyrt48aJhnJWVpWASqNWhQ4datGjxt7/9TekgUINVq1a1atXKzc1t8+bNer3+gXNSUlJmzJghhFi0aFFQUJB5A0Ilxo8fP2nSpJKSkoULFz5wwvLly4uKilauXOnr62vmbPejUEJhZ86cqbk72Zo1a06fPq1gHqjPH3/8cfLkyYEDB9rY2CidBWogfQa+efPmpEmT+vTpc/78+XsmxMbG9uvXz9HR8fDhwx988IECEaEWUVFRoaGhmzZt+vTTT+/5VXR09LJlyyIiIqZNm6ZItnvYKh0ADdTRo0cXL158/vx5ww20JKmpqX5+fq6url5eXuvXr/f09FQqIVTj6NGjWq2W7RbxuCxcuDAzM/OHH34QQhw/ftzX1zcsLCwwMNDZ2fno0aNHjhw5d+5cRETE/PnzNRqN0mFh2TQaTWxs7IIFC+bPnx8XFxcWFtauXbvLly/v3r07IyNj48aNkyZNUjrjn6xqO1wv3+y44Ac+vjo0wUSvCAtSUFBw7dq1xo0bN2rUyNbW1tbW1sbGRqfTVVVVabXa8vLyu3fvenp6Ojg4GPlHzl38Xxn18nQxfWpYpJKSkjt37ri4uDRq1Ohhn8sawwPp9fqTJ0/u37//1KlTv//++507d6ysrFq3bt2hQ4eBAwcGBwc7OzvX859ijaE+Ll++HBUVdfr06evXr7u7u/fu3Xv69OlOTk61zTd/B+MIJZTRqlUrw16lgEk1bdq0adOmSqeAqlhZWb344osvvvii0kHQULi5ua1YsULpFMZwDiUAAABkoVACAABAFgolAAAAZKFQAgAAQBYKJQAAAGShUAIAAEAWCiUAAABkoVACAABAFgolAAAAZKFQAgAAQBYKJQAAAGShUAIAAEAWCiUAAABksTX/S86OCzb/i0L9UpUOANVjjcHUWGOwWByhBAAAgCwUSgAAAMhCoQQAAIAsCpxDuTo0wfwvClU6dzHfMPbydFEwCdSKNQZTY43BFMx/vQpHKAEAACALhRIAAACyUCgBAAAgC4USAAAAslAoAQAAIAuFEgAAALJQKAEAACALhRIAAACyUCgBAAAgC4USAAAAslAoAQAAIAuFEgAAALJQKAEAACALhRIAAACyUCgBAAAgC4USAAAAslAoAQAAIIut0gGAPx07diwtLW3kyJFt27ZVOgtU6MaNG2fOnHFwcOjWrVurVq2UjgO10Wq1WVlZmZmZDg4OXbt2bdOmjdKJoDaFhYUZGRl5eXkdO3bs0qWLRqNROtFfcIQST4QtW7b0799/ypQpmZmZSmeBquTl5U2YMKFdu3bt2rV7++23Bw0a5Ozs7OLi8t577xUWFiqdDmpw69atadOmOTg4dOnSZcSIEYGBgW3btu3YseP27durq6uVTgc1yM3NDQ8Pd3FxGTBgwOzZs/39/V1dXZctW1ZWVqZ0tP+hUEJ5CxcuDA8Pr6qqUjoI1ObLL7/s1q3bwYMHV61alZ+ff/369ZKSklOnTgUGBq5cufLZZ5/dsWOH0hlh2X744QdPT8/PPvussrKy5uPZ2dkTJkwIDg7WarVKZYM6HDlyxNfXNycn5/jx46WlpTk5OeXl5dHR0TExMX379r1x44bSAf9EoYSStFrthAkTPvroI6WDQIVWr179f/7P/2nfvn16evqrr77q7OwshLCzs+vZs+c333yzbt26goKCN9544/Dhw0onhaVKTU0NDQ0tLi4eOnTo+vXrDxw4sG3btmnTphm+i0xMTJw6daqyIWHREhMTBw8e3K9fv++//97f31960MbGZtSoUcnJycXFxb17987Pz1c2pIRCCcXcvHlz8ODB27dv7969u9JZoDa//PJLZGSktbX15s2bH3jG5LRp0wYNGqTT6V599dW8vDzzJ4SlKysrGz58ePPmzU+cOBEfH//uu+8OGjTo9ddfX7du3blz59q3by9N27p1a3FxsbJRYaGuXLny2muvaTSa6OhoW9t7L3pp3br1unXrcnNzx44dq9PpFElYE4USyjhw4IC3t3dKSkpUVFR8fLzScaA2EydOrKio6Nu37/PPP1/bnIULFwohbt26tXfvXjNGg0qsX7/e3t4+OTn5hRdeuOdXHh4eX375pTSuqqo6ceKE2dNBDWbOnFlQUDBx4kTpC5b7BQcH9+jR4/Dhw5s3bzZztvtRKGFuWq127ty5Q4YM8fHxSU9Pnz59urU16xCP061bt06fPi2E8Pb2NjKtZ8+e0to7duyYmZJBLYqLi//1r3/FxMS4ubk9cEJAQEDLli2lcbt27cwYDSqRk5OzZ88eIURISIiRacOHDxdCrF27Vq/XmylZLfhDDnNLTEyMiYnZunVrQkJChw4dlI4DFTp+/Lg0cHFxMTLtqaeeku7t8uuvv5ojFlSktLQ0IiLi5ZdfNjLHw8NDCNG6devOnTubKxfUY8OGDdXV1XZ2dsaXWVBQkBDiwoULiYmJ5or2YNyHEuY2dOjQ7OzsZs2aKR0EqnXp0iVpYLwp6vX6W7duCSH4YIOH1bZt24iICCMTdDpdRkaGEOLDDz+0s7MzVy6oRFlZ2ZYtW4QQnTp1sre3NzLzueeekwZRUVGDBg0yR7hacIQSCqBNwqQ6duwoDfbs2fP777/XNi07O1u6pUuXLl3MlAwNxsaNG0tKSkaNGvXWW28pnQWWZ8eOHXfu3BFCdOvWzfhMZ2dn6brD/fv3X7x40RzhakGhBKA2ho/sxcXF//znP2ub9u9//1sI8dRTT7399ttmSoaGITMzMzIycuDAgV9//TXniOMRxMXFSQPD7QKMkE7k1ev1hmcpgoUOQG08PDwMp7FHRUXNmzfv/tPVb9y4sWnTJiHEggULXF1dzR0R6pWdnR0UFBQWFrZ3794nbXM8WIrs7GxpUNv13TUZ5mRlZZkwU10olABU6KOPPjKcuLZ8+fJXX33V8AYthCgvLw8NDb1169Y///nPyMhIhTJChVJTUwMCAsaPHx8TE0ObxKPR6/W5ubnS+KEKZc13OfOjUAJQoR49evznP/8xdMqdO3d6enqOGjUqKSnp5MmTPXv2vHbt2q5du6RbUQKPRWxs7EsvvZSbm7ts2bJmzZr5+flFRkbevXtX6VywMHl5eeXl5dK4SZMmdc43zKFQAsDjN2rUqNjY2ObNm0s/VldX//e//w0ICHjxxRefffbZCxcuhIaGKpsQqqHT6SIjI8eMGVNaWio9UlJScvr06WXLlvn6+nJjczyUmr3Q+CXe98zJzc2trq42Vay6UCgBqNbIkSMvXLgwbty4ex7/7rvvxo0bx+0n8ViUl5ePGDFi06ZNH3zwQWJiYnJy8ieffGK49+Svv/4aGBho+AYTqNMjF8rKyspr166ZKlZdKJQA1Kxx48bdu3dv2rTps88+W/Px//73vz4+PqtWrVIqGFRDo9FI+34tXrx4wIABffr0mTdv3smTJwMDA6UJd+/enTNnjrIhYUFu375tGNvY2NQ5v+Y234WFhSbJVA8USgCqFRMT4+7uvmLFis8++ywzMzM9PX3ixImGSyXKy8vnzJkzd+5cZUPC0llZWX388cf37K/o6OgYHx9veHDXrl2GDZwA42ru51lRUVHn/MrKygc+18wolADUaerUqW+99ZatrW1KSsrrr78uhPDy8vriiy9ycnJGjBhhmLZixYr58+crFxOq1ahRo3nz5hl+ZMt41JO7u7th/FCF0snJydHR0VSx6kKhBKBCs2bN+vzzz62srPbs2VPz3VkI0aZNmz179qxZs8Zw4tHSpUt/+eUXJWJC5cLDww1fR0o7MQJ1qvmWZbjc2whD6XzmmWdMFKk+KJQA1ObkyZNr164VQgQGBr744osPnDNz5syPP/7Y8CMnU8IUGjVqZPgbT6FEPTVt2lTaTVEIcevWrTrnS5s0ir82UfOjUAJQG2kLHCHE+PHjjUybPXv2888/L4337dtn8lhokDp16iQNDHdFBerUsWNHaXDjxo06JxtKJ4USAB4nw8lqXbt2NTLNxsbmjTfekMa3b98uKyszeTI0PIavvNu2batsElgQHx8faXD16tU6J+fn50sDf39/E2aqC4USgNoYPq+3adPG+MyajVOr1ZowExqqc+fOSQM/Pz9lk8CCTJ06VRqkpaUZn6nT6aT7Vrq4uCi7WQOFEoDaODg4SIM6N1M23GLD09NTwasjoVZlZWWGm1SPHj1a2TCwIN7e3v379xdCZGZmGv/y5NKlS9JFOeHh4fW5C7rpUCgBqE2vXr2kQWZmpvGZOTk50sBwMiXwGP3444/SVnihoaEeHh5Kx4ElmTVrlhBCp9MlJycbmZaSkiKEsLGxmTx5spmS1YJCCUBtDIWyzutqDV9HGjY1AR4XvV6/YMECIUS7du2io6OVjgMLExISIl2aExsba2RaQkKCEGLkyJGurq5mSlYLCiUAtXnllVeaNGkihNiwYYNOp6ttWlVV1b///W8hRL9+/d58803z5YPl+/3332tuT/JAsbGxKSkpVlZW27Zta9mypXmCQTWsra2XLFkihNi5c2dtNw8qKirau3evvb299NFFWRRKKO/ixYuGcVZWloJJoA4eHh7r1q0TQqSmpkqDB1q5cuXZs2cdHR23bdtmbc2bIepr1apVrVq1cnNz27x5s16vf+CclJSUGTNmCCEWLVoUFBRk3oBQifHjx0+aNKmkpGThwoUPnLB8+fKioqKVK1f6+vqaOdv9eA+Fws6cOVNzd7I1a9acPn1awTxQhzfffPPtt98WQrz33nuLFi2qqqqq+duKiorIyMj58+c//fTTu3btUnD3W1gi6TPwzZs3J02a1KdPn/Pnz98zITY2tl+/fo6OjocPH/7ggw8UiAi1iIqKCg0N3bRp06effnrPr6Kjo5ctWxYRETFt2jRFst3DqrZPV/LNjgt+4OOrQxNM9IqwIEePHl28ePH58+cNN9CqydXV1cvLa/369Z6enkb+kXMX//dcL0+Xx58SFi4hIWHWrFm//vpr165dAwMDvb29q6qqUlNTDx06dOnSpSlTpnzyySfNmjUz8i+wxnC/GzduvP766z/88IP0o729fVhYWGBgoLOz89GjR48cOXLu3LmIiIj58+fXeZ8BwRpDXaqrqxcsWLBixQo/P7+wsLB27dpdvnx59+7dGRkZn3766aRJkx74LPN3MAollFFQUHDt2rXGjRs3atTI1tbW1tbWxsZGp9NVVVVptdry8vK7d+96enoa7v/yQLwRo05arXb37t3p6ekZGRkXLlxwdHT08fHx9fV96aWXjN/2XMIawwPp9fqTJ0/u37//1KlTv//++507d6ysrFq3bt2hQ4eBAwcGBwc7OzvX859ijaE+Ll++HBUVdfr06evXr7u7u/fu3Xv69OlOTk61zTd/B7M10b8LGNeqVSvDXqWA6djZ2Y0ZM2bMmDFKB4GqWFlZvfjii7XtFA88dm5ubitWrFA6hTGcQwkAAABZKJQAAACQhUIJAAAAWSiUAAAAkIVCCQAAAFkolAAAAJCFQgkAAABZKJQAAACQhUIJAAAAWSiUAAAAkIVCCQAAAFkolAAAAJCFQgkAAABZbM3/krPjgs3/olC/VKUDQPVYYzA11hgsFkcoAQAAIAuFEgAAALJQKAEAACCLAudQrg5NMP+LQpXOXcw3jL08XRRMArVijcHUWGMwBfNfr8IRSgAAAMhCoQQAAIAsFEoAAADIQqEEAACALBRKAAAAyEKhBAAAgCwUSgAAAMhCoQQAAIAsFEoAAADIQqEEAACALBRKAAAAyEKhBAAAgCwUSgAAAMhCoQQAAIAsFEoAAADIQqEEAACALBRKAAAAyGKrdABAaLXazMzM3377zc3NzcvLS6PRKJ0IasMag6kVFhZmZGTk5eV17NixS5curDE8dk/4GuMIJZS0b98+X1/fJk2adO/efdSoUX5+fg4ODj169Pjqq6+UjgaVYI3B1HJzc8PDw11cXAYMGDB79mx/f39XV9dly5aVlZUpHQ0qYRFrjEIJZeTl5Y0ZMyYkJOTs2bNardbweFVVVVpa2rhx44KDg7OzsxVMCEvHGoMZHDlyxNfXNycn5/jx46WlpTk5OeXl5dHR0TExMX379r1x44bSAWHxLGWNWen1ehP907Pjgh/4+OrQBBO9IixFeXn5888/n5aW5uDgMG7cOG9vbw8Pj+zs7DNnzmzbtu3u3bvStA4dOpw9e7Z58+a1/TvnLuYbxl6eLibPDcvBGoMZJCYmDhs2bNiwYbGxsba2fzmF7ObNm3369NFqtT///LOLi7GVwxqDEY+8xszfwTiHEgqYM2dOWlpaWFjY6tWrXV1d7/nVm2++eezYMSFEbm7uO++885///EehmLBgrDGY2pUrV1577TWNRhMdHX3PX3ohROvWrdetWzdkyJCxY8cePHjQxsZGkZCwaJa1xvjKG+a2f//+DRs2jB07NjY29p6/9EKIZ599dt++fW3atJF+3Llz53fffWf2jLBsrDGYwcyZMwsKCiZOnOjs7PzACcHBwT169Dh8+PDmzZvNnA3qYFlrjEIJc/v88899fHy++OKL2iY0b9589erVhh8TExPNkgvqwRqDqeXk5OzZs0cIERISYmTa8OHDhRBr16413dllUCuLW2MUSphVSUlJYmLiokWLGjdubGTakCFDDOMTJ06YPhfUgzUGM9iwYUN1dbWdnd3LL79sZFpQUJAQ4sKFC3xowcOyuDVGoYRZxcfHN2vWTPpEZYSjo2Pbtm2lcXp6uulzQT1YYzC1srKyLVu2CCE6depkb29vZOZzzz0nDaKiosyRDGphiWuMQgmz6ty585YtW+zs7Oqc2apVK2lw/zlwgBGsMZjajh077ty5I4To1q2b8ZnOzs7SMtu/f//FixfNEQ6qYIlrjEIJs/L19R0xYkSd0/R6veF/jK5du5o4FFSFNQZTi4uLkwbt27evc7Kbm5sQQq/XG54F1MkS1xiFEk+i3Nxcw50C//a3vykbBqrEGsMjM9wPv7Zrb2syzMnKyjJhJqiLJa4xCljG6skAACAASURBVCWeRLt27ZIGzs7O7777rrJhoEqsMTwavV6fm5srjR/qjz3bMqGeLHSNUSjxxKmqqlq7dq00joyMdHBwUDYP1Ic1hkeWl5dXXl4ujZs0aVLnfMMcCiXqyULXGIUST5xvvvnmypUrQoiAgIDp06crHQcqxBrDI6v5N9v45bf3zMnNza2urjZVLKiIha4xCiWeLPn5+XPmzBFCeHh4fPvtt/dvNgXIxBqDHI/8x76ysvLatWumigUVsdA1RqHEk2XixIn5+flOTk579+5t0aKF0nGgQqwxyHH79m3DuD67J9f8xFJYWGiSTFAXC11jFEo8QT777LP4+PgWLVocOnSIO7nAFFhjkEm6RYukoqKizvmVlZUPfC5QGwtdY3zXgydFfHz8rFmzpL/0vr6+SseBCrHGIJ+7u7th/FB/7J2cnBwdHU0VCypioWuMI5R4Ivz0009jxoxp3rz54cOH+UsPU2CN4bGo+cfecCmuEYZC8Mwzz5goElTGQtcYhRLKO3/+/PDhwx0dHZOSkry9vZWOAxVijeFxadq0qWHTzlu3btU5X9pAT/y1JQBGWOgao1BCYVlZWQMHDnRwcDh69KiXl5fScaBCrDE8Xh07dpQGN27cqHOyoRBQKFF/lrjGKJRQ0pUrVwIDA+3s7JKSkjw9PZWOAxVijeGx8/HxkQZXr16tc3J+fr408Pf3N2EmqIslrjEKJRSTl5cXFBQkhEhKSuKzO0yBNQZTmDp1qjRIS0szPlOn00n3FHRxcQkNDTV5MqiFJa4xCiWUUVBQEBQUVFpampSUVOd5xKdOnarPiclATawxmIi3t3f//v2FEJmZmWVlZUZmXrp0SbpgIjw8vD53qAYklrjGKJRQQElJyeDBg7Ozs/fs2VPnX/q0tDR/f//i4mKzRINKsMZgUrNmzRJC6HS65ORkI9NSUlKEEDY2NpMnTzZTMqiFxa0xCiXMTavVjh49+syZM1u3bq3PCR9r167VaDTOzs5myAZ1YI3B1EJCQqTLJmJjY41MS0hIEEKMHDnS1dXVTMmgFha3xiiUMLfJkycnJiYuXrx4zJgxdU7+6quvYmJinn76aSsrKzNkgzqwxmBq1tbWS5YsEULs3Lmzthu7FBUV7d27197efsGCBeZNBzWwuDXGTjkwq507d8bExNjb26enpxv/Y19aWpqTk3P+/HkhhOIfvGBBWGMwj/HjxycnJ0dHRy9cuHDjxo33T1i+fHlRUdG6deu4kT4ejWWtMQolzKewsHDKlClCiMrKym+//bb+T2zfvr3JQkFVWGMwp6ioqIKCgk2bNnl4eMydO7fmr6Kjo5ctWxYRETFt2jSl4kEFLGiNUShhPqtWrbp9+/YjPJGjR6gn1hjMSaPRxMbGLliwYP78+XFxcWFhYe3atbt8+fLu3bszMjI2btw4adIkpTPCslnQGqNQwnxCQkKCg4M1Go1Go7Gzs7O2traysrK2tpYGQojq6urq6mq9Xl9dXa3T6SorKysqKioqKjp06KB0dlgG1hjMzNraeunSpZMnT46KioqPj79+/bq7u/vQoUO///57JycnpdNBDSxljVEoYT69evVSOgJUjjUGRbi5ua1YsULpFFCzJ3+NcZU3AAAAZKFQAgAAQBYKJQAAAGShUAIAAEAWCiUAAABkoVACAABAFgolAAAAZKFQAgAAQBYKJQAAAGShUAIAAEAWCiUAAABkoVACAABAFgolAAAAZLE1/0vOjgs2/4tC/VKVDgDVY43B1FhjsFgcoQQAAIAsFEoAAADIQqEEAACALAqcQ7k6NMH8LwpVOncx3zD28nRRMAnUijUGU2ONwRTMf70KRygBAAAgC4USAAAAslAoAQAAIAuFEgAAALJQKAEAACALhRIAAACyUCgBAAAgC4USAAAAslAoAQAAIAuFEgAAALJQKAEAACALhRIAAACyUCgBAAAgC4USAAAAslAoAQAAIAuFEgAAALJQKAEAACCLrdIBAKHVajMzM3/77Tc3NzcvLy+NRqN0IqiNVqvNysrKzMx0cHDo2rVrmzZtlE4EdTp27FhaWtrIkSPbtm2rdBaoTWFhYUZGRl5eXseOHbt06fKk/a3kCCWUtG/fPl9f3yZNmnTv3n3UqFF+fn4ODg49evT46quvlI4Glbh169a0adMcHBy6dOkyYsSIwMDAtm3bduzYcfv27dXV1Uqng6ps2bKlf//+U6ZMyczMVDoLVCU3Nzc8PNzFxWXAgAGzZ8/29/d3dXVdtmxZWVmZ0tH+h0IJZeTl5Y0ZMyYkJOTs2bNardbweFVVVVpa2rhx44KDg7OzsxVMCBX44YcfPD09P/vss8rKypqPZ2dnT5gwITg4uObaA+RYuHBheHh4VVWV0kGgNkeOHPH19c3JyTl+/HhpaWlOTk55eXl0dHRMTEzfvn1v3LihdMA/8ZU3FFBeXj5o0KC0tDQHB4dx48Z5e3t7eHhkZ2efOXNm27Ztd+/eFUIcOHAgICDg7NmzzZs3VzovLFJqampoaGhxcfHQoUOHDh367LPP3rx58+eff968eXNFRYUQIjExcerUqZs3b1Y6KSybVqt96623tm/frnQQqFBiYuKwYcOGDRsWGxtra/tnZ7OxsRk1atRLL73Up0+f3r17//zzzy4uLsrmFBRKKGLOnDlpaWlhYWGrV692dXW951dvvvnmsWPHhBC5ubnvvPPOf/7zH4ViwoKVlZUNHz68efPmBw8efOGFFwyPv/7667NmzQoICLhy5YoQYuvWrStXrmzWrJlySWHZbt68OXbs2CNHjnTv3j09PV3pOFCVK1euvPbaaxqNJjo62tAmDVq3br1u3bohQ4aMHTv24MGDNjY2ioQ04CtvmNv+/fs3bNgwduzY2NjYe9qkEOLZZ5/dt2+f4ZqJnTt3fvfdd2bPCIu3fv16e3v75OTkmm1S4uHh8eWXX0rjqqqqEydOmD0dVOLAgQPe3t4pKSlRUVHx8fFKx4HazJw5s6CgYOLEic7Ozg+cEBwc3KNHj8OHDz8J37RQKGFun3/+uY+PzxdffFHbhObNm69evdrwY2JiollyQT2Ki4v/9a9/xcTEuLm5PXBCQEBAy5YtpXG7du3MGA0qodVq586dO2TIEB8fn/T09OnTp1tb8/cUj1NOTs6ePXuEECEhIUamDR8+XAixdu1avV5vpmS14H8AmFVJSUliYuKiRYsaN25sZNqQIUMMYw4g4WGVlpZGRES8/PLLRuZ4eHgIIVq3bt25c2dz5YJ6JCYmxsTEbN26NSEhoUOHDkrHgQpt2LChurrazs7O+FtZUFCQEOLChQuKH3yhUMKs4uPjmzVrJn2iMsLR0dFwFzdOS8LDatu2bUREhJEJOp0uIyNDCPHhhx/a2dmZKxfUY+jQodK9ApQOAnUqKyvbsmWLEKJTp0729vZGZj733HPSICoqyhzJakehhFl17tx5y5Yt9fkT3qpVK2lw/3mWgEwbN24sKSkZNWrUW2+9pXQWWCqu5YLp7Nix486dO0KIbt26GZ/p7Ows/bncv3//xYsXzRGuFhRKmJWvr++IESPqnKbX6w3/Y3Tt2tXEodCwZGZmRkZGDhw48Ouvv+a8NwBPoLi4OGnQvn37OidLJ4vr9XrDsxTBmymeRLm5udLdKIUQf/vb35QNAzXJzs4OCgoKCwvbu3fvk7ZxGQBIDPt61HZ9d02GOVlZWSbMVBcKJZ5Eu3btkgbOzs7vvvuusmGgGqmpqQEBAePHj4+JiaFNAngy6fX63NxcafxQhVLZ7eUolHjiVFVVrV27VhpHRkY6ODgomwfqEBsb+9JLL+Xm5i5btqxZs2Z+fn6RkZGGA+EA8ITIy8srLy+Xxk2aNKlzvmEOhRL4i2+++UbaxSQgIGD69OlKx4HF0+l0kZGRY8aMKS0tlR4pKSk5ffr0smXLfH19uS8VgCdKzV5o/BLve+bk5uZWV1ebKlZdKJR4suTn58+ZM0cI4eHh8e23396/2RTwUMrLy0eMGLFp06YPPvggMTExOTn5k08+Mdx78tdffw0MDDR8uwQAinvkQllZWXnt2jVTxaoLhRJPlokTJ+bn5zs5Oe3du7dFixZKx4HF02g00l4mixcvHjBgQJ8+febNm3fy5MnAwEBpwt27d6XPMADwJLh9+7ZhXJ8dumseeSksLDRJpnqgUOIJ8tlnn8XHx7do0eLQoUPcLQiPhZWV1ccff3zP/oqOjo7x8fGGB3ft2nX8+HEl0gHAvWruGVtRUVHn/MrKygc+18wolHhSxMfHz5o1S2qTPXv2VDoOVK5Ro0bz5s0z/Hjs2DEFwwCAgbu7u2H8UIXSycnJ0dHRVLHqQqHEE+Gnn34aM2ZM8+bNDx8+7Ovrq3QcNAjh4eGGr4qknRgBQHE1C6Xhcm8jDKXzmWeeMVGk+qBQQnnnz58fPny4o6NjUlKSt7e30nHQUDRq1Mjw/kuhBPCEaNq0qWHz4Vu3btU5X9qkUfy1iZofhRIKy8rKGjhwoIODw9GjR728vJSOg4alU6dO0qA++8sDgHl07NhRGty4caPOyYbSSaFEw3XlypXAwEA7O7ukpCRPT0+l46DBMXzl3bZtW2WTAICBj4+PNLh69Wqdk/Pz86WBv7+/CTPVhUIJxeTl5QUFBQkhkpKSlP1chQbr3Llz0sDPz0/ZJABgMHXqVGmQlpZmfKZOp5PuW+ni4hIaGmryZLWjUEIZBQUFQUFBpaWlSUlJdZ5HfOrUqfqcmAw8lLKyMsMNhEePHq1sGAAw8Pb27t+/vxAiMzOzrKzMyMxLly5JF+WEh4fX5y7opkOhhAJKSkoGDx6cnZ29Z8+eOttkWlqav79/cXGxWaKhAfnxxx+lbcpCQ0M9PDyUjgMA/zNr1iwhhE6nS05ONjItJSVFCGFjYzN58mQzJasFhRLmptVqR48efebMma1bt9bnhI+1a9dqNBpnZ2czZEPDodfrFyxYIIRo165ddHS00nEA4C9CQkKkS3NiY2ONTEtISBBCjBw50tXV1UzJakGhhLlNnjw5MTFx8eLFY8aMqXPyV199FRMT8/TTT1tZWZkhG9Th999/r7l1xAPFxsampKRYWVlt27atZcuW5gkGAPVkbW29ZMkSIcTOnTtru3lQUVHR3r177e3tpY/HyrKtewrw+OzcuTMmJsbe3j49Pd14oSwtLc3JyTl//rwQQvEPXrAgq1atmjNnTuvWrT/88MO33377gR9FUlJSZsyYIYRYtGiRdGUYINPFixcN46ysrH79+ikYBuowfvz45OTk6OjohQsXbty48f4Jy5cvLyoqWrdu3ZOwIQiFEuZTWFg4ZcoUIURlZeW3335b/ye2b9/eZKGgNtLf9Zs3b06aNGnr1q2bN2/u1q1bzQmxsbFvvPFG+/btv/7664CAAIViQlXOnDlTcyfPNWvWeHt7s4Us5IuKiiooKNi0aZOHh8fcuXNr/io6OnrZsmURERHTpk1TKl5NFEqYz6pVq27fvv0IT+QIJepv4cKFmZmZP/zwgxDi+PHjvr6+YWFhgYGBzs7OR48ePXLkyLlz5yIiIubPn6/RaJQOC8t29OjRxYsXnz9/3nAjQElqaqqfn5+rq6uXl9f69eu5yS4emUajiY2NXbBgwfz58+Pi4sLCwtq1a3f58uXdu3dnZGRs3Lhx0qRJSmf8k5VerzfRPz07LviBj68OTTDRK+IJl5KSotVqNRqNRqOxs7Oztra2srKytraWBkKI6urq6upqvV5fXV2t0+kqKysrKioqKio6dOjg5uZ2/z947uL/3sS9PF3M91+CJ5terz958uT+/ftPnTr1+++/37lzx8rKqnXr1h06dBg4cGBwcHD9r/FijcGIgoKCa9euNW7cuFGjRra2tra2tjY2NjqdrqqqSqvVlpeX371719PT08HBwcg/whpDfVy+fDkqKur06dPXr193d3fv3bv39OnTnZycaptv/g7GEUqYT69evZSOgAbBysrqxRdffPHFF5UOApVr1aqVYc9lwKTc3NxWrFihdApjuMobAAAAslAoAQAAIAuFEgAAALJQKAEAACALhRIAAACyUCgBAAAgC4USAAAAslAoAQAAIAuFEgAAALJQKAEAACALhRIAAACyUCgBAAAgC4USAAAAstia/yVnxwWb/0WhfqlKB4DqscZgaqwxWCyOUAIAAECW/8/evYdFVe79H785Oal4QAEPoSaYeUYUa1sanko0SUUzUR+7cicZefyZlJeauR/j0TRNLFM0dtmjucEw8xCJqVcklV4ZiqbhAUY0RyRkVEbO8/tj7WsetsKALmfdzOr9+ut2uHE+f3x1PrNm1loUSgAAAKhCoQQAAIAqEr5DuTo8WfsnhS6dOpdrW3ft4CsxCfSKGYOjMWNwBO3PV+EIJQAAAFShUAIAAEAVCiUAAABUoVACAABAFQolAAAAVKFQAgAAQBUKJQAAAFShUAIAAEAVCiUAAABUoVACAABAFQolAAAAVKFQAgAAQBUKJQAAAFShUAIAAEAVCiUAAABUoVACAABAFQolAAAAVHGXHQAQpaWlmZmZZ8+ebdu2bdeuXQ0Gg+xE0L+TJ0+eOnXqxRdflB0EunL48OGMjIyRI0e2atVKdhboTUFBwenTp00mk7+/f6dOneraayVHKCHT7t27g4KCGjZs2K1bt9GjR/fu3dvT07NHjx5bt26VHQ16lp+fHxoaGhkZKTsIdGXTpk0DBgx47bXXMjMzZWeBrhiNxqlTp/r6+g4ZMmTOnDnBwcF+fn7Lli2zWCyyo/0fCiXkMJlM48aNCwsLS09PLy0ttT1eVlaWkZExceLE0NDQrKwsiQmhY5GRkZcvX5adArqyaNGiqVOnlpWVyQ4CvTl48GBQUFB2dnZaWlphYWF2dnZRUVFcXFx8fHz//v2vXLkiO+C/8ZE3JCgqKnr22WczMjI8PT0nTpwYGBgYEBCQlZX166+/bt68+fbt20KIb7/9duDAgenp6U2bNpWdF7oSHx//5Zdfyk4B/SgtLf373//++eefyw4CHUpJSXnuueeee+65xMREd/d/dzY3N7fRo0c/+eST/fr169u375EjR3x9feXmFByhhBRz587NyMgYO3bs6dOn169f/9prrz377LOvvvrq+vXrjx8//tRTTynbjEbjq6++KjcqdObcuXOzZs2SnQL6cfXq1aFDh37++efdunWTnQV6k5OTM2HCBIPBEBcXZ2uTNi1atFi7dq3RaIyIiCgvL5eSsDIKJbS2d+/edevWRUREJCYm+vn53fHTRx99dPfu3S1btlT+mJCQ8PXXX2ueEfpUVlY2ceLEW7duyQ4Cnfj2228DAwOPHj0aGxu7Z88e2XGgN7NmzcrLy5syZYqPj0+VG0JDQ3v06HHgwIGNGzdqnO1uFEpo7eOPP+7Zs+cnn3xS3YamTZuuXr3a9seUlBRNckH/lixZkp6ePnz4cNlB4PRKS0vnzZs3bNiwnj17njx5csaMGa6uvJ7iQcrOzt65c6cQIiwszM62ESNGCCHWrFljtVo1SlYN/gFAUzdv3kxJSXn77bfr169vZ9uwYcNs659++snxuaB/P/zwQ0xMzNKlS3v16iU7C5xeSkpKfHz8p59+mpyc3K5dO9lxoEPr1q2rqKjw8PB4+umn7WwbPHiwEOLMmTPSD75QKKGpPXv2NG7cWHlHZUeTJk1sV3E7efKk43NB58xm86RJkwYOHPjGG2/IzgI9GD58eFZW1uTJk2UHgT5ZLJZNmzYJITp27FivXj07O7t3764sYmNjtUhWPQolNPXYY49t2rTJw8Ojxp3e3t7K4u7vWQL3Kioq6tatW5s3b3ZxcZGdBTrRuHFj2RGgW1u2bLl+/boQokuXLvZ3+vj4KC+Xe/fuPXfunBbhqkGhhKaCgoKef/75GrdZrVbbP4zOnTs7OBR0bsuWLVu3bt20aVPr1q1lZwGAmiUlJSmLNm3a1Li5bdu2Qgir1Wr7LSkolKiLjEajcjVKIYTtKkLAfTAaja+//vrLL788atQo2VkAoFZs9/Wo7vzuymx7Lly44MBMNaFQoi6yXXfax8fn9ddflxsGzquiomLSpEleXl5r1qyRnQUAasVqtRqNRmV9T4VS7u3luFMO6pyysjLby//8+fM9PT3l5oHzeu+999LS0g4ePNioUSPZWQCgVkwmU1FRkbJu2LBhjftte+QWSo5Qos7Ztm1bTk6OEGLgwIEzZsyQHQfO6sSJE4sXL541a5b9i24AQJ1SuRfaP8X7jj1Go7GiosJRsWpCoUTdkpubO3fuXCFEQEDA9u3b777ZFFAbJSUlkydP9vPzW7p0qewsAHAP7rtQlpSUXL582VGxasKrNeqWKVOm5Obmenl57dq1q1mzZrLjwFm98847x48f/+677xo0aCA7CwDcg/z8fNvazc2txv2Vj7wUFBTU5sRwR+AIJeqQjz76aM+ePc2aNdu/fz9XC8J9+/HHH997771XXnll0KBBsrMAwL1RLgOkKC4urnF/SUlJlb+rMY5Qoq7Ys2fP7NmzlTYZFBQkOw6clcVieemll1q0aLFy5UrZWQDgnrVv3962vqdC6eXl1aRJE0fFqgmFEnXCjz/+OG7cuKZNm+7fvz8wMFB2HDixefPmnT17dufOnRL/YwWA+1a5UNpO97bDVjofeeQRB0WqDQol5Pvtt99GjBjRpEmTlJSUrl27yo4DJ5aSkrJu3bqWLVueOHHixIkTVe5JTU1VFsXFxZVP2WncuPHMmTO1SAkA1WvUqJG3t3deXp4Q4tq1azXuV27SKP6ziWqPQgnJLly48Mwzz3h6en733XcdOnSQHQfObe3atUIIk8m0aNGiGjcXFxdX3ubn50ehBFAX+Pv7K4XyypUrNW62lU4KJf66cnJyBg0a5OHhcfDgQbn/EqAP7dq1q/ErEyaT6erVq0IIV1fX7t272x5v0aKFY8MBQO307NnzyJEjQohLly7VuDk3N1dZBAcHOzaWXRRKSGMymQYPHiyEOHTokNxvfkA3lCOU9i1atEj5pNvT0zM9Pd3xoQDg3kRFRcXFxQkhMjIy7O8sLy9Xrlvp6+sbHh6uRbhqcNkgyJGXlzd48ODCwsLatMlffvmlNl9MBgBABwIDAwcMGCCEyMzMtFgsdnaeP39eOSln6tSptbkKuuNQKCHBzZs3hw4dmpWVtXPnzhrbZEZGRnBw8I0bNzSJBgCAfLNnzxZClJeX284jrNLRo0eFEG5ubtOmTdMoWTUolNBaaWnpmDFjfv31108//bQ2X/hYs2aNwWDw8fHRIBsAAHVBWFiYv7+/ECIxMdHOtuTkZCHEyJEj/fz8NEpWDQoltDZt2rSUlJTFixePGzeuxs1bt26Nj49/+OGHXVxcNMgGAEBd4OrqumTJEiFEQkJCdRcPMpvNu3btqlev3sKFC7VNVwVOyoGmEhIS4uPj69Wrd/LkSfuFsrCwMDs7+7fffhNCSH/jBQD2nTt3zra+cOFCSEiIxDDQh0mTJqWmpsbFxS1atGj9+vV3b1i+fLnZbF67dm1duL0chRLaKSgoeO2114QQJSUl27dvr/0vyrrVPQDUxq+//vrWW2/Z/vjBBx8EBgb26tVLYiToQ2xsbF5e3oYNGwICAubNm1f5R3FxccuWLYuOjp4+fbqseJVRKKGdVatW5efn38cvcoQSQB30/fffL168+LfffrNdCFBx4sSJ3r17+/n5de3a9cMPP+SWDbhvBoMhMTFx4cKFCxYsSEpKGjt2bOvWrS9evLhjx47Tp0+vX78+MjJSdsZ/o1BCO2FhYaGhoQaDwWAweHh4uLq6uri4uLq6KgshREVFRUVFhdVqraioKC8vLykpKS4uLi4ubteunezs0I8mTZoob1EaNWokOwucW5cuXT744IP69es/9NBD7u7u7u7ubm5u5eXlZWVlpaWlRUVFt2/fbtmypeyYcG6urq4xMTHTpk2LjY3ds2fPH3/80b59++HDh3/zzTdeXl6y0/0fCiW006dPH9kRAPHGG2+88cYbslNAD7y9vb29vWWnwF9C27ZtV65cKTuFPZzlDQAAAFUolAAAAFCFQgkAAABVKJQAAABQhUIJAAAAVSiUAAAAUIVCCQAAAFUolAAAAFCFQgkAAABVKJQAAABQhUIJAAAAVSiUAAAAUIVCCQAAAFXctX/KOUmh2j8p9O+E7ADQPWYMjsaMwWlxhBIAAACqUCgBAACgCoUSAAAAqkj4DuXq8GTtnxS6dOpcrm3dtYOvxCTQK2YMjsaMwRG0P1+FI5QAAABQhUIJAAAAVSiUAAAAUIVCCQAAAFUolAAAAFCFQgkAAABVKJQAAABQhUIJAAAAVSiUAAAAUIVCCQAAAFUolAAAAFCFQgkAAABVKJQAAABQhUIJAAAAVSiUAAAAUIVCCQAAAFUolAAAAFDFXXYAQJSWll64cCEzM9PT07Nz584tW7aUnQh6w4zB0QoKCk6fPm0ymfz9/Tt16mQwGGQngt7U8RnjCCVkunbt2vTp0z09PTt16vT8888PGjSoVatW/v7+n3/+eUVFhex00ANmDI5mNBqnTp3q6+s7ZMiQOXPmBAcH+/n5LVu2zGKxyI4GnXCKGaNQQprvvvuuQ4cOH330UUlJSeXHs7KyJk+eHBoaWlpaKisb9IEZg6MdPHgwKCgoOzs7LS2tsLAwOzu7qKgoLi4uPj6+f//+V65ckR0QTs9ZZoxCCTlOnDgRHh5+48aN4cOHf/jhh99+++3mzZunT59uO4afkpISFRUlNyScGjMGR0tJSRk6dGhISMg333wTHBysPOjm5jZ69OjU1NQbN2707ds3NzdXbkg4NSeaMRer1eqgv3pOUmiVj68OT3bQM8JZWCyWTp06ubi4JCQkPPHEE5V/dP78+YEDB+bk5Agh3N3d//zzz8aNG1f395w693//irp28HVcYDgdZgyOlpOT06tX/LxwjgAAIABJREFUr6KiogsXLvj4+Ny9ITk5ediwYYMGDdq3b5+bm1t1fw8zhuqomTHtOxhHKCHBhx9+WK9evdTU1Dte6YUQAQEBn332mbIuKyv76aefNE8HPWDG4GizZs3Ky8ubMmVKla/0QojQ0NAePXocOHBg48aNGmeDPjjXjFEoobUbN26899578fHxbdu2rXLDwIEDmzdvrqxbt26tYTToBDMGR8vOzt65c6cQIiwszM62ESNGCCHWrFnjuA8DoVdON2MUSmitsLAwOjr66aeftrMnICBACNGiRYvHHntMq1zQD2YMjrZu3bqKigoPDw/7YzZ48GAhxJkzZ1JSUrSKBp1wuhmjUEJrrVq1io6OtrOhvLz89OnTQoj//u//9vDw0CoX9IMZg0NZLJZNmzYJITp27FivXj07O7t3764sYmNjtUgGvXDGGaNQos5Zv379zZs3R48e/fe//112FugTMwY1tmzZcv36dSFEly5d7O/08fHx9vYWQuzdu/fcuXNahIMuOOOMUShRt2RmZs6fP/+ZZ5754osvXF2ZTzx4zBhUSkpKUhZt2rSpcbPyRV6r1Wr7LaBGzjhj/GeKOiQrK2vw4MFjx47dtWtXXbupFPSBGYN6WVlZyqK6c28rs+25cOGCAzNBX5xxxiiUqCtOnDgxcODASZMmxcfH80oPR2DGoJ7VajUajcr6nl7sbRUBsM9JZ4xCiTohMTHxySefNBqNy5Yta9y4ce/evefPn3/79m3ZuaAfzBgeCJPJVFRUpKwbNmxY437bHgolaslJZ4xCCcnKy8vnz58/bty4wsJC5ZGbN28eO3Zs2bJlQUFBXHQa6jFjeIAqv2bbP/32jj1Go7GiosJRsaAjTjpjFErIVFRU9Pzzz2/YsOGdd95JSUlJTU39n//5H9t1AX///fdBgwbZjvwD94EZw4N13y/2JSUlly9fdlQs6IiTzhiFEjIZDIaePXuePHly8eLFQ4YM6dev31tvvfXzzz8PGjRI2XD79u25c+fKDQmnxozhwcrPz7et7dyh28bd3d22LigocEgm6IuTzhiFEjK5uLi8++67d9z7rkmTJnv27LE9+OWXX6alpclIBz1gxvBgVb6fZ3FxcY37S0pKqvxdoDpOOmMUStRFDz300FtvvWX74+HDhyWGgS4xY7g/7du3t63v6cXey8urSZMmjooFHXHSGaNQoo6aOnWq7TC+cpc84MFixnAfKr/Y207FtcNWCB555BEHRYLOOOmMUShRRz300EO2fxu82MMRmDHch0aNGil3uhNCXLt2rcb9yg30xH+2BMAOJ50xCiXqro4dOyoLDw8PuUmgV8wY7oO/v7+yuHLlSo2bbYWAQonac8YZo1Ci7rJ9HNmqVSu5SaBXzBjuQ8+ePZXFpUuXatycm5urLIKDgx2YCfrijDNGoUTdderUKWXRu3dvuUmgV8wY7kNUVJSyyMjIsL+zvLxcuaagr69veHi4w5NBL5xxxiiUqKMsFovt4q5jxoyRGwa6xIzh/gQGBg4YMEAIkZmZabFY7Ow8f/68csLE1KlTa3OFakDhjDNGoUQd9cMPPyi3kAoPDw8ICJAdBzrEjOG+zZ49WwhRXl6emppqZ9vRo0eFEG5ubtOmTdMoGfTC6WaMQom6yGq1Lly4UAjRunXruLg42XGgQ8wY1AgLC1NOm0hMTLSzLTk5WQgxcuRIPz8/jZJBL5xuxiiU0Nqff/5Z+bL+VUpMTDx69KiLi8vmzZubN2+uTTDoBjMGR3N1dV2yZIkQIiEhoboLu5jN5l27dtWrV0956wLcE6ebMQolNLVq1Spvb++2bdtu3LjRarVWuefo0aMzZ84UQrz99tuDBw/WNiCcHjMGbUyaNCkyMvLmzZuLFi2qcsPy5cvNZvP7778fFBSkcTbog3PNGIUSmjp37pwQ4urVq5GRkf369fvtt9/u2JCYmBgSEtKkSZMDBw688847EiLCyTFj0ExsbGx4ePiGDRtWrFhxx4/i4uKWLVsWHR09ffp0KdmgD040Y+6yA+CvZdGiRZmZmd99950QIi0tLSgoaOzYsYMGDfLx8fn+++8PHjx46tSp6OjoBQsWGAwG2WHhlJgxaMZgMCQmJi5cuHDBggVJSUljx45t3br1xYsXd+zYcfr06fXr10dGRsrOCOfmRDPmUt1HQurNSQqt8vHV4ckOekY4BavV+vPPP+/du/eXX375888/r1+/7uLi0qJFi3bt2j3zzDOhoaE+Pj61/KtOncu1rbt28HVMXjgfZgwau3jxYmxs7LFjx/7444/27dv37dt3xowZXl5etfldZgy1ca8zpn0H4wgltObi4vK3v/3tb3/7m+wg0C1mDBpr27btypUrZaeAntX9GeM7lAAAAFCFQgkAAABVKJQAAABQhUIJAAAAVSiUAAAAUIVCCQAAAFUolAAAAFCFQgkAAABVKJQAAABQhUIJAAAAVSiUAAAAUIVCCQAAAFUolAAAAFDFXfunnJMUqv2TQv9OyA4A3WPG4GjMGJwWRygBAACgCoUSAAAAqlAoAQAAoIqE71CuDk/W/kmhS6fO5drWXTv4SkwCvWLG4GjMGBxB+/NVOEIJAAAAVSiUAAAAUIVCCQAAAFUolAAAAFCFQgkAAABVKJQAAABQhUIJAAAAVSiUAAAAUIVCCQAAAFUolAAAAFCFQgkAAABVKJQAAABQhUIJAAAAVSiUAAAAUIVCCQAAAFUolAAAAFCFQgkAAABV3GUHAKpw8uTJU6dOvfjii7KDQLeYMTxYBQUFp0+fNplM/v7+nTp1MhgMshNBb+r4jHGEEnVOfn5+aGhoZGSk7CDQLWYMD5DRaJw6daqvr++QIUPmzJkTHBzs5+e3bNkyi8UiOxp0wilmjEKJOicyMvLy5cuyU0DPmDE8KAcPHgwKCsrOzk5LSyssLMzOzi4qKoqLi4uPj+/fv/+VK1dkB4TTc5YZo1CibomPj//yyy9lp4CeMWN4UFJSUoYOHRoSEvLNN98EBwcrD7q5uY0ePTo1NfXGjRt9+/bNzc2VGxJOzYlmjEKJOuTcuXOzZs2SnQJ6xozhQcnJyZkwYYLBYIiLi3N3v/OEhBYtWqxdu9ZoNEZERJSXl0tJCGfnXDNGoURdUVZWNnHixFu3bskOAt1ixvAAzZo1Ky8vb8qUKT4+PlVuCA0N7dGjx4EDBzZu3KhxNuiDc80YhRJ1xZIlS9LT04cPHy47CHSLGcODkp2dvXPnTiFEWFiYnW0jRowQQqxZs8ZqtWqUDHrhdDNGoUSd8MMPP8TExCxdurRXr16ys0CfmDE8QOvWrauoqPDw8Hj66aftbBs8eLAQ4syZMykpKVpFg0443YxRKCGf2WyeNGnSwIED33jjDdlZoE/MGB4gi8WyadMmIUTHjh3r1atnZ2f37t2VRWxsrBbJoBfOOGMUSsgXFRV169atzZs3u7i4yM4CfWLG8ABt2bLl+vXrQoguXbrY3+nj4+Pt7S2E2Lt377lz57QIB11wxhmjUEKyLVu2bN26ddOmTa1bt5adBfrEjOHBSkpKUhZt2rSpcXPbtm2FEFar1fZbQI2cccYolJDJaDS+/vrrL7/88qhRo2RngT4xY3jgsrKylEV1595WZttz4cIFB2aCvjjjjFEoIU1FRcWkSZO8vLzWrFkjOwv0iRnDA2e1Wo1Go7K+pxd7W0UA7HPSGbvzOpmAZt577720tLSDBw82atRIdhboEzOGB85kMhUVFSnrhg0b1rjftodCiVpy0hnjCCXkOHHixOLFi2fNmmX/ggjAfWPG4AiVX7Ptn357xx6j0VhRUeGoWNARJ50xCiUkKCkpmTx5sp+f39KlS2VngT4xY3CQ+36xLykpuXz5sqNiQUecdMb4yBsSvPPOO8ePH//uu+8aNGggOwv0iRmDg+Tn59vWbm5uNe6vfAvmgoKC2py0i784J50xjlBCaz/++ON77733yiuvDBo0SHYW6BMzBsdRLtGiKC4urnF/SUlJlb8LVMdJZ4xCCU1ZLJaXXnqpRYsWK1eulJ0F+sSMwaHat29vW9/Ti72Xl1eTJk0cFQs64qQzxkfe0NS8efPOnj27c+dO/mOFgzBjcKjKL/a2U3HtsBWCRx55xEGRoDNOOmMUSmgnJSVl3bp1LVu2PHHixIkTJ6rck5qaqiyKi4srn07RuHHjmTNnapESzowZg6M1atTI29s7Ly9PCHHt2rUa9ys30BP/2RIAO5x0xiiU0M7atWuFECaTadGiRTVuLi4urrzNz8+PF3vUiBmDBvz9/ZUX+ytXrtS42VYIKJSoPWecMQoltNOuXbvAwED7e0wm09WrV4UQrq6u3bt3tz3eokULx4aDLjBj0EDPnj2PHDkihLh06VKNm3Nzc5VFcHCwY2NBR5xxxiiU0I5y9Mi+RYsWKZ9Cenp6pqenOz4UdIUZgwaioqLi4uKEEBkZGfZ3lpeXK9cU9PX1DQ8P1yIcdMEZZ4yzvAEAuAeBgYEDBgwQQmRmZlosFjs7z58/r5wwMXXq1NpcoRpQOOOMUSgBALg3s2fPFkKUl5fbzvGq0tGjR4UQbm5u06ZN0ygZ9MLpZoxCCQDAvQkLC/P39xdCJCYm2tmWnJwshBg5cqSfn59GyaAXTjdjFEoAAO6Nq6vrkiVLhBAJCQnVXdjFbDbv2rWrXr16Cxcu1DYd9MDpZoxCCQDAPZs0aVJkZOTNmzeru0bV8uXLzWbz+++/HxQUpHE26INzzRhneQMAcD9iY2Pz8vI2bNgQEBAwb968yj+Ki4tbtmxZdHT09OnTZcWDDjjRjFEoAQC4HwaDITExceHChQsWLEhKSho7dmzr1q0vXry4Y8eO06dPr1+/PjIyUnZGODcnmjEKJeqWJk2aKN8sbtSokews0CdmDA+Qq6trTEzMtGnTYmNj9+zZ88cff7Rv33748OHffPONl5eX7HTQA2eZMRer1eqgv3pOUmiVj68OT3bQM+Kv5tS5XNu6awdfiUmgV8wYHI0ZgyNo38E4KQcAAACqUCgBAACgCoUSAAAAqlAoAQAAoAqFEgAAAKpQKAEAAKAKhRIAAACqUCgBAACgCoUSAAAAqlAoAQAAoAqFEgAAAKpQKAEAAKAKhRIAAACquGv/lHOSQrV/UujfCdkBoHvMGByNGYPT4gglAAAAVKFQAgAAQBUKJQAAAFSR8B3K1eHJ2j8pdOnUuVzbumsHX4lJoFfMGByNGYMjaH++CkcoAQAAoAqFEgAAAKpQKAEAAKAKhRIAAACqUCgBAACgCoUSAAAAqlAoAQAAoAqFEgAAAKpQKAEAAKAKhRIAAACqUCgBAACgCoUSAAAAqlAoAQAAoAqFEgAAAKpQKAEAAKAKhRIAAACqUCgBAACgirvsAEDVioqKtm7dajQalyxZIjsL9IkZwwNUUFBw+vRpk8nk7+/fqVMng8EgOxH0po7PGIUS0owcOTI9Pf3ux61W6+3bt81mc2lpaVRUlPbBoBvMGDRgNBqXLl362WefeXh4+Pj4XL58uWnTpnPnzp05c2aDBg1kp4MeOMWMUSghTWZm5sWLF+3v8fPz0yYMdIkZg6MdPHhwzJgxvXv3TktLCw4OFkKUl5d//fXXb775ZmJi4u7du1u1aiU7I5ybs8wY36GENGazucY9vNhDDWYMDpWSkjJ06NCQkJBvvvlGeaUXQri5uY0ePTo1NfXGjRt9+/bNzc2VGxJOzYlmjCOUkMZsNsfExAwYMMDd3d3V1dXVtYq3NwEBAdoHg24wY3CcnJycCRMmGAyGuLg4d/c7X0xbtGixdu3aYcOGRURE7Nu3z83NTUpIODXnmjEKJeQoLS21WCxDhgzp06eP7CzQJ2YMDjVr1qy8vLyZM2f6+PhUuSE0NLRHjx4HDhzYuHHjtGnTNI4HHXCuGeMjb8ihfBbZvHlz2UGgW8wYHCc7O3vnzp1CiLCwMDvbRowYIYRYs2aN1WrVKBn0wulmjEIJOZQX+2bNmskOAt1ixuA469atq6io8PDwePrpp+1sGzx4sBDizJkzKSkpWkWDTjjdjFEoIYfZbHZzc2vSpInsINAtZgwOYrFYNm3aJITo2LFjvXr17Ozs3r27soiNjdUiGfTCGWeMQgk5zGZzs2bNXFxcZAeBbjFjcJAtW7Zcv35dCNGlSxf7O318fLy9vYUQe/fuPXfunBbhoAvOOGMUSshhNpv5chscihmDgyQlJSmLNm3a1Li5bdu2Qgir1Wr7LaBGzjhjFErIoRw9Utbl5eWXLl0ymUxyI0FnmDE4SFZWlrKo7tzbymx7Lly44MBM0BdnnDEKJeRQTphYsWJFUFCQwWBo06ZNq1atWrZsOWzYsAULFvDCD/WYMTiC1Wo1Go3K+p5e7G0VAbDPSWeMQgk5CgoK0tLSoqOj09PTy8vLlQevXr2anJwcExPTtWvXL774Qm5CODtmDI5gMpmKioqUdcOGDWvcb9tDoUQtOemMUSghxx33xLvjHgD5+fkTJkx44YUXbD0AuFfMGByh8mu2/dNv79hjNBorKiocFQs64qQzRqGEHMqLfWRk5KFDh5R3YxkZGZ988smgQYNse7Zv375mzRp5GeHcmDE4wn2/2JeUlFy+fNlRsaAjTjpjFErIMWTIkOTk5A0bNoSEhLRo0cLNza1bt25TpkzZv3//8uXLPTw8lG1vv/227askwD1hxuAI+fn5tnVt7p5c+dB4QUGBQzJBX5x0xiiUkGP8+PFDhw69+3EXF5fo6Oht27YpfywsLJw9e7a20aATzBgcQblEi6K4uLjG/SUlJVX+LlAdJ50xCiXqovDw8FGjRinrffv28cUjPHDMGO5P+/btbet7erH38vLivk2oDSedMQol6qi1a9cqh/EtFgt3mIAjMGO4D5Vf7G2n4tphKwSPPPKIgyJBZ5x0xiiUqKP8/Pxst5zKyMiQGwa6xIzhPjRq1Ei5050Q4tq1azXuV26gJ/6zJQB2OOmMUShRdwUGBiqLU6dOyU0CvWLGcB/8/f2VxZUrV2rcbCsEFErUnjPOGIUSdVenTp2URf369eUmgV4xY7gPPXv2VBaXLl2qcXNubq6yCA4OdmAm6IszzhiFEnVXTk6Osnj44YflJoFeMWO4D1FRUcqixm9KlJeXK9cU9PX1DQ8Pd3gy6IUzzhiFEnWX8g/J1dU1JCREdhboEzOG+xAYGDhgwAAhRGZmpsVisbPz/PnzygkTU6dOrc0VqgGFM84YhRJ1VHFxsfJiHxISwtEjOAIzhvumXLu0vLw8NTXVzrajR48KIdzc3KZNm6ZRMuiF080YhRJ11KpVq27cuNGwYcPY2FjZWaBPzBjuW1hYmHLaRGJiop1tycnJQoiRI0f6+flplAx64XQzRqGE1goKCpKSks6ePWtnj8lkiomJEUJs3LixW7duWkWDTjBjcDRXV9clS5YIIRISEqq7sIvZbN61a1e9evUWLlyobTrogdPNGIUSmiorK+vdu/eYMWO6dOnyzjvvlJaW3r3HZDKNHj361q1bs2bNioiI0D4knBozBm1MmjQpMjLy5s2bixYtqnLD8uXLzWbz+++/HxQUpHE26INzzRiFEpoqLi6+efOmEKKsrGzJkiV9+vQ5cuRI5Q2pqanBwcFnzpz54IMP3n//fUkx4cSYMWgmNjY2PDx8w4YNK1asuONHcXFxy5Yti46Onj59upRs0AcnmjF32QHw19KwYcOkpKSoqCjlZIjjx48/8cQTbdq0eeaZZywWy6FDh3Jzc1955ZV3333Xdp8A4J4wY9CMwWBITExcuHDhggULkpKSxo4d27p164sXL+7YseP06dPr16+PjIyUnRHOzYlmzMVqtTror56TFFrl46vDkx30jHAWFRUVhw8f3rdv37Fjx0wm061btzp16tSjR48ePXr06dOn9ncjPXUu17bu2sHXIVnhnJgxaOnixYuxsbHHjh37448/2rdv37dv3xkzZnh5edXmd5kx1Ma9zpj2HYwjlJDA1dW1f//+/fv3lx0EusWMQUtt27ZduXKl7BTQs7o/Y3yHEgAAAKpQKAEAAKAKhRIAAACqUCgBAACgCoUSAAAAqlAoAQAAoAqFEgAAAKpQKAEAAKAKhRIAAACqUCgBAACgCoUSAAAAqlAoAQAAoAqFEgAAAKq4a/+Uc5JCtX9S6N8J2QGge8wYHI0Zg9PiCCUAAABUoVACAABAFQolAAAAVJHwHcrV4cnaPyl06dS5XNu6awdfiUmgV8wYHI0ZgyNof74KRygBAACgCoUSAAAAqlAoAQAAoAqFEgAAAKpQKAEAAKAKhRIAAACqUCgBAACgCoUSAAAAqlAoAQAAoAqFEgAAAKpQKAEAAKAKhRIAAACqUCgBAACgCoUSAAAAqlAoAQAAoAqFEgAAAKpQKAEAAKAKhRJ1VFFRUXx8/OLFi2UHgZ6dOHEiNTVVdgrox+HDh9evX3/lyhXZQaBDBQUFP/74444dO44fP15cXCw7zp3cZQfAX9fIkSPT09Pvftxqtd6+fdtsNpeWlkZFRWkfDLpnMpk2bty4bdu233//ffHixf3795edCHqwadOm1157raysrHPnzq1atZIdB/phNBqXLl362WefeXh4+Pj4XL58uWnTpnPnzp05c2aDBg1kp/s3CiWkyczMvHjxov09fn5+2oTBX0RBQcHy5ctjY2MtFktISMjWrVsDAwNlh4IeLFq0aOnSpbJTQIcOHjw4ZsyY3r17p6WlBQcHCyHKy8u//vrrN998MzExcffu3XXk3QsfeUMas9lc4x4KJR6guLi49u3bL1u2zNvbOyEh4dChQ7RJqFdaWjp58mTaJBwhJSVl6NChISEh33zzjdImhRBubm6jR49OTU29ceNG3759c3Nz5YZUcIQS0pjN5piYmAEDBri7u7u6urq6VvH2JiAgQPtg0J8bN25MnTo1ISFBCDFnzpx33323fv36skNBD65evRoREXHw4MFu3bqdPHlSdhzoSk5OzoQJEwwGQ1xcnLv7nYWtRYsWa9euHTZsWERExL59+9zc3KSEtKFQQo7S0lKLxTJkyJA+ffrIzgKdO3/+/NChQ8+fPy+EmD59+qpVq2Qngk58++23L730UmFhYWxs7MiRI9u1ayc7EXRl1qxZeXl5M2fO9PHxqXJDaGhojx49Dhw4sHHjxmnTpmkc7w585A05lM+7mzdvLjsIdC4rK2vgwIFKmxw/fvyaNWtkJ4IelJaWzps3b9iwYT179jx58uSMGTOq/IwFuG/Z2dk7d+4UQoSFhdnZNmLECCHEmjVrrFarRsmqwT8AyKEUymbNmskOAj27dOnSoEGDcnJyhBDPPvvsZ599xqs+HoiUlJT4+PhPP/00OTmZA5NwhHXr1lVUVHh4eDz99NN2tg0ePFgIcebMmZSUFK2iVY2PvCGH2Wx2c3Nr0qSJ7CDQrYqKioiIiOzsbCHE448//uWXX9arV092KOjE8OHDs7KyGjduLDsI9MlisWzatEkI0bFjR/v/cXXv3l1ZxMbGPvvss1qEqwZv1iGH2Wxu1qyZi4uL7CDQreXLl//www9CCBcXl08//dTT01N2IugKbRKOs2XLluvXrwshunTpYn+nj4+Pt7e3EGLv3r3nzp3TIlw1KJSQw2w28wVKOM5vv/1mu83SqFGjOnfuLDcPANReUlKSsmjTpk2Nm9u2bSuEsFqttt+SgkIJOZQjlMq6vLz80qVLJpNJbiToSUxMTGlpqbKeP3++3DAAcE+ysrKURXXnd1dm23PhwgUHZqoJhRJyKCflrFixIigoyGAwtGnTplWrVi1bthw2bNiCBQsol1AjKytr27ZtyppLUwFwLlar1Wg0Kut7KpS2GioFJ+VAjoKCgrS0tLS0tMoPXr16NTk5OTk5ef369R9++GFERISseHBqsbGx5eXlyrry4cnLly8fOXKksLAwODj4scce4yu8AOogk8lUVFSkrBs2bFjjftseCiX+iu6476K7u3tZWZntj/n5+RMmTEhKStq2bZv0q//D6ezevVtZ9OjRY9CgQcp64MCB+fn5QoiMjAyr1dq4cePp06f/4x//YMAA1CmVe2Ftrk1h22M0GisqKmRdHI2PvCGHUigjIyMPHTqkvBvLyMj45JNPbC//Qojt27dzGWrcq6ysLNupjpXH6cCBA8ePHz9+/Hhubu4LL7xw48aNmJiYQYMGXblyRVJSAKjCfRfKkpKSy5cvOypWTSiUkGPIkCHJyckbNmwICQlp0aKFm5tbt27dpkyZsn///uXLl3t4eCjb3n77bdtXSYDa2L9/v2391FNP2da2D7i9vb2/+OKLF154QQjx/fffv/jiixonBAA7lM9SFLX5CKXybb4LCgockqkWKJSQY/z48UOHDr37cRcXl+joaNsZFYWFhbNnz9Y2GpybciVzxeOPP17lHjc3txUrVij/U6empu7YsUObbABQI+UyQIri4uIa95eUlFT5uxqjUKIuCg8PHzVqlLLet29fRUWF3DxwIlevXrWtW7VqVd22du3aKffAFUK8+eab0m+DCwCK9u3b29b3VCi9vLwk3n+OQok6au3atcphfIvFIvfq/3Auubm5yqJRo0a2705U6bnnnlMWZ8+elfjFIwCorHKhtJ3ubYetdD7yyCMOilQbFErUUX5+frZbTmVkZMgNAydiK5FeXl72dz788MO29e+//+7ATABQa40aNVLupiiEuHbtWo37lZs0iv9sotqjUKLuCgwMVBanTp2SmwROJCAgQFnccWmqu1EoAdRN/v7+yqI2l6GwlU4KJVC1Tp06KYv69evLTQInUrlQ3rp1y87Oxo0b29a1OQwAANro2bOnsrh06VKNm23f8wkODnZgpppQKFF35eTkKIvKR5IA+2yFUtT0f3HlEml79wIA0kVFRSmLGr/xVV5erly30tfXNzw83OHJqkehRN2l/ENydXUNCQmRnQVOo0No/P2OAAAgAElEQVSHDrZ1ZmamnZ22t/VCiG7dujkwEwDci8DAwAEDBgghMjMzLRaLnZ3nz59XTsqZOnVqba6C7jgUStRRxcXFSqEMCQnhCCVq75FHHunbt6+yTkhIsLPTdoEhDw+Pjh07OjwZANSacg3m8vLy1NRUO9uOHj0qhHBzc5s2bZpGyapBoUQdtWrVqhs3bjRs2DA2NlZ2FjiZd955R1l89dVXhYWF1W07fPiwshgzZoz9CwwBgMbCwsKUU3MSExPtbEtOThZCjBw50s/PT6Nk1aBQQmsFBQVJSUlnz561s8dkMsXExAghNm7cyGeRuFfPPvuscpCysLCwuoOUFotF+W+6UaNG77//vqb5AKAmrq6uS5YsEUIkJCRUd9ag2WzetWtXvXr1Fi5cqG26KlAooamysrLevXuPGTOmS5cu77zzTmlp6d17TCbT6NGjb926NWvWrIiICO1DQgdiYmKUg45z5syp8pJAn3/+uXIO+JIlS1q3bq11PuhO5fsvXLhwQWIS6MakSZMiIyNv3ry5aNGiKjcsX77cbDa///77QUFBGme7G4USmiouLr5586YQoqysbMmSJX369Dly5EjlDampqcHBwWfOnPnggw84boT7NmDAgJSUFG9vb7PZPGrUqDuuSbljx46ZM2e6urpGR0fPnDlTVkjoxq+//vrWW2/Z/vjBBx8cO3ZMYh7oRmxsbHh4+IYNG1asWHHHj+Li4pYtWxYdHT19+nQp2e7gLjsA/loaNmyYlJQUFRWlnHBz/PjxJ554ok2bNs8884zFYjl06FBubu4rr7zy7rvv2u4TANyfkJCQI0eOPP/88ydPnuzWrdvcuXO7dev2+++/Hz58ODEx8eGHH968efPTTz8tOyac2Pfff7948eLffvut8hUDhBAnTpzo3bu3n59f165dP/zww8pXHgDuicFgSExMXLhw4YIFC5KSksaOHdu6deuLFy/u2LHj9OnT69evj4yMlJ3x31ysVquD/uo5SaFVPr46PNlBzwhnUVFRcfjw4X379h07dsxkMt26datTp049evTo0aNHnz59an830lPn/u8/8a4dfB2SFU6uuLh49+7dSUlJ58+fv379eufOnXv16tWrV6+QkJBGjRrV+OvMGOzIy8u7fPly/fr1H3roIXd3d3d3dzc3t/Ly8rKystLS0qKiotu3b3fo0MHT09POX8KMoTYuXrwYGxt77NixP/74o3379n379p0xY4adG8xq38E4QgkJXF1d+/fv379/f9lBoH8Gg2HMmDFjxoyRHQQ65O3tzWcp0Ebbtm1XrlwpO4U9fIcSAAAAqlAoAQAAoAqFEgAAAKpQKAEAAKAKhRIAAACqUCgBAACgCoUSAAAAqlAoAQAAoAqFEgAAAKpQKAEAAKAKhRIAAACqUCgBAACgCoUSAAAAqrhr/5RzkkK1f1Lo3wnZAaB7zBgcjRmD0+IIJQAAAFShUAIAAEAVCiUAAABUkfAdytXhydo/KXTp1Llc27prB1+JSaBXzBgcjRmDI2h/vgpHKAEAAKAKhRIAAACqUCgBAACgCoUSAAAAqlAoAQAAoAqFEgAAAKpQKAEAAKAKhRIAAACqUCgBAACgCoUSAAAAqlAoAQAAoAqFEgAAAKpQKAEAAKAKhRIAAACqUCgBAACgCoUSAAAAqlAoAQAAoIq77ABA1YqKirZu3Wo0GpcsWSI7CwDUoLS0NDMz8+zZs23btu3atavBYJCdCHpTUFBw+vRpk8nk7+/fqVOnujZjFEpIM3LkyPT09Lsft1qtt2/fNpvNpaWlUVFR2geDUxs/fvyPP/54r7/Vr1+/LVu2OCIPdG/37t2LFi06depUaWmp8oi7u3vnzp3feuutCRMmyM0GfTAajUuXLv3ss888PDx8fHwuX77ctGnTuXPnzpw5s0GDBrLT/RuFEtJkZmZevHjR/h4/Pz9twkA3rly5UuNc3a1nz56OCAN9M5lMM2fOTExMvOPxsrKyjIyMiRMnbt68+eOPP27fvr2UeNCHgwcPjhkzpnfv3mlpacHBwUKI8vLyr7/++s0330xMTNy9e3erVq1kZxSCQgmJzGZzjXsolLhXFRUV9/orzZs3f+211xwRBjpWVFT07LPPZmRkeHp6Tpw4MTAwMCAgICsr69dff928efPt27eFEN9+++3AgQPT09ObNm0qOy+cUkpKynPPPffcc88lJia6u/+7s7m5uY0ePfrJJ5/s169f3759jxw54uvrKzenoFBCIrPZHBMTM2DAAHd3d1dXV1fXKk4RCwgI0D4YnFpFRUWbNm1iYmKaN29e4+avv/56/fr1kZGRnp6eGmSDnsydOzcjI2Ps2LGrV6++463v3LlzX3755cOHDwshjEbjq6+++q9//UtSTDixnJycCRMmGAyGuLg4W5u0adGixdq1a4cNGxYREbFv3z43NzcpIW0olJCjtLTUYrEMGTKkT58+srNAVyoqKiIiIiZNmlSbzTExMa6urq+++qqjU0Fn9u7du27duoiIiK1bt97900cffXT37t2dO3c2mUxCiISEhIkTJz7//POax4RzmzVrVl5e3syZM318fKrcEBoa2qNHjwMHDmzcuHHatGkax7sDlw2CHMrn3bU5hgTcE09Pz8cff7w2O8+cOfPDDz8899xz7dq1c3Qq6MzHH3/cs2fPTz75pLoNTZs2Xb16te2PKSkpmuSCfmRnZ+/cuVMIERYWZmfbiBEjhBBr1qyxWq0aJasGhRJyKIWyWbNmsoNAb1JSUsaMGVObnZs2bRJCREZGOjgR9ObmzZspKSlvv/12/fr17WwbNmyYbf3TTz85Phd0Zd26dRUVFR4eHk8//bSdbYMHDxZCnDlzRvqbFgol5DCbzW5ubk2aNJEdBH9RJSUlmzdvbtWqVeVXfaA29uzZ07hxY+XIkB1NmjSxnX578uRJx+eCflgsFuUdb8eOHevVq2dnZ/fu3ZVFbGysFsmqR6GEHGazuVmzZi4uLrKD4C9q586d165dmzx5svRvssPpPPbYY5s2bfLw8Khxp7e3t7LgghW4J1u2bLl+/boQokuXLvZ3+vj4KGO2d+/ec+fOaRGuGhRKyGE2m/kCJSTauHGjEOLll1+WHQTOJygoqDZn2FitVtsLfOfOnR0cCrqSlJSkLNq0aVPj5rZt2wohrFar7bekoFBCDuUIpbIuLy+/dOmScjokoIHs7Oz9+/c/+eSTjz32mOws0C2j0ahcjVII8dRTT8kNA+eSlZWlLKo7v7sy254LFy44MFNNKJSQQzkpZ8WKFUFBQQaDoU2bNq1atWrZsuWwYcMWLFhAuYRD/fOf/7RarZMnT5YdBHr25ZdfKgsfH5/XX39dbhg4EavVajQalfU9FUpbDZWCQgk5CgoK0tLSoqOj09PTy8vLlQevXr2anJwcExPTtWvXL774Qm5C6Njnn39uMBjGjRsnOwh0q6ysbM2aNcp6/vz5XDkftWcymYqKipR1w4YNa9xv20OhxF/RHfddvOMeAPn5+RMmTHjhhRdsXRN4UA4fPpyVlTVixAgvLy/ZWaBb27Zty8nJEUIMHDhwxowZsuPAmVTuhfZP8b5jj9FovI97zz4oFErIoRTKyMjIQ4cOKe/GMjIyPvnkk0GDBtn2bN++3fYWH3hQ/vd//1cI8V//9V+yg0C3cnNz586dK4QICAjYvn373TfNA+y470JZUlJy+fJlR8WqCYUScgwZMiQ5OXnDhg0hISEtWrRwc3Pr1q3blClT9u/fv3z5ctv1ON5++23bV0kA9UpKShISEpo3bz58+HDZWaBbU6ZMyc3N9fLy2rVrF7dvwL3Kz8+3rWtzXbPK71gKCgockqkWKJSQY/z48UOHDr37cRcXl+jo6G3btil/LCwsnD17trbRoGd79+7Nz89/4YUXanMRQeA+fPTRR3v27GnWrNn+/fu5WhDug3IZIEVxcXGN+0tKSqr8XY1RKFEXhYeHjxo1Slnv27dP4pdCoDOff/65ECIiIkJ2EOjTnj17Zs+erbTJXr16yY4Dp9S+fXvb+p4KpZeXl8T7z1EoUUetXbtWOYxvsVjkXv0fumE2m/fs2ePn59e/f3/ZWaBDP/7447hx45o2bXrgwIGgoCDZceCsKhdK2+nedthK5yOPPOKgSLVBoUQd5efnZ7vlVEZGhtww0Ifdu3cXFxe/+OKL3PMTD9xvv/02YsSIJk2aHDp0KDAwUHYcOLFGjRrZbtp57dq1GvcrN2kU/9lEtUehRN1l+0/51KlTcpNAH5T7kvF5Nx64CxcuPPPMM56ent9//33Xrl1lx4HT8/f3VxZXrlypcbOtdFIogap16tRJWdSvX19uEujA7du3k5OTAwICevfuLTsLdCUnJ2fQoEEeHh6HDh3q0KGD7DjQg549eyqLS5cu1bg5NzdXWQQHBzswU00olKi7lMsCCyEefvhhuUmgA8nJyRaL5YUXXpAdBLpiMpkGDx4shDh06JDc40PQk6ioKGVR4ze+ysvLletW+vr6hoeHOzxZ9SiUqLuUf0iurq4hISGys8Dp7dixQwhBocQDlJeXN3jw4MLCwkOHDtV4PsQvv/xSmxMsACFEYGDggAEDhBCZmZkWi8XOzvPnzysn5UydOrU2V0F3HAol6qji4mKlUIaEhHCEEiqVlZXt2rXL39+fK7ngQbl58+bQoUOzsrJ27txZY5vMyMgIDg6+ceOGJtGgB8o1mMvLy1NTU+1sO3r0qBDCzc1t2rRpGiWrBoUSddSqVatu3LjRsGHD2NhY2Vng9H7++eeCggK5nwdBT0pLS8eMGfPrr79++umntfni2po1awwGg4+PjwbZoA9hYWHKqTmJiYl2tiUnJwshRo4c6efnp1GyalAoobWCgoKkpKSzZ8/a2WMymWJiYoQQGzdu7Natm1bRoFv79+8XQoSFhckOAp2YNm1aSkrK4sWLx40bV+PmrVu3xsfHP/zww1yvCrXn6uq6ZMkSIURCQkJ1Fw8ym827du2qV6/ewoULtU1XBe5YD02VlZX17t37woUL7u7uCxYsWLBgwd13wDOZTKNHj75169asWbO4wgseiP379zdr1uypp56SHQR6kJCQEB8fX69evZMnT9ovlIWFhdnZ2b/99psQQvoBJDidSZMmpaamxsXFLVq0aP369XdvWL58udlsXrt2bV24kD6FEpoqLi6+efOmEKKsrGzJkiVfffVVXFzc448/btuQmpoaERFRWFj4wQcfTJ8+XV5S6MetW7d+/vnn8PBwNzc32Vng9AoKCl577TUhRElJyfbt22v/i23atHFYKOhWbGxsXl7ehg0bAgIC5s2bV/lHcXFxy5Yti46OriOvlRRKaKphw4ZJSUlRUVHKCTfHjx9/4okn2rRp88wzz1gslkOHDuXm5r7yyivvvvuu7T4BgErff/99aWkpt1vEA7Fq1ar8/Pz7+EWOUOI+GAyGxMTEhQsXLliwICkpaezYsa1bt7548eKOHTtOnz69fv36yMhI2Rn/jUIJrfXr1y89Pf3w4cP79u07duyYyWS6detWXl5ejx49wsPD+/TpI/dupNCf/v37G41GX19f2UGgB2FhYaGhoQaDwWAweHh4uLq6uri4uLq6KgshREVFRUVFhdVqraioKC8vLykpKS4uLi4ubteunezscEqurq4xMTHTpk2LjY3ds2fPH3/80b59++HDh3/zzTdeXl6y0/0fCiUkcHV17d+/P0eMoI1GjRo1atRIdgroRJ8+fWRHwF9R27ZtV65cKTuFPZzlDQAAAFUolAAAAFCFQgkAAABVKJQAAABQhUIJAAAAVSiUAAAAUIVCCQAAAFUolAAAAFCFQgkAAABVKJQAAABQhUIJAAAAVSiUAAAAUIVCCQAAAFXctX/KOUmh2j8p9O+E7ADQPWYMjsaMwWlxhBIAAACqUCgBAACgCoUSAAAAqkj4DuXq8GTtnxS6dOpcrm3dtYOvxCTQK2YMjsaMwRG0P1+FI5QAAABQhUIJAAAAVSiUAAAAUIVCCQAAAFUolAAAAFCFQgkAAABVKJQAAABQhUIJAAAAVSiUAAAAUIVCCQAAAFUolAAAAFCFQgkAAABVKJQAAABQhUIJAAAAVSiUAAAAUIVCCQAAAFUolAAAAFDFXXYAoGpFRUVbt241Go1LliyRnQV6cOXKlV9//dXT07NLly7e3t6y40BvSktLMzMzz54927Zt265duxoMBtmJoDcFBQWnT582mUz+/v6dOnWqazNGoYQ0I0eOTE9Pv/txq9V6+/Zts9lcWloaFRWlfTDoiclkio6O3r9//5UrV1q1apWfn19cXOzj4zN58uSFCxc2bdpUdkA4vd27dy9atOjUqVOlpaXKI+7u7p07d37rrbcmTJggNxv0wWg0Ll269LPPPvPw8PDx8bl8+XLTpk3nzp07c+bMBg0ayE73b3zkDWkyMzMvViUnJycvL0/5r9nPz092TDixzz77rEuXLvv27Vu1alVubu4ff/xx8+bNX375ZdCgQe+///6jjz66ZcsW2RnhxEwm07hx48LCwtLT021tUghRVlaWkZExceLE0NDQrKwsiQmhAwcPHgwKCsrOzk5LSyssLMzOzi4qKoqLi4uPj+/fv/+VK1dkB/w3jlBCGrPZXOMeCiXu2+rVq//f//t/PXr0+O6772yfcXt4ePTq1Wvbtm39+vWbMWPGSy+91KpVq0GDBsmNCmdUVFT07LPPZmRkeHp6Tpw4MTAwMCAgICsr69dff928efPt27eFEN9+++3AgQPT09M5Fo77k5KS8txzzz333HOJiYnu7v/ubG5ubqNHj37yySf79evXt2/fI0eO+Pr6ys0pKJSQyGw2x8TEDBgwwN3d3dXV1dW1iuPlAQEB2geDDhw/fnz+/Pmurq4bN26s8huT06dP37Vr1759+8aPH3/ixImWLVtqHxJObe7cuRkZGWPHjl29evUdb33nzp378ssvHz58WAhhNBpfffXVf/3rX5Jiwonl5ORMmDDBYDDExcXZ2qRNixYt1q5dO2zYsIiIiH379rm5uUkJaUOhhBylpaUWi2XIkCF9+vSRnQU6NGXKlOLi4pCQkMcff7y6PYsWLdq3b9+1a9d27do1depULePB2e3du3fdunURERFbt269+6ePPvro7t27O3fubDKZhBAJCQkTJ058/vnnNY8J5zZr1qy8vLyZM2f6+PhUuSE0NLRHjx4HDhzYuHHjtGnTNI53B75DCTmUz7ubN28uOwh06Nq1a8eOHRNCBAYG2tnWq1cv5bi4ciQJqL2PP/64Z8+en3zySXUbmjZtunr1atsfU1JSNMkF/cjOzt65c6cQIiwszM62ESNGCCHWrFljtVo1SlYNCiXkUApls2bNZAeBDqWlpSkL+98ratCggfJJ9++//65FLOjFzZs3U1JS3n777fr169vZNmzYMNv6p59+cnwu6Mq6desqKio8PDyefvppO9sGDx4shDhz5oz0Ny0USshhNpvd3NyaNGkiOwh06Pz588rCflO0Wq3Xrl0TQrRr106LWNCLPXv2NG7cWDkyZEeTJk1atWqlrE+ePOn4XNAPi8WyadMmIUTHjh3r1atnZ2f37t2VRWxsrBbJqkehhBxms7lZs2YuLi6yg0CH/P39lcXOnTv//PPP6rZlZWUpl3rp1KmTRsmgC4899timTZs8PDxq3Gk7IYwLVuCebNmy5fr160KILl262N/p4+OjjNnevXvPnTunRbhqUCghh9ls5guUcBDbW/YbN2784x//qG7bP//5TyFEgwYNXnnlFY2SQReCgoJqc4aN1Wq1vcB37tzZwaGgK0lJScqiTZs2NW5u27atEMJqtdp+SwoKJeRQjlAq6/Ly8kuXLimnQwLqBQQE2L7GHhsb+9Zbb939dfUrV65s2LBBCLFw4UKOHsERjEajcjVKIcRTTz0lNwyci+16+NWd312Zbc+FCxccmKkmFErIoZyUs2LFiqCgIIPB0KZNm1atWrVs2XLYsGELFiygXEKlpUuX2j6RXL58+fjx4yvfsKSoqCg8PPzatWv/+Mc/5s+fLykjdO7LL79UFj4+Pq+//rrcMHAiVqvVaDQq63sqlHJvy0ShhBwFBQVpaWnR0dHp6enl5eXKg1evXk1OTo6JienatesXX3whNyGcWo8ePf71r3/ZOmVCQkKHDh1Gjx596NChn3/+uVevXpcvX/7yyy8XLVokNyf0qqysbM2aNcp6/vz5np6ecvPAiZhMpqKiImXdsGHDGvfb9lAo8Vd0x30X77gHQH5+/oQJE1544QVb1wTu1ejRoxMTE223vKuoqPjqq68GDhz4t7/97dFHHz1z5kx4eLjchNCxbdu25eTkCCEGDhw4Y8YM2XHgTCr3QvuneN+xx2g0VlRUOCpWTSiUkEMplJGRkYcOHVLejWVkZHzyySeV76q8fft221t84D6MHDnyzJkzEydOvOPxr7/+euLEiVx+Eg6Sm5s7d+5cIURAQMD27dvvvmkeYMd9F8qSkpLLly87KlZNKJSQY8iQIcnJyRs2bAgJCWnRooWbm1u3bt2mTJmyf//+5cuX2z6pfPvtt21fJQHuQ/369bt169aoUaNHH3208uNfffVVz549V61aJSsYdGzKlCm5ubleXl67du3i9g24V/n5+bZ1be7QXfkdS0FBgUMy1QKFEnKMHz9+6NChdz/u4uISHR29bds25Y+FhYWzZ8/WNhr0Iz4+vn379itXrvzoo48yMzNPnjw5ZcoUg8Gg/LSoqGju3Lnz5s2TGxI689FHH+3Zs6dZs2b79+/nakG4D8plgBTFxcU17i8pKanydzVGoURdFB4ePmrUKGW9b98+iV8KgfOKior6+9//7u7ufvTo0f/6r/8SQnTt2vWTTz7Jzs6ufBHBlStXLliwQF5M6MqePXtmz56ttMlevXrJjgOn1L59e9v6ngqll5eXxPvPUShRR61du1Y5jG+xWORe/R/OaPbs2R9//LHL/2/vXqOyqvP+j/84yXhAcwJSxAOHzAPJQfTOGkSxQSvJhDxQZqOTpC5SWZblEjOtGF2KKc44Co6m5uTABJKmTLjMJeEs885GJUESARUhcBRQiNPF9X+w73X9GQcu0O3em719vx79hN8lnwdfuD5s9sHGJj09veVPZyFEnz590tPTN23aZDnxKC4u7uzZs1rEhKH885//nD59+iOPPHLs2DF/f3+t40CvWv7IslzubYWldA4aNEihSB1BoUQn5e7ubnnk1Pnz57UNA305deqUdDlXSEjIU0891eqexYsXf/zxx5Z/cjIlZLpw4cLkyZN79ep1/PhxX19freNAx5ycnCwP7ayoqGh3v/SQRvGfTVR9FEp0XpYfyj/++KO2SaAv0iNwhBCzZs2ysi0mJmb06NHS+tChQ4rHgnFdvnz5t7/9bY8ePU6cODF8+HCt40D3PD09pUVpaWm7my2lk0IJtG7IkCHSomvXrtomgb5kZ2dLC+uXRNjZ2b3++uvS+ubNm7W1tYongxFdvXo1JCTEwcHh+PHj3t7eWseBEfj5+UmLa9eutbu5vLxcWgQGBiqYqT0USnRe0m2BhRD9+vXTNgn0xfL7ep8+fazvbNk4GxsbFcwEgyorK5swYYIQ4vjx49oeH4KRLFy4UFq0e8aXyWSS7lvp6uqq7cMaKJTovKRvJFtb2+DgYK2zQE8sj7mz3CGoLZZbbHh7e2t4dSR06saNGxMmTKipqTl+/Hi710N8//33HbnAAhBC+Pr6jhs3TgiRn59v/Y8nBQUF0kU58+bN68hd0JVDoUQnVV9fLxXK4OBgjlDinowaNUpa5OfnW99ZVFQkLSwnUwIddPv27YkTJxYWFqanp7fbJs+fPx8YGFhdXa1KNBiBdA9mk8mUlZVlZdvp06eFEHZ2dvPnz1cpWRsolOikNm7cWF1d3b1794SEBK2zQGcshTI3N9f6Tsv1Xi2f+Qm0q7GxMSIi4ocffvj00087cuLa5s2bHR0dXVxcVMgGYwgLC5MuzUlJSbGyLSMjQwgxZcoUd3d3lZK1gUIJtVVWVqampv70009W9pSVlcXFxQkhkpKSfHx81IoGg5g2bVr37t2FEFu3bjWZTG1ta2pq2rVrlxAiODh4zpw56uWD/s2fPz8zM3PVqlXTp09vd/Nf//rXnTt39uvXz8bGRoVsMAZbW9vVq1cLIZKTk9u6eVBVVdXBgwe7dOkSGxurbrpW8MR6qKqpqWnkyJGXL1+2t7dfsWLFihUrLI/ttigrK5s6deqdO3cWL14cGRmpSU7ompeX15YtW+bOnXvu3LktW7a09fTO+Pj4f/3rX7169dqzZ4+tLb9do6OSk5N37tzZpUuXnJwc64WypqamqKjowoULQgjNDyBBd2bNmpWVlZWYmLhy5cpt27b994Z169ZVVVVt2bKlM9xIn0IJVdXX19++fVsI0dTUtHr16gMHDiQmJrY8fS0rKysyMrKmpmbTpk3R0dHaJYW+zZkz5+TJkzt27Hj77bdv3rz5/vvvSw9ektTX13/wwQfr16/v16/f7t27NXz6LXSnsrJywYIFQoiGhoa///3vHX9h//79FQsFw0pISLhx48b27du9vLzeeeedlp9KTExcu3btsmXLOsl7JYUSqurevXtqaurChQulC27Onj37P//zP/379//tb39bW1t7/Pjx8vLyN9544+OPP7Y8JwC4P0lJSREREUuWLPnwww///ve/h4SE+Pr6NjU1nTt37ujRowUFBQsWLPjDH/7Qs2dPrZNCTzZu3Hjz5s37eCFHKHEfHB0dU1JSYmNjV6xYkZqa+vLLL7u5uV25ciUtLS03N3fbtm1RUVFaZ/w/NmazWaH/OiZ1Uqsf/yQ8Q6GvCL1obm7Ozs7++uuvz5w5U1ZWdufOnSFDhowYMWLEiBGjRo3q+NNIf7xUblkP93ZVJCt0rrGxMS0tLScnJ1rGEN8AACAASURBVDc3Ny8vr1evXn5+fv7+/k8//bT1255LmDHc5fTp042NjY6Ojo6Ojg4ODra2tjY2Nra2ttJCCNHc3Nzc3Gw2m5ubm00mU0NDQ319fX19/cCBA1s9Fs6MoSOuXLmSkJBw5syZ69eve3h4jBkz5q233urdu3db+9XvYByhhAZsbW2DgoKCgoK0DgLjc3BwmD59ekeunAA6wnIPAUBNAwYM2LBhg9YprOE8dAAAAMhCoQQAAIAsFEoAAADIQqEEAACALBRKAAAAyEKhBAAAgCwUSgAAAMhCoQQAAIAsFEoAAADIQqEEAACALBRKAAAAyEKhBAAAgCwUSgAAAMhir/6XjEmdpP4XhfGd0zoADI8Zg9KYMegWRygBAAAgC4USAAAAslAoAQAAIIsG51B+Ep6h/heFIf14qdyyHu7tqmESGBUzBqUxY1CC+tercIQSAAAAslAoAQAAIAuFEgAAALJQKAEAACALhRIAAACyUCgBAAAgC4USAAAAslAoAQAAIAuFEgAAALJQKAEAACALhRIAAACyUCgBAAAgC4USAAAAslAoAQAAIAuFEgAAALJQKAEAACALhRIAAACy2GsdAGjTuXPnqqqqgoKCtA4Cw2LG8KBUVlbm5uaWlZV5enoOGTLE0dFR60Qwmk4+YxyhRKdTVlb24YcfDh8+PCAg4Pjx41rHgQExY3iAiouL582b5+rq+uyzz8bExAQGBrq7u69du7a2tlbraDAIXcwYhRKdSGVl5fLly728vN5//30XF5fvv/9+5cqVWoeCoTBjeLC++eYbf3//oqKikydP1tTUFBUV1dXVJSYm7ty5MygoqLS0VOuA0D29zBiFEp1FYmKih4fH2rVrnZ2dk5OTjx8/7uvrq3UoGAozhgcrMzNz4sSJwcHBR44cCQwMlD5oZ2c3derUrKys6urqMWPGlJeXaxsSuqajGaNQQnvV1dUzZsx48803KysrY2Ji8vLypk2bpnUoGAozhgfu6tWrr7zyiqOjY2Jior393RckPPbYY1u2bCkuLo6MjDSZTJokhN7pa8YolNBYQUFBQEBAcnKyECI6Onrjxo1du3bVOhQMhRmDEhYvXnzjxo25c+e6uLi0umHSpEkjRow4duxYUlKSytlgDPqaMQoltFRYWDh+/PiCggIhxMyZMzdv3qx1IhgNMwYlFBUVpaenCyHCwsKsbJs8ebIQYvPmzWazWaVkMArdzRiFEpq5du1aSEjI1atXhRChoaG7d++2tWUg8SAxY1DI1q1bm5ubHRwcxo4da2XbhAkThBB5eXmZmZlqRYNB6G7G+NkKbTQ3N0dGRhYVFQkhRo8e/cUXX3Tp0kXrUDAUZgwKqa2t3bFjhxBi8ODB1ofqySeflBYJCQlqJINR6HHGKJTQxrp167799lshhI2NzaefftqjRw+tE8FomDEoZN++fbdu3RJCDBs2zPpOFxcXZ2dnIcThw4cvXbqkRjgYgh5njEIJDVy4cGHVqlXS+qWXXho6dKi2eWA8zBiUk5qaKi369+/f7uYBAwYIIcxms+VVQLv0OGMUSmggLi6usbFRWi9fvlzbMDAkZgzKKSwslBZtXXvbkmXP5cuXFcwEY9HjjFEoobbCwsL9+/dL62effXbUqFHa5oHxMGNQjtlsLi4ultb39GZvqQiAdTqdsbvvkwkoLSEhwXIL1paHjkpKSr777ruamprAwMAnnnjCxsZGo4DQPWYMyikrK6urq5PW3bt3b3e/ZQ+FEh2k0xmjUEJthw4dkhYjRowICQmR1uPHj79586YQ4vz582azuWfPntHR0WvWrLGzs9MsKHSLGYNyWr5nd+S+AZY9xcXFzc3N3LgK7dLpjDHZUFVhYaHlMjTLO70Q4tixY2fPnj179mx5efm0adOqq6vj4uJCQkI6z2PvoRfMGBR132/2DQ0NJSUlSsWCgeh0xiiUUNXRo0ct62eeecaytvzx0dnZ+fPPP5ees3zixIkZM2aonBB6x4xBUdJxbklHDm+3fARzZWWlIplgLDqdMQolVCXdZVoyevToVvfY2dmtX79e+i7KyspKS0tTJxuMgRmDoqRbtEjq6+vb3d/Q0NDqa4G26HTGKJRQ1c8//2xZ9+3bt61tAwcOlJ5PKoR49913NX9EKXSEGYOiPDw8LOt7erPv3bt3r169lIoFA9HpjFEooary8nJp4eTk5ODgYGXnCy+8IC1++uknTjxCxzFjUFTLN3vLpbhWWArBoEGDFIoEg9HpjFEooSrLG3zv3r2t7+zXr59lffHiRQUzwViYMSjKyclJetKdEKKioqLd/dID9MR/tgTACp3OGIUSqvLy8pIWVVVV1nfyZo/7w4xBaZ6entKiI7cIsBQCCiU6To8zRqGEqlq+2d+5c8fKzp49e1rWHfkVDZAwY1Can5+ftLh27Vq7my3nYAQGBiqYCcaixxmjUEJVljd70d73Scs3+CFDhiiYCcbCjEFpCxculBbnz5+3vtNkMkn3FHR1dQ0PD1c8GYxCjzNGoYSqvL29Lev8/HwrOy2/cgkhfHx8FMwEY2HGoDRfX99x48YJIfLz82tra63sLCgokC6YmDdvXkfuUA1I9DhjFEqoatCgQWPGjJHWycnJVnZabv7i4OAwePBgxZPBKJgxqGDJkiVCCJPJlJWVZWXb6dOnhRB2dnbz589XKRmMQnczRqGE2j744ANpceDAgZqamra2ZWdnS4uIiAjrN38B7sKMQWlhYWHSZRMpKSlWtmVkZAghpkyZ4u7urlIyGIXuZoxCCbWFhoZKB5BqamraOoBUW1srfQs5OTnFx8ermg/6x4xBaba2tqtXrxZCJCcnt3VFV1VV1cGDB7t06RIbG6tuOhiB7maMQgkNxMXFSQeEYmJiWr1dy969e6Xrc1evXu3m5qZ2PugfMwalzZo1Kyoq6vbt2ytXrmx1w7p166qqquLj4/39/VXOBmPQ14xRKKGBcePGZWZmOjs7V1VVvfTSS3fdLzAtLW3RokW2trbLli1btGiRViGha8wYVJCQkBAeHr59+/b169ff9anExMS1a9cuW7YsOjpak2wwBh3NmL3WAfCQCg4O/u6771588cWcnBwfH5+lS5f6+PhcvHgxOzs7JSWlX79+e/bsGTt2rNYxoWPMGJTm6OiYkpISGxu7YsWK1NTUl19+2c3N7cqVK2lpabm5udu2bYuKitI6I/RNRzNmYzabFfqvY1IntfrxT8IzFPqK0J36+vpDhw6lpqYWFBTcunVr6NChAQEBAQEBwcHBTk5O7b78x0v//7Yvw71dlUwKvWLGoIIrV64kJCScOXPm+vXrHh4eY8aMeeutt9p9+KeEGUNH3OuMqd/BKJTQMX4QQ2nMGJTGjEEJ6ncwzqEEAACALBRKAAAAyEKhBAAAgCwUSgAAAMhCoQQAAIAsFEoAAADIQqEEAACALBRKAAAAyEKhBAAAgCwUSgAAAMhCoQQAAIAsFEoAAADIQqEEAACALPbqf8mY1Enqf1EY3zmtA8DwmDEojRmDbnGEEgAAALJQKAEAACALhRIAAACyaHAO5SfhGep/URjSj5fKLevh3q4aJoFRMWNQGjMGJah/vQpHKAEAACALhRIAAACyUCgBAAAgC4USAAAAslAoAQAAIAuFEgAAALJQKAEAACALhRIAAACyUCgBAAAgC4USAAAAslAoAQAAIAuFEgAAALJQKAEAACALhRIAAACyUCgBAAAgC4USAAAAslAoAQAAIIu91gGANp07d66qqiooKEjrIADQIdnZ2efPn58yZUrfvn21zgKjqayszM3NLSsr8/T0HDJkiKOjo9aJ/gOFEp1OWVlZUlLS/v37L168uGrVKgol7snMmTP/+c9/3uurfvOb3+zbt0+JPHh47NixY8GCBU1NTUOHDqVQ4gEqLi7+6KOPdu/e7eDg4OLiUlJS8sgjjyxdunTRokXdunXTOt3/oVCiE6msrFy3bl1CQkJtbW1wcPBf//pXX19frUNBZ0pLS69cuXKvr/Lz81MiDB4eK1eu/Oijj7ROAQP65ptvIiIiRo4cefLkycDAQCGEyWT68ssv33333ZSUlEOHDnWS3144hxKdRWJiooeHx9q1a52dnZOTk48fP06bxH1obm6+15c8+uijCxYsUCIMHgaNjY2zZ8+mTUIJmZmZEydODA4OPnLkiNQmhRB2dnZTp07Nysqqrq4eM2ZMeXm5tiElHKGE9qqrq+fNm5ecnCyEiImJ+fjjj7t27ap1KOhVc3Nz//794+LiHn300XY3f/nll9u2bYuKiurRo4cK2WA8P//8c2Rk5DfffOPj45OTk6N1HBjK1atXX3nlFUdHx8TERHv7uwvbY489tmXLlueeey4yMvLrr7+2s7PTJKQFhRIaKygomDhxYkFBgRAiOjp648aNWieCvjU3N0dGRs6aNasjm+Pi4mxtbd98802lU8GQ/vGPf7z++us1NTUJCQlTpkwZOHCg1olgKIsXL75x48aiRYtcXFxa3TBp0qQRI0YcO3YsKSlp/vz5Kse7C3/yhpYKCwvHjx8vtcmZM2du3rxZ60TQvR49eowePbojO/Py8r799tsXXniBHoB71djY+M477zz33HN+fn45OTlvvfWWrS3vp3iQioqK0tPThRBhYWFWtk2ePFkIsXnzZrPZrFKyNvANAM1cu3YtJCTk6tWrQojQ0NDdu3fzExnyZWZmRkREdGTnjh07hBBRUVEKJ4IBZWZm7ty589NPP83IyOAXEihh69atzc3NDg4OY8eOtbJtwoQJQoi8vLzMzEy1orWOP3lDG9LfJYuKioQQo0eP/uKLL7p06aJ1KDxEGhoa9uzZ07dv3+eee07rLNCf559/vrCwsGfPnloHgTHV1tZKv/EOHjzY+pvjk08+KS0SEhJCQ0PVCNcGDghBG+vWrfv222+FEDY2Np9++imXREBl6enpFRUVs2fP1vxMdugUbRLK2bdv361bt4QQw4YNs77TxcXF2dlZCHH48OFLly6pEa4NFEpo4MKFC6tWrZLWL7300tChQ7XNg4dQUlKSEGLOnDlaBwGAu6WmpkqL/v37t7t5wIABQgiz2Wx5lSYolNBAXFxcY2OjtF6+fLm2YfAQKioqOnr06NNPP/3EE09onQUA7lZYWCgt2rq+uyXLnsuXLyuYqT0USqitsLBw//790vrZZ58dNWqUtnnwENq1a5fZbJ49e7bWQQDgbmazubi4WFrfU6G01FBNcFEO1JaQkGAymaR1y8OTJSUl3333XU1NTWBg4BNPPGFjY6NRQBjf3r17HR0dp0+frnUQALhbWVlZXV2dtO7evXu7+y17KJR4uBw6dEhajBgxIiQkRFqPHz/+5s2bQojz58+bzeaePXtGR0evWbOGCybwwGVnZxcWFkZERPTu3VvrLABwt5a9sCP3P7HsKS4ubm5u1uoGfPzJG6oqLCy0XIZmaZNCiGPHjp09e/bs2bPl5eXTpk2rrq6Oi4sLCQkpLS3VKCkM67PPPhNCvPbaa1oHAYBW3HehbGhoKCkpUSpWeyiUUNXRo0ct62eeecaytvyB29nZ+fPPP582bZoQ4sSJEzNmzFA5IYytoaEhOTn50Ucfff7557XOAgCtkP5eJ+nIn+laPua7srJSkUwdQKGEqqQ7mUvaej6enZ3d+vXrpe+irKystLQ0dbLhYXD48OGbN29OmzbNwcFB6ywA0ArpNkCS+vr6dvc3NDS0+lqVUSihqp9//tmy7tu3b1vbBg4cKD2fVAjx7rvvav6IUhjG3r17hRCRkZFaBwGA1nl4eFjW91Qoe/fu3atXL6VitYdCCVWVl5dLCycnJ+uHiF544QVp8dNPP2l4UgiMpKqq6quvvnJ3dw8KCtI6CwC0rmWhtFzubYWldA4aNEihSB1BoYSqLCWy3Qts+/XrZ1lfvHhRwUx4aBw6dKi+vn7GjBnclApAp+Xk5CQ9TVEIUVFR0e5+6SGN4j+bqPoolFCVl5eXtKiqqrK+k0KJB056Lhl/7wbQyXl6ekqLjtzqxFI6KZR4iLQslHfu3LGys2fPnpZ1R35FA6z75ZdfMjIyvLy8Ro4cqXUWALDGz89PWly7dq3dzZZzyQIDAxXM1B4KJVRlKZSive+TliVyyJAhCmbCwyEjI6O2tla6IxUAdGYLFy6UFufPn7e+02QySfetdHV1DQ8PVzxZ2yiUUJW3t7dlnZ+fb2Wn5VcuIYSPj4+CmfBwkO4/RaEE0Pn5+vqOGzdOCJGfn19bW2tlZ0FBgXRRzrx58zpyF3TlUCihqkGDBo0ZM0ZaJycnW9lpucGQg4PD4MGDFU8GQ2tqajp48KCnp2dAQIDWWQCgfUuWLBFCmEymrKwsK9tOnz4thLCzs5s/f75KydpAoYTaPvjgA2lx4MCBmpqatrZlZ2dLi4iICO5BDZlOnTpVWVmp7d+DAKDjwsLCpEtzUlJSrGzLyMgQQkyZMsXd3V2lZG2gUEJtoaGh0kHKmpqatg5S1tbWSt9CTk5O8fHxquaDEUnP/AwLC9M6CAB0iK2t7erVq4UQycnJbV2ZWlVVdfDgwS5dusTGxqqbrhUUSmggLi5OOugYExPT6i2B9u7dK10Dvnr1ajc3N7XzwXCOHj3661//uuXj44EH69KlS5b15cuXNUwCw5g1a1ZUVNTt27dXrlzZ6oZ169ZVVVXFx8f7+/urnO2/USihgXHjxmVmZjo7O1dVVb300kt33ZMyLS1t0aJFtra2y5YtW7RokVYhYRh37tw5derUb3/7W+kB8cAD98MPP7z33nuWf27atOnMmTMa5oFhJCQkhIeHb9++ff369Xd9KjExce3atcuWLYuOjtYk213stQ6Ah1RwcPB333334osv5uTk+Pj4LF261MfH5+LFi9nZ2SkpKf369duzZ8/YsWO1jgkjOHHiRGNjI49bxAN34sSJVatWXbhwoeVdKYQQ586dGzlypLu7+/Dhw//4xz+2vLsFcE8cHR1TUlJiY2NXrFiRmpr68ssvu7m5XblyJS0tLTc3d9u2bVFRUVpn/D8USmjGw8Pjf//3fw8dOpSamrp///5bt24NHTo0ICAgLS0tODjYyclJ64AwiKCgoOLiYldXV62DwGiGDRu2adOmrl27/upXv7K3t7e3t7ezszOZTE1NTY2NjXV1db/88kufPn20jgl9s7W1jYuLmz9/fkJCwldffXX9+nUPD4/nn3/+yJEj7T7EWE0USmjJ0dExIiIiIiJC6yAwMicnJ34/gRKcnZ0tz1wGFDVgwIANGzZoncIazqEEAACALBRKAAAAyEKhBAAAgCwUSgAAAMhCoQQAAIAsFEoAAADIQqEEAACALBRKAAAAyEKhBAAAgCwUSgAAAMhCoQQAAIAsFEoAAADIQqEEAACALPbqf8mY1Enqf1EY3zmtA8DwmDEojRmDbnGEEgAAALJQKAEAACALhRIAAACyaHAO5SfhGep/URjSj5fKLevh3q4aJoFRMWNQGjMGJah/vQpHKAEAACALhRIAAACyUCgBAAAgC4USAAAAslAoAQAAIAuFEgAAALJQKAEAACALhRIAAACyUCgBAAAgC4USAAAAslAoAQAAIAuFEgAAALJQKAEAACALhRIAAACyUCgBAAAgC4USAAAAslAoAQAAIIu91gGANp07d66qqiooKEjrIDCC0tLSH374oUePHsOGDXN2dtY6DowpOzv7/PnzU6ZM6du3r9ZZYDSVlZW5ubllZWWenp5DhgxxdHTUOtF/4AglOp2ysrIPP/xw+PDhAQEBx48f1zoO9K2srGz27Nlubm5ubm5vvPFGaGioi4uLq6vr22+/XVlZqXU6GMqOHTvGjRu3YMGC/Px8rbPAUIqLi+fNm+fq6vrss8/GxMQEBga6u7uvXbu2trZW62j/H4USnUhlZeXy5cu9vLzef/99FxeX77//fuXKlVqHgo7t3r172LBhX3/99caNG8vLy69fv3779u3vv/8+JCQkPj7+8ccf37dvn9YZYRArV66cN29eU1OT1kFgNN98842/v39RUdHJkydramqKiorq6uoSExN37twZFBRUWlqqdcD/Q6FEZ5GYmOjh4bF27VpnZ+fk5OTjx4/7+vpqHQo69sknn/zud7/r379/Tk7OzJkzXVxchBAODg4BAQH79+/fsmXLjRs3Xn/99WPHjmmdFPrW2Ng4e/bsjz76SOsgMKDMzMyJEycGBwcfOXIkMDBQ+qCdnd3UqVOzsrKqq6vHjBlTXl6ubUgJhRLaq66unjFjxptvvllZWRkTE5OXlzdt2jStQ0Hfzp49u3z5cltb26SkpFbPmIyOjg4NDTWZTDNnziwrK1M/IYzh559/njhx4t69e318fLTOAqO5evXqK6+84ujomJiYaG9/90Uvjz322JYtW4qLiyMjI00mkyYJW6JQQmMFBQUBAQHJyclCiOjo6I0bN3bt2lXrUNC9uXPn1tfXBwUFjR49uq090gkVFRUVBw8eVDEajOMf//iHr6/v6dOnExISvvrqK63jwGgWL15848aNuXPnSn9g+W+TJk0aMWLEsWPHkpKSVM723yiU0FJhYeH48eMLCgqEEDNnzty8ebPWiWAEFRUVZ86cEUJYP2siICDA1tZWCJGdna1SMhhFY2PjO++889xzz/n5+eXk5Lz11lvSLAEPSlFRUXp6uhAiLCzMyrbJkycLITZv3mw2m1VK1ga+AaCZa9euhYSEXL16VQgRGhq6e/dufiLjgTh58qS0cHV1tbKtW7duffr0EUJcvHhRjVgwkMzMzJ07d3766acZGRkDBw7UOg4MaOvWrc3NzQ4ODmPHjrWybcKECUKIvLy8zMxMtaK1jvtQQhvNzc2RkZFFRUVCiNGjR3/xxRddunTROhQMQjrmLdprimazuaKiQghBIcC9ev755wsLC3v27Kl1EBhTbW3tjh07hBCDBw+2/ub45JNPSouEhITQ0FA1wrWBA0LQxrp167799lshhI2NzaefftqjRw+tE8E4PD09pUV6evq///3vtrYVFhY2NjYKIYYMGaJSMhgIbRLK2bdv361bt4QQw4YNs77TxcVFuu7w8OHDly5dUiNcGyiU0MCFCxdWrVolrV966aWhQ4dqmwcGY/mVvbq6es2aNW1t27VrlxCiW7dub7zxhkrJAKADUlNTpUX//v3b3TxgwAAhhNlstrxKExRKaCAuLk46MiSEWL58ubZhYDxeXl6W09gTEhLee++9/z5dvbS0dPv27UKI2NhYd3d3tSMCQNsKCwulRVvXd7dk2XP58mUFM7WHQgm1FRYW7t+/X1o/++yzo0aN0jYPDOmjjz5ycHCQ1uvWrZs5c6blB7QQoq6uLjw8vKKiYs2aNfxKA6BTMZvNxcXF0vqeCmXLn3Lqo1BCbQkJCZZbsLZ8Ly8pKUlLS/vss8/y8vI0v/0B9G7EiBF/+9vfLJ0yOTnZ29t76tSpx48fP3XqVEBAQElJyRdffMGzPQF0NmVlZXV1ddK6e/fu7e637NG2UHKVN9R26NAhaTFixIiQkBBpPX78+Js3bwohzp8/bzabe/bsGR0dvWbNGjs7O82CQuemTp2akpLyu9/9rrKyUgjR3Nx84MCBAwcOCCFefPHFzz//vFu3blpnBIC7teyFHbn/iWVPcXFxc3OzVjfg4wglVFVYWGi5DM3SJoUQx44dO3v27NmzZ8vLy6dNm1ZdXR0XFxcSEtJ5HnsPPZoyZUpeXt6rr75618e//PLLV199ldtPAuiE7rtQNjQ0lJSUKBWrPRRKqOro0aOW9TPPPGNZ29jYSAtnZ+fPP/9cepb3iRMnZsyYoXJCGEzXrl19fHycnJwef/zxlh8/cOCAn5/fxo0btQoGAK2S/l4n6cif6Vo+5lv6g4wmKJRQlXQnc0lbD1m2s7Nbv3699F2UlZWVlpamTjYYz86dOz08PDZs2PCnP/0pPz8/Jydn7ty5jo6O0mfr6uqWLl36zjvvaBsSAFqSbgMkqa+vb3d/Q0NDq69VGYUSqvr5558t6759+7a1beDAgdLzSYUQ7777Ltfo4D4sXLjw97//vb29/enTp1977TUhxPDhw//yl78UFRW9+OKLlm0bNmxYsWKFdjEB4D94eHhY1vdUKHv37t2rVy+lYrWHQglVlZeXSwsnJyfLFbiteuGFF6TFTz/9pOFJIdCpJUuW/PnPf7axsUlPT2/501kI0adPn/T09E2bNllOPIqLizt79qwWMQHgbi1/ZFku97bCUjoHDRqkUKSOoFBCVZYS2bt3b+s7+/XrZ1lz8QTuyalTpzZv3iyECAkJeeqpp1rds3jx4o8//tjyT06mBNBJODk5SU9TFEJUVFS0u196SKP4zyaqPgolVOXl5SUtqqqqrO+kUOK+SY/AEULMmjXLyraYmBjLibyWu1kBgOY8PT2lRUdudWIpnRRKPERaFso7d+5Y2dmzZ0/LuiO/ogEW2dnZ0sL6Y+Lt7Oxef/11aX3z5s3a2lrFkwFAB/j5+UmLa9eutbvZci5ZYGCggpnaQ6GEqiyFUrT3fdKyRA4ZMkTBTDAcy/D06dPH+s6WjdPyfHkA0NbChQulxfnz563vNJlM0n0rXV1dw8PDFU/WNgolVOXt7W1Z5+fnW9lp+ZVLCOHj46NgJhhOjx49pIXlDkFtsdxiw9vbW8OrIwGgJV9f33Hjxgkh8vPzrf/xpKCgQLooZ968eR25C7pyKJRQ1aBBg8aMGSOtk5OTrey03GDIwcFh8ODBiieDgYwaNUpaWP+lRbS4MWpbd0UFAE0sWbJECGEymbKysqxsO336tBDCzs5u/vz5KiVrA4USavvggw+kxYEDB2pqatraZjkNLiIiwvoNhoC7WAplbm6u9Z0//vijtGj5IFAA0FxYWJh0aU5KSoqVbRkZGUKIKVOmuLu7q5SsDRRKqC00NFQ6SFlTU9PWQcra2lrpW8jJ4lWB3gAAFkRJREFUySk+Pl7VfNC/adOmde/eXQixdetWk8nU1rampqZdu3YJIYKDg+fMmaNePgBoj62t7erVq4UQycnJbV2ZWlVVdfDgwS5dusTGxqqbrhUUSmggLi5OOugYExPT6i2B9u7dK10Dvnr1ajc3N7XzQee8vLy2bNkihDh37py0aFV8fPy//vWvXr167dmzx9aWH4aQ5dKlS5b15cuXNUwCw5g1a1ZUVNTt27dXrlzZ6oZ169ZVVVXFx8f7+/urnO2/8TMUGhg3blxmZqazs3NVVdVLL7101z0p09LSFi1aZGtru2zZskWLFmkVEro2Z86cN954Qwjx9ttvv//++01NTS0/W19fv3z58hUrVvTr1++LL77Q8Om3MIYffvjhvffes/xz06ZNZ86c0TAPDCMhISE8PHz79u3r16+/61OJiYlr165dtmxZdHS0JtnuYq91ADykgoODv/vuuxdffDEnJ8fHx2fp0qU+Pj4XL17Mzs5OSUnp16/fnj17xo4dq3VM6FhSUlJERMSSJUs+/PDDv//97yEhIb6+vk1NTefOnTt69GhBQcGCBQv+8Ic/tLzjKXBPTpw4sWrVqgsXLrS8K4UQ4ty5cyNHjnR3dx8+fPgf//jHlne3AO6Jo6NjSkpKbGzsihUrUlNTX375ZTc3tytXrqSlpeXm5m7bti0qKkrrjP/Hxmw2K/Rfx6ROavXjn4RnKPQVoTv19fWHDh1KTU0tKCi4devW0KFDAwICAgICgoODnZyc2n35j5f+/w/x4d6uSiaFXjU2NqalpeXk5OTm5ubl5fXq1cvPz8/f3//pp5+2fttzCTMGK27cuFFSUtK1a9df/epX9vb29vb2dnZ2JpOpqampsbGxrq7ul19+8fb2ttzHqlXMGDriypUrCQkJZ86cuX79uoeHx5gxY9566y0rDzFWv4NxhBJacnR0jIiIiIiI0DoIDMvBwWH69OnTp0/XOggMyNnZ2fLMZUBRAwYM2LBhg9YprOEcSgAAAMhCoQQAAIAsFEoAAADIQqEEAACALBRKAAAAyEKhBAAAgCwUSgAAAMhCoQQAAIAsFEoAAADIQqEEAACALBRKAAAAyEKhBAAAgCwUSgAAAMhir/6XjEmdpP4XhfGd0zoADI8Zg9KYMegWRygBAAAgC4USAAAAslAoAQAAIIsG51B+Ep6h/heFIf14qdyyHu7tqmESGBUzBqUxY1CC+tercIQSAAAAslAoAQAAIAuFEgAAALJQKAEAACALhRIAAACyUCgBAAAgC4USAAAAslAoAQAAIAuFEgAAALJQKAEAACALhRIAAACyUCgBAAAgC4USAAAAslAoAQAAIAuFEgAAALJQKAEAACALhRIAAACy2GsdAAAA3ausrMzNzS0rK/P09BwyZIijo6PWiWA0nXzGKJRQ1cyZM//5z3/e66t+85vf7Nu3T4k8MB5mDCorLi7+6KOPdu/e7eDg4OLiUlJS8sgjjyxdunTRokXdunXTOh2MQBczRqGEqkpLS69cuXKvr/Lz81MiDAyJGYOavvnmm4iIiJEjR548eTIwMFAIYTKZvvzyy3fffTclJeXQoUN9+/bVOiP0TS8zxjmUUFVzc/O9vuTRRx9dsGCBEmFgSMwYVJOZmTlx4sTg4OAjR45I7/RCCDs7u6lTp2ZlZVVXV48ZM6a8vFzbkNA1Hc0YRyihqubm5v79+8fFxT366KPtbv7yyy+3bdsWFRXVo0cPFbLBGJgxqOPq1auvvPKKo6NjYmKivf3db6aPPfbYli1bnnvuucjIyK+//trOzk6TkNA1fc0YhRKqam5ujoyMnDVrVkc2x8XF2dravvnmm0qngpEwY1DH4sWLb9y4sWjRIhcXl1Y3TJo0acSIEceOHUtKSpo/f77K8WAA+pox/uQNVfXo0WP06NEd2ZmXl/ftt9++8MILAwcOVDoVjIQZgwqKiorS09OFEGFhYVa2TZ48WQixefNms9msUjIYhe5mjEIJVWVmZkZERHRk544dO4QQUVFRCieC0TBjUMHWrVubm5sdHBzGjh1rZduECROEEHl5eZmZmWpFg0HobsYolOiMGhoa9uzZ07dv3+eee07rLDAmZgz3rba2VvptZPDgwV26dLGy88knn5QWCQkJaiSDUehxxiiU6IzS09MrKipmz56t+VnGMCpmDPdt3759t27dEkIMGzbM+k4XFxdnZ2chxOHDhy9duqRGOBiCHmeMQonOKCkpSQgxZ84crYPAsJgx3LfU1FRp0b9//3Y3DxgwQAhhNpstrwLapccZo1Ci0ykqKjp69OjTTz/9xBNPaJ0FxsSMQY7CwkJp0da1ty1Z9ly+fFnBTDAWPc4YhRKdzq5du8xm8+zZs7UOAsNixnDfzGZzcXGxtL6nN3tLRQCs0+mMUSjR6ezdu9fR0XH69OlaB4FhMWO4b2VlZXV1ddK6e/fu7e637KFQooN0OmMUSnQu2dnZhYWFkydP7t27t9ZZYEzMGORo+Z5t/fLbu/YUFxffx3NB8RDS6YxRKNG5fPbZZ0KI1157TesgMCxmDHLc95t9Q0NDSUmJUrFgIDqdMQolOpGGhobk5ORHH330+eef1zoLjIkZg0w3b960rDtyz6mWj2CurKxUJBOMRaczRqFEJ3L48OGbN29OmzbNwcFB6ywwJmYMMkm3aJHU19e3u7+hoaHV1wJt0emMUSjRiezdu1cIERkZqXUQGBYzBpk8PDws63t6s+/du3evXr2UigUD0emMUSjRWVRVVX311Vfu7u5BQUFaZ4ExMWOQr+WbveVSXCsshWDQoEEKRYLB6HTGKJToLA4dOlRfXz9jxgwbGxuts8CYmDHI5+TkJD3pTghRUVHR7n7pAXriP1sCYIVOZ4xCic5CemYUf4uEcpgxPBCenp7SorS0tN3NlkJAoUTH6XHGKJToFH755ZeMjAwvL6+RI0dqnQXGxIzhQfHz85MW165da3dzeXm5tAgMDFQwE4xFjzNGoUSnkJGRUVtbO23aNK2DwLCYMTwoCxculBbnz5+3vtNkMkn3FHR1dQ0PD1c8GYxCjzNGoUSnkJaWJoTgzR7KYcbwoPj6+o4bN04IkZ+fX1tba2VnQUGBdMHEvHnzOnKHakCixxmjUEJ7TU1NBw8e9PT0DAgI0DoLjIkZw4O1ZMkSIYTJZMrKyrKy7fTp00IIOzu7+fPnq5QMRqG7GaNQQnunTp2qrKzk70FQDjOGByssLEy6bCIlJcXKtoyMDCHElClT3N3dVUoGo9DdjFEoob2jR48KIcLCwrQOAsNixvBg2drarl69WgiRnJzc1o1dqqqqDh482KVLl9jYWHXTwQh0N2MUSmjv6NGjv/71r5955hmtg8CwmDE8cLNmzYqKirp9+/bKlStb3bBu3bqqqqr4+Hh/f3+Vs8EY9DVj9u1vAZR0586dU6dOhYeH29nZaZ0FxsSMQSEJCQk3btzYvn27l5fXO++80/JTiYmJa9euXbZsWXR0tFbxYAA6mjEKJTR24sSJxsZGHoUH5TBjUIijo2NKSkpsbOyKFStSU1NffvllNze3K1eupKWl5ebmbtu2LSoqSuuM0DcdzRiFEhoLCgoqLi52dXXVOggMixmDcmxtbePi4ubPn5+QkPDVV19dv37dw8Pj+eefP3LkSO/evbVOByPQy4xRKKExJycnJycnrVPAyJgxKG3AgAEbNmzQOgWMrPPPGBflAAAAQBYKJQAAAGShUAIAAEAWCiUAAABkoVACAABAFgolAAAAZKFQAgAAQBYKJQAAAGShUAIAAEAWCiUAAABkoVACAABAFgolAAAAZKFQAgAAQBZ79b9kTOok9b8ojO+c1gFgeMwYlMaMQbc4QgkAAABZKJQAAACQhUIJAAAAWTQ4h/KT8Az1vygM6cdL5Zb1cG9XDZPAqJgxKI0ZgxLUv16FI5QAAACQhUIJAAAAWSiUAAAAkIVCCQAAAFkolAAAAJCFQgkAAABZKJQAAACQhUIJAAAAWSiUAAAAkIVCCQAAAFkolAAAAJCFQgkAAABZKJQAAACQhUIJAAAAWSiUAAAAkIVCCQAAAFkolAAAAJDFXusAgBBClJaW/vDDDz169Bg2bJizs7PWcWBAzBgUVVlZmZubW1ZW5unpOWTIEEdHR60TwWg6+YxxhBJaKisrmz17tpubm5ub2xtvvBEaGuri4uLq6vr2229XVlZqnQ5GwIxBacXFxfPmzXN1dX322WdjYmICAwPd3d3Xrl1bW1urdTQYhC5mjEIJzezevXvYsGFff/31xo0by8vLr1+/fvv27e+//z4kJCQ+Pv7xxx/ft2+f1hmhb8wYlPbNN9/4+/sXFRWdPHmypqamqKiorq4uMTFx586dQUFBpaWlWgeE7ullxiiU0MYnn3zyu9/9rn///jk5OTNnznRxcRFCODg4BAQE7N+/f8uWLTdu3Hj99dePHTumdVLoFTMGpWVmZk6cODE4OPjIkSOBgYHSB+3s7KZOnZqVlVVdXT1mzJjy8nJtQ0LXdDRjFEpo4OzZs8uXL7e1tU1KSmr1bLbo6OjQ0FCTyTRz5syysjL1E0LvmDEo7erVq6+88oqjo2NiYqK9/d0XJDz22GNbtmwpLi6OjIw0mUyaJITe6WvGKJTQwNy5c+vr64OCgkaPHt3WnpUrVwohKioqDh48qGI0GAQzBqUtXrz4xo0bc+fOlQ5+/7dJkyaNGDHi2LFjSUlJKmeDMehrxiiUUFtFRcWZM2eEEL6+vla2BQQE2NraCiGys7NVSgajYMagtKKiovT0dCFEWFiYlW2TJ08WQmzevNlsNquUDEahuxmjUEJtJ0+elBaurq5WtnXr1q1Pnz5CiIsXL6oRCwbCjEFpW7dubW5udnBwGDt2rJVtEyZMEELk5eVlZmaqFQ0GobsZo1BCbQUFBdLC+ru42WyuqKgQQgwcOFCNWDAQZgyKqq2t3bFjhxBi8ODBXbp0sbLzySeflBYJCQlqJINR6HHGKJRQm6enp7RIT0//97//3da2wsLCxsZGIcSQIUNUSgajYMagqH379t26dUsIMWzYMOs7XVxcpGvCDh8+fOnSJTXCwRD0OGMUSqjN8utUdXX1mjVr2tq2a9cuIUS3bt3eeOMNlZLBKJgxKCo1NVVa9O/fv93NAwYMEEKYzWbLq4B26XHGKJRQm5eXl+UU44SEhPfee++/TyUuLS3dvn27ECI2Ntbd3V3tiNA5ZgyKKiwslBZtXXvbkmXP5cuXFcwEY9HjjFEooYGPPvrIwcFBWq9bt27mzJmWbx4hRF1dXXh4eEVFxZo1a5YvX65RRugbMwaFmM3m4uJiaX1Pb/YtJxCwQqczRqGEBkaMGPG3v/3N8n6fnJzs7e09derU48ePnzp1KiAgoKSk5IsvvpBuEwjcB2YMCikrK6urq5PW3bt3b3e/ZQ+FEh2k0xmjUEIbU6dOTUlJeeSRR6R/Njc3HzhwYPz48U899dTjjz+el5cXHh6ubULoHTMGJbR8z7Z++e1de4qLi5ubm5WKBQPR6YxRKKGZKVOm5OXlvfrqq3d9/Msvv3z11Ve5NSDkY8bwwN33m31DQ0NJSYlSsWAgOp0xCiW01LVrVx8fHycnp8cff7zlxw8cOODn57dx40atgsEwmDE8WDdv3rSs7ezs2t3f8hHMlZWVimSCseh0xiiU0MzOnTs9PDw2bNjwpz/9KT8/PycnZ+7cuY6OjtJn6+rqli5d+s4772gbErrGjOGBk27RIqmvr293f0NDQ6uvBdqi0xmjUEIbCxcu/P3vf29vb3/69OnXXntNCDF8+PC//OUvRUVFL774omXbhg0bVqxYoV1M6BgzBiV4eHhY1vf0Zt+7d+9evXopFQsGotMZo1BCA0uWLPnzn/9sY2OTnp7e8jtHCNGnT5/09PRNmzZZTgqJi4s7e/asFjGhY8wYFNJynCyX4lphKQSDBg1SKBIMRqczRqGE2k6dOrV582YhREhIyFNPPdXqnsWLF3/88ceWf3KiG+4JMwblODk5SU+6E0JIz4K3TnqAnvjPlgBYodMZo1BCbdLjSYQQs2bNsrItJiZm9OjR0vrQoUOKx4KBMGNQlOVh8aWlpe1uthQCCiU6To8zRqGE2rKzs6XF0KFDrWyzs7N7/fXXpfXNmzdra2sVTwajYMagKD8/P2lx7dq1djeXl5dLi8DAQAUzwVj0OGMUSqjN8rtUnz59rO9s2QYaGxsVzARjYcagqIULF0qL8+fPW99pMpmkewq6urpyI310nB5njEIJtfXo0UNaWO7e0hbL7Q+8vb25OhIdx4xBUb6+vuPGjRNC5OfnWz+wXVBQIF0wMW/evI7coRqQ6HHGKJRQ26hRo6RFfn6+9Z1FRUXSwnKiG9ARzBiUtmTJEiGEyWTKysqysu306dNCCDs7u/nz56uUDEahuxmjUEJtljf73Nxc6zt//PFHaRESEqJsJhgLMwalhYWFSZdNpKSkWNmWkZEhhJgyZYq7u7tKyWAUupsxCiXUNm3atO7duwshtm7dajKZ2trW1NS0a9cuIURwcPCcOXPUywf9Y8agNFtb29WrVwshkpOT27qxS1VV1cGDB7t06RIbG6tuOhiB7maMQgm1eXl5bdmyRQhx7tw5adGq+Pj4f/3rX7169dqzZ4+tLYOKe8CMQQWzZs2Kioq6ffv2ypUrW92wbt26qqqq+Ph4f39/lbPBGPQ1Y3YffPCBQv/1P3I/a/Xjk4ZauzMcHgb+/v4lJSVnzpw5evRoU1NTUFBQy7fz+vr6lStXfvjhh25ubp9//rmV75OKmzWWteuvuysbGrrCjEEFoaGhFy5c+Oyzz7p37/7MM8+0/FRiYuJ77723bNmydh/syYzBivueMfU7mI3ZbFbov45JndTqxz8Jz1DoK0JfMjIylixZcvHixaFDh4aEhPj6+jY1NZ07d+7o0aMFBQULFiz4wx/+0LNnTyv/w4+Xyi3r4d6uykeGzjBjUFpzc3NsbOyGDRtGjhz58ssvu7m5XblyJS0tLTc3d/369VFRUe3+D8wYrLu/GVO/g1EooaXGxsa0tLScnJzc3Ny8vLxevXr5+fn5+/s//fTT1m9JLeEHMdrFjEEFV65cSUhIOHPmzPXr1z08PMaMGfPWW2/17t27I69lxtAR9zpjFErgHvCDGEpjxqA0ZgxKUL+DcR46AAAAZKFQAgAAQBYKJQAAAGShUAIAAEAWCiUAAABkoVACAABAFgolAAAAZKFQAgAAQBYKJQAAAGSxV/9LtnX3dkCWc1oHgOExY1AaMwbd4gglAAAAZKFQAgAAQBYKJQAAAGShUAIAAEAWCiUAAABkoVACAABAFgolAAAAZLExm81aZwAAAICOcYQSAAAAslAoAQAAIAuFEgAAALJQKAEAACALhRIAAACyUCgBAAAgC4USAAAAslAoAQAAIAuFEgAAALJQKAEAACALhRIAAACyUCgBAAAgC4USAAAAslAoAQAAIAuFEgAAALJQKAEAACALhRIAAACyUCgBAAAgC4USAAAAslAoAQAAIAuFEgAAALJQKAEAACALhRIAAACyUCgBAAAgC4USAAAAslAoAQAAIAuFEgAAALJQKAEAACALhRIAAACy/D/0ng4seU6CCgAAAABJRU5ErkJggg==;direction=north;" vertex="1" parent="dYbXDlQR-0rIkNIVQ8Nb-12">
          <mxGeometry width="741.82" height="400" as="geometry" />
        </mxCell>
        <mxCell id="dYbXDlQR-0rIkNIVQ8Nb-10" value="" style="shape=image;verticalLabelPosition=bottom;labelBackgroundColor=#ffffff;verticalAlign=top;aspect=fixed;imageAspect=0;image=data:image/jpeg,/9j/4AAQSkZJRgABAgAAAQABAAD/2wBDAAgGBgcGBQgHBwcJCQgKDBQNDAsLDBkSEw8UHRofHh0aHBwgJC4nICIsIxwcKDcpLDAxNDQ0Hyc5PTgyPC4zNDL/2wBDAQkJCQwLDBgNDRgyIRwhMjIyMjIyMjIyMjIyMjIyMjIyMjIyMjIyMjIyMjIyMjIyMjIyMjIyMjIyMjIyMjIyMjL/wAARCALCAq4DASIAAhEBAxEB/8QAHwAAAQUBAQEBAQEAAAAAAAAAAAECAwQFBgcICQoL/8QAtRAAAgEDAwIEAwUFBAQAAAF9AQIDAAQRBRIhMUEGE1FhByJxFDKBkaEII0KxwRVS0fAkM2JyggkKFhcYGRolJicoKSo0NTY3ODk6Q0RFRkdISUpTVFVWV1hZWmNkZWZnaGlqc3R1dnd4eXqDhIWGh4iJipKTlJWWl5iZmqKjpKWmp6ipqrKztLW2t7i5usLDxMXGx8jJytLT1NXW19jZ2uHi4+Tl5ufo6erx8vP09fb3+Pn6/8QAHwEAAwEBAQEBAQEBAQAAAAAAAAECAwQFBgcICQoL/8QAtREAAgECBAQDBAcFBAQAAQJ3AAECAxEEBSExBhJBUQdhcRMiMoEIFEKRobHBCSMzUvAVYnLRChYkNOEl8RcYGRomJygpKjU2Nzg5OkNERUZHSElKU1RVVldYWVpjZGVmZ2hpanN0dXZ3eHl6goOEhYaHiImKkpOUlZaXmJmaoqOkpaanqKmqsrO0tba3uLm6wsPExcbHyMnK0tPU1dbX2Nna4uPk5ebn6Onq8vP09fb3+Pn6/9oADAMBAAIRAxEAPwD3+iiigAooooAKKKKACiiigAooooAKKKKACiiigAooooAKKKKACiiigAooooAKKKKACiiigAooooAKKKKACiiigAooooAKKKKACiiigAooooAKKKKACiobi6gtImknkVEXqTXDav8AF7w1pzmG3uGurn/nmI3H67cUAd/RXlP/AAnnjTXONE8KFU/56m8Tn8GHsaBZfFO+5Op/2eD/AA+TDJigD1XcPUUbl/vD868sHgTx3c/NceNiren2CP8Axo/4Vt4vTlfHRJ/7B6f40Aep5B70teVHwj8RbHm18YeZ7fYYh/M0nnfFPTuTb/2mB/tQxZ/z/SgD1aivKl+LGo6XhPEHh1rLHWQXAk/RV+ldbofxB8OeICqWN/ukP8LRsvr6gelAHUUUisrDKkEexpaACiiigAooooAKKKKACiiigAooooAKKKKACiiigAooooAKKKKACiiigAooooAKKKKACiiigAooooAKKKKACiiigAooooAKKKKACiiigAooooAKKKKACiiigAooooAKKKKACiiigAooooAKKKKACiiigAooooAKKKKACiiigAooooAKKKKACiiigAooooAKKKy9e16x8O6ZJf38ojiTHYnPIHb6igC/cXEVrC0szhEXqTXmmqfE+51S+fS/B9gdQn6Gbf5ezjPR1weh/Ksq30/Xvitc/a9RZrHw+D+6t/lbzOx5GGHzLn8a9U0jQ9P0KzS00+3EUS9Bkn36n60AecQfC7VPEMq3ni7V2uSeTbCIJt7feRh6Cu+0fwnougoE0+yWID1Yt/Mn1raooAQKq9AB9BS0UUAFFFFABRRRQAxoo3BDIpz6iuQ134ZeG9dDPNZ7Lj+GRZHGOnYEeldlRQB5FLoXjnwO3maNeHVdPHW2KRxYH+8xJ6kn8K6fwp8SdL8RyfZJf9E1EcNbtuOOv8WAOgzXbda5Dxd8PtL8UxGRl8i+XmO4XPy9OwIB4GKAOvByMiivJ9C8Y6r4Q1VNB8XktG5xBe4HzcEn5UBx1A5NerI6uoZSCp5BFADqKKKACiiigAooooAKKKKACiiigAooooAKKKKACiiigAooooAKKKKACiiigAooooAKKKKACiiigAooooAKKKKACiiigAooooAKKKKACiiigAooooAKKKKACiiigAooooAKKKKACiiigAooooAKKKKACiiigAooooAKKKKACiiigAooooAKKKKAILu7hsrWS4nfbGgyTXkWkWVx8VPEh1jUcjQbU/6NB/z0yCG5GCMMoPNanxW1C41CfTvCVg+JdRLeZgfd2bXHX/GvQdH0u30bS4bG1QJFGOB9Tk/zoAuRxpDGERQqgYAFPoooAKKKKACiiigAJx1pquj52srY64Oa43xNaeJ9XvpLGxn/ALP09V+a42pJv4z908jkY/GvP/2enla98TCWRnIaAZP/AAOgD3SiiigAooooAKKKKAMbxL4bsfE+kyWN7GGVhweQQQQexHoK4TwHrt94e1yTwbrshaRD/okpAG/ILt06YyOpr1SvPPiv4fkvdETWLL5dQsDmIgcncyg98dKAPQ6KxPCWuR+IvDdpqcfSUEfkSP6Vt0AFFFFABRRRQAUUUUAFFFFABRRRQAUUUUAFFFFABRRRQAUUUUAFFFFABRRRQAUUUUAFFFFABRRRQAUUUUAFFFFABRRRQAUUUUAFFFFABRRRQAUUUUAFFFFABRRRQAUUUUAFFFFABRRRQAUUUUAFFFFABRRRQAUUUUAFFFFABRRRQAUdKKRvun6UAeU6Kv8AbPxr1i6PKad5Xl+2+Ig/yr1evK/h8fJ+JfjGKT77G2x/3wa9UoAKKKKACiiigAooooAjn/1En+6f5V4f+z1/yEPFH+9D/wCz17hP/qJP90/yrw/9nr/kIeKP96H/ANnoA90ooooAKKKKACiiigAqK5iWa2kjcZUqeKlpr/6tvoaAPL/g27WsGqaMTxYsmP8AgZZq9Sryv4WfP4t8Wyr9xzb7fwVq9UoAKKKKACiiigAooooAKKKKACiiigAooooAKKKKACiiigAooooAKKKKACiiigAooooAKKKKACiiigAooooAKKKKACiiigAooooAKKKKACiiigAooooAKKKKACiiigAooooAKKKKACiiigAooooAKKKKACiiigAooooAKKKKACiiigAooooA8nvGPhz41RXMvyW+r5+b/rnFj+Z9q9YHIzXD/E3wvL4g0Dz7If8AEwteYCO2WXd1OOgq74C8WReKtAjmJ23ceRNH3Xkgdh6UAdXRRRQAUUUUAFFFFAHM+JNE8R6pKh0fxN/ZUYBDp9kSXdnHc9O/51xPh34ReIfCstzJpHjb7OboqZv+JerbsZx1Y46mvXKKAILOKeG1SO5n8+Ufek27d34VPRRQAUUUUAFFFFABWdrupw6Po1xfTnEca8/icf1rRryX4h6jN4r1628FaY+Q5P2xgPu4CuvXHoehoA0vg3p00PhY6lcDE16xLf8AAXYCvSKrWFlDp9lFawJtjjGAKs0AFFFFABRRRQAUUUUAFFFFABRRRQAUUUUAFFFFABRRRQAUUUUAFFFFABRRRQAUUUUAFFFFABRRRQAUUUUAFFFFABRRRQAUUUUAFFFFABRRRQAUUUUAFFFFABRRRQAUUUUAFFFFABRRRQAUUUUAFFFFABRRRQAUUUUAFFFFABRRRQAUUUUAIQCMHpXk3ivQtR8Fa83ivQIzJbSEfbLYEDOAFXk59SeBXrVIyq6lWAIPUGgDF8NeJ9P8Uaal5Yyhgeq4II5I7gehrbry3xB8PtQ0bUX13wbKYLrq9tgEScAdXOBgEnpV/wANfFKyv7j+ztaiOnakvBiJL56nqFx0x+dAHodFNR1dcowI9jTqACiiigAooooAKKKKACiiigAoqnqOq2WlWrXF5Osca9T1/QV5hqPjzWfGVw+meDLdvJ6PfZA29/uOB6EUAbPjrx6dNkGiaGPtGszcKo42dCeSMfdJq/4B8Fr4YsXnun87UrnBnlIxnBOOMkdD2p/gzwDY+FYmmZvtOoS8y3BBG7rjjJA4OK7CgAooooAKKKKACiiigAooooAKKKKACiiigAooooAKKKKACiiigAooooAKKKKACiiigAooooAKKKKACiiigAooooAKKKKACiiigAooooAKKKKACiiigAooooAKKKKACiiigAooooAKKKKACiiigAooooAKKKKACiiigAooooAKKKKACiiigAooooAKKKKACsDxF4O0bxPB5eo2okI+6wZlx09CPQVv0UAeSHwf408HnPhvVDe2n/PmYkT/AMeYk9yang+LkumyCDxPo7acw6uJfNz/AN8r9Pzr1Ss7WZrKz0ue5vVTyUHzEj8v1oAydM+IPhnVwPseoh8+sbr/ADFdFHcwSKGSVCD/ALVeKeBPAeneNLa81zW7MvBdEfZoxIy7NpKtypGc4HWt9/gtpkLE6fePaj0wz/zagD0/zEPR1/Ojev8AeH515d/wqrW4+Lfxe0Q9PsYP82pP+FX+Jzw3jgken9nr/wDFUAepGRB1dfzqrdapZWSb7i4RV+ua84/4VJfzf8fniZpx6fZgv8mqxa/BTw0r775HumPU+ZIv8moA0tV+LXhPTAUN+ZJh0jEL8/jtrn38deL/ABP+68OaCYYj/wAvRuEP/jrAehFZ+g6daeCvifLpFxCDZX2Psjsfu7YyW9T1PevZ1VVHyqAPYUAeX2Hwqn1S6W/8X6k2pS9fK8vytvbqjc9vyr0mx0+1022S3tIhHEnQDmrNFABRRRQAUUUUAFFFFABRRRQAUUUUAFFFFABRRRQAUUUUAFFFFABRRRQAUUUUAFFFFABRRRQAUUUUAFFFFABRRRQAUUUUAFFFFABRRRQAUUUUAFFFFABRRRQAUUUUAFFFFABRRRQAUUUUAFFFFABRRRQAUUUUAFFFFABRRRQAUUUUAFFFFABRRRQAUUUUAFFFFABRRRQAV5X8UdQn1vULHwbp7/vb0t5+P4dm1x1+h716TqeoQaXp815cPsjjHJ/QV5t8LrCfW9RvvGWoJmS9K+Rn+HZuQ9PoO1AHpOmafBpenQ2dumyOMcD9TVuiigAooooAKKKKAOB+Knh2XVvD4v7PjULI5hI/2mXd3x0FbvgrxHF4n8NW2oIfmYEMvphiPQelb7qHQqehGK8k8OsfAnxJudCc407USDansNiFm9T1bvQB67RR1ooAKKKKACiiigAooooAKKKKACiiigAooooAKKKKACiiigAooooAKKKKACiiigAooooAKKKKACiiigAooooAKKKKACiiigAooooAKKKKACiiigAooooAKKKKACiiigAooooAKKKKACiiigAooooAKKKKACiiigAooooAKKKKACiiigAooooAKKKKACiiigAooooAKKKqanqEGl6fNeXD7Ioxyf0FAHm3xR1CfW9QsfBunv8Avb0t5+B93Ztcdfoe9ek6Zp8Gl6dDZ26bI4xwP1NebfC7T59b1G+8ZagmZL0r5Gf4dm5D0+g7V6pQAUUUUAFFFFABRRRQAVwPxU8Oy6t4fF/Z8ahZHMJH+0y7u+Ogrvqa6h0KnoRigDA8F+I4vE/hq21BD8zAhl9MMR6D0roa8i8OsfAnxJudCc40/USDbHsNiFm9T1PevXe1ABRRRQAUUUUAFFFFABRRRQAUUUUAFFFFABRRRQAUUUUAFFFFABRRRQAUUUUAFFFFABRRRQAUUUUAFFFFABRRRQAUUUUAFFFFABRRRQAUUUUAFFFFABRRRQAUUUUAFFFFABRRRQAUUUUAFFFFABRRRQAUUUUAFFFFABRRRQAUUUUAFFFFABRRRQAUUUUAFFFFABXlfxR1CfW9QsfBunv+9vS3n4/h2bXHX6HvXpOp6hBpenzXlw+yOMcn9BXm3wusJ9b1G+8ZagmZL0r5Gf4dm5D0+g7UAek6Zp8Gl6dDZ26bI4xwP1NW6KKACiiigAooooAKKKKACiiigDgfip4dl1bw+L+z41CyOYSP9pl3d8dBW74K8RxeJ/DVtqCH5mBDL6YYj0HpW+6h0ZT0IxXknh1j4E+JNzoTnGnaiQbU9hsQs3qerd6APXaKKKACiiigAooooAKKKKACiiigAooooAKKKKACiiigAooooAKKKKACiiigAooooAKKKKACiiigAooooAKKKKACiiigAooooAKKKKACiiigAooooAKKKKACiiigAooooAKKKKACiiigAooooAKKKKACiiigAooooAKKKKACiiigAooooAKKKKACiiigAooqpqeoQaXp815cPsjjHJ/QUAebfFHUJ9b1Cx8G6e+Zb0t5+B93Ztcdfoe9ek6Zp8Gl6dDZ26bI4xwP1NebfC6wn1vUb7xlqCZkvSvkZ/h2bkPT6DtXqlABRRRQAUUUUAFFFFABRRRQAUUUUAFcD8VPDsur+Hxf2fGoWRzCR/tMu7vjoK76muodCp5BGKAMDwV4ji8T+GrbUEPzMCGX0wxHoPSuhryLw6x8CfEm50JzjTtRINqew2IWb1PU969d60AFFFFABRRRQAUUUUAFFFFABRRRQAUUUUAFFFFABRRRQAUUUUAFFFFABRRRQAUUUUAFFFFABRRRQAUUUUAFFFFABRRRQAUUUUAFFFFABRRRQAUUUUAFFFFABRRRQAUUUUAFFFFABRRRQAUUUUAFFFFABRRRQAUUUUAFFFFABRRRQAUUUUAFFFFABXlfxR1CfW9QsfBunv8Avb0t5+P4dm1x1+h716TqeoQaXp815cPsjjHJ/QV5t8LrCfW9RvvGWoJmS9K+Rn+HZuQ9PoO1AHpOmafBpenQ2dumyOMcD9TVuiigAooooAKKKKACiiigAooooAKKKKACiiigDgfip4dl1bw+L+z41CyOYSP9pl3d8dBW74K8RxeJ/DVtqCH5mBDL6YYj0HpW+6h0KnoRivJPDrHwJ8SbnQnONO1Eg2p7DYhZvU9W70Aeu0UdaKACiiigAooooAKKKKACiiigAooooAKKKKACiiigAooooAKKKKACiiigAooooAKKKKACiiigAooooAKKKKACiiigAooooAKKKKACiiigAooooAKKKKACiiigAooooAKKKKACiiigAooooAKKKKACiiigAooooAKKhuLqC0iaSeRURepNcNq/xe8Nac5ht7hrq5/55iNx+u3FAHf0V5T/AMJ5401zjRPChVP+epvE5/Bh7GgWXxTvuTqf9ng/w+TDJigD1XcPUUbl/vD868sHgTx3c/NceNiren2CP/Gj/hW3i9OV8dEn/sHp/jQB6nkHvS15UfCPxFsebXxh5nt9hiH8zTTL8VNOB/cf2nj/AGoYs/5/pQA/4o6hPreoWPg3T3/e3pbz8D7uza46/Q969J0zT4NL06Gzt02Rxjgfqa8H0PxDqHhrxbqGu+LNJZbi42bX80N5eFKnhAc5BFet6H8QfDniAqljf7pD/C0bL6+oHpQB1FFIrKwypBHsaWgAooooAKKKKACiiigAooooAKKKKACiiigArgfip4dl1bw+L+z41CyOYSP9pl3d8dBXcXF1BaRNJPIqIvUmuE1r4t+GbLdbQTm6uCMeWI3H67cUAdB4L8RxeJ/DVtqCH5mBDL6YYj0HpXQ18+eEp/Gmn3+oP4d0ItYXJQxobhB5eM5+9yckmutFl8U77k6n/Z4P8PkwyYoA9V3D1FG5f7w/OvLB4E8d3PzXHjYq3p9gj/xo/wCFbeL05Xx0Sf8AsHp/jQB6nkHvS15UfCPxFsebXxh5nt9hiH8zSed8U9O5Nv8A2mB/tQxZ/wA/0oA9WorypfixqOl4TxB4dayx1kFwJP0VfpXW6H8QfDniAqljf7pD/C0bL6+oHpQB1FFIrKwypBHsaWgAooooAKKKKACiiigAooooAKKKKACiiigAooooAKKKKACiiigAooooAKKKKACiiigAooooAKKKKACiiigAooooAKKKKACiiigAooooAKKKKACiiigAooooAKKKKACiisvXtesfDumSX9/KI4kx2JzyB2+ooAv3FxFawtLM4RF6k15pqnxPudUvn0vwfYHUJ+hm3+Xs4z0dcHofyrKt9P174rXP2vUWax8Pg/urf5W8zseRhh8y5/GvVNI0PT9Cs0tNPtxFEvQZJ9+p+tAHnEHwu1TxDKt54u1drknk2wiCbe33kYegrvtH8J6LoKBNPsliA9WLfzJ9a2qKAECqvQAfQUtFFABRRRQAUUUUAMaKNwQyKc+orkNd+GXhvXQzzWey4/hkWRxjp2BHpXZUUAeRS6F458Dt5mjXh1XTx1tikcWB/vMSepJ/Cun8KfEnS/Ecn2SX/RNRHDW7bjjr/FgDoM123WuQ8XfD7S/FMRkZfIvl5juFz8vTsCAeBigDrwcjIoryfQvGOq+ENVTQfF5LRucQXuB83BJ+VAcdQOTXqyOrqGUgqeQRQA6iiigAooooAKKKKACiisvXtesfDumSX9/KI4kx2JzyB2+ooAv3FxFawtLM4RF6k15pqnxPudUvn0vwfYHUJ+hm3+Xs4z0dcHofyrKt9P174rXP2vUWax8Pg/urf5W8zseRhh8y5/GvVNI0PT9Cs0tNPtxFEvQZJ9+p+tAHnEHwu1TxDKt54u1drknk2wiCbe33kYegrvtH8J6LoKBNPsliA9WLfzJ9a2qKAECqvQAfQUtFFABRRRQAUUUUAMaKNwQyKc+orkNd+GXhvXQzzWey4/hkWRxjp2BHpXZUUAeRS6F458Dt5mjXh1XTx1tikcWB/vMSepJ/Cun8KfEnS/Ecn2SX/RNRHDW7bjjr/FgDoM123WuQ8XfD7S/FMRkZfIvl5juFz8vTsCAeBigDrwcjIoryfQvGOq+ENVTQfF5LRucQXuB83BJ+VAcdQOTXqyOrqGUgqeQRQA6iiigAooooAKKKKACiiigAooooAKKKKACiiigAooooAKKKKACiiigAooooAKKKKACiiigAooooAKKKKACiiigAooooAKKKKACiiigAooooAKKKKACiiigCC7u4bK1kuJ32xoMk15FpFlcfFTxIdY1HI0G1P+jQf89MghuRgjDKDzWp8VtQuNQn07wlYPiXUS3mYH3dm1x1/wAa9B0fS7fRtLhsbVAkUY4H1OT/ADoAuRxpDGERQqgYAFPoooAKKKKACiikbOw7euOKAEaRF+86j6mkEsbH5XU/Q15dYfD/AFXxDqt5c+MHaS3yvkwghe2DyhHoKyPH/g1fAmhSeIfC87WRtCN6HMm7cwXqxPqe1AHtdFc54E8QSeKPB1jq8q7XnDZH0Yj0HpXR0AFFFFABRRRQBjeJfDdj4n0mSxvYwysODyCCCD2I9BXCeA9dvvD2uSeDddkLSIf9ElIA35BdunTGR1NeqV558V/D8l7oiaxZfLqFgcxEDk7mUHvjpQB6HRWJ4S1yPxF4btNTj6Sgj8iR/StugAooooAKKKKAILu7hsrWS4nfbGgyTXkWkWVx8VPEh1jUcjQbU/6NB/z0yCG5GCMMoPNanxW1C41CfTvCVg+JdRLeZgfd2bXHX/GvQdH0u30bS4bG1QJFGOB9Tk/zoAuRxpDGERQqgYAFPoooAKKKKACiiigBjSxqcNIoPoTSefD/AM9U/wC+hXh/izwBJ49+JerQLqrWIt/L5Ee/OYx7j0qBf2cJgwP/AAlknB/59T/8XQB70CCMggj1FLWboGlHRNFt9PM5nMQP7wjGcknp+NaVABRRRQAUUUUAY3iXw3Y+J9Jksb2MMrDg8gggg9iPQVwngPXb7w9rkng3XZC0iH/RJSAN+QXbp0xkdTXqleefFfw/Je6ImsWXy6hYHMRA5O5lB746UAeh0VieEtcj8ReG7TU4+koI/Ikf0rboAKKKKACiiigAooooAKKKKACiiigAooooAKKKKACiiigAooooAKKKKACiiigAooooAKKKKACiiigAooooAKKKKACiiigAooooAKKKKACiiigAo6UUjfdP0oA8p0Vf7Z+NesXR5TTvK8v23xEH+Ver15X8Pj5PxL8YxSffY22P++DXqlABRRRQAUUUUAFFFFABXlHxM1CXxXKvgvR/3ss5/wBKI48vG1164znB6Gt7xp4snguI9A0RlfVbjIByB5eMMfvDByM960PCnhvT/CmlsqSxy3TgtNMWwXIJI4ycdcUAavh3RYPD2hW2mW/+qhBx+JJP861K57wf4n/4SvRl1D7L9n3EjZv3dGI64HpXQ0AFFFFABRRRQAVFcxLNbSRuMqVPFS01/wDVt9DQB5f8G3a1g1TRieLFkx/wMs1epV5X8LPn8W+LZV+45t9v4K1eqUAFFFFABR0opG+6fpQB5Toq/wBs/GvWLo8pp3leX7b4iD/KvV68r+Hx8n4l+MYpPvsbbH/fBr1SgAooooAKKKKACiignAyaAPNNR8P+Kz471O90l/sdtdeXtusI+NqY+6T65FUfEFx4/wDBdk2qz6z/AGzZxY81Ps8cOMkAc8nqf0r0XTfEOl6vd3VrZXIkmtdvmrtI27unXr0rO8eXdvZ+Dr+W5YCMBc5/3hQBY8I+J7bxZoMGp2w2iTOUyTjBI9B6Vu15J8BLaeLwpLPICIpT+7z7O+a9boAKKKKACiiigAqK5iWa2kjcZUqeKlpr/wCrb6GgDy/4Nu1rBqmjE8WLJj/gZZq9Sryv4WfP4t8Wyr9xzb7fwVq9UoAKKKKACiiigAooooAKKKKACiiigAooooAKKKKACiiigAooooAKKKKACiiigAooooAKKKKACiiigAooooAKKKKACiiigAooooAKKKKACiiigAooooA8nvGPhz41RXMvyW+r5+b/AK5xY/mfavWByM1w/wATfC8viDQPPsh/xMLXmAjtll3dTjoKu+AvFkXirQI5idt3HkTR915IHYelAHV0UUUAFFFFABSMNykA4yOtLRQB4jrXwBuNZ1ebUZfFLLJKQf8Aj16YGP73tVH/AIZvm/6Gx/8AwFP/AMXXvlFAHMeBfCP/AAhnh2HSvtn2vy8/vPL2ZyxPTJ9a6eiigAooooAKKKKACs7XdTh0fRri+nOI415/E4/rWjXkvxD1GbxXr1t4K0x8hyftjAfdwFdeuPQ9DQBpfBvTpofCx1K4GJr1iW/4C7AV6RVawsodPsorWBNscYwBVmgAooooAKKKKAPJ7xj4c+NUVzL8lvq+fm/65xY/mfavWByM1w/xN8Ly+INA8+yH/EwteYCO2WXd1OOgq74C8WReKtAjmJ23ceRNH3Xkgdh6UAdXRRRQAUUUUAFIRkYpaKAOAv8A4aD+2pdW0PUzpl3Lje/lebnAwOGOOmfzqnd/DDVNbkRfEnic6nbqf9V9kEWfxVvYflXpdFAFTTtOtdJsY7KziEcEedq5JxznvVuiigAooooAKKKKACs7XdTh0fRri+nOI415/E4/rWjXkvxD1GbxXr1t4K0x8hyftjAfdwFdeuPQ9DQBpfBvTpofCx1K4GJr1iW/4C7AV6RVawsodPsorWBNscYwBVmgAooooAKKKKACiiigAooooAKKKKACiiigAooooAKKKKACiiigAooooAKKKKACiiigAooooAKKKKACiiigAooooAKKKKACiiigAooooAKKKKACiiigBCARg9K8m8V6FqPgrXm8V6BGZLaQj7ZbAgZwAq8nPqTwK9apGVXUqwBB6g0AYvhrxPp/ijTUvLGUMD1XBBHJHcD0NbdeW+IPh9qGjai+u+DZTBddXtsAiTgDq5wMAk9Kv+GvilZX9x/Z2tRHTtSXgxEl89T1C46Y/OgD0Oimo6uuUYEexp1ABRRRQAUUUUAFFFFABRRRQAUVT1HVbLSrVri8nWONep6/oK8w1Hx5rPjK4fTPBlu3k9Hvsgbe/wBxwPQigDZ8dePTpsg0TQx9o1mbhVHGzoTyRj7pNX/APgtfDFi890/nalc4M8pGM4Jxxkjoe1P8GeAbHwrE0zN9p1CXmW4II3dccZIHBxXYUAFFFFABRRRQAUUUUAIQCMHpXk3ivQtR8Fa83ivQIzJbSEfbLYEDOAFXk59SeBXrVIyq6lWAIPUGgDF8NeJ9P8Uaal5Yyhgeq4II5I7gehrbry3xB8PtQ0bUX13wbKYLrq9tgEScAdXOBgEnpV/w18UrK/uP7O1qI6dqS8GIkvnqeoXHTH50Aeh0U1HV1yjAj2NOoAKKKKACiiigAooooAKKKKACiqeo6rZaVatcXk6xxr1PX9BXmGo+PNZ8ZXD6Z4Mt28no99kDb3+44HoRQBs+OvHp02QaJoY+0azNwqjjZ0J5Ix90mr/gHwWvhixee6fztSucGeUjGcE44yR0Pan+DPANj4ViaZm+06hLzLcEEbuuOMkDg4rsKACiiigAooooAKKKKACiiigAooooAKKKKACiiigAooooAKKKKACiiigAooooAKKKKACiiigAooooAKKKKACiiigAooooAKKKKACiiigAooooAKKKKACiiigAooooAK84+K0nhi30cHV7QXN2/EESuyljlc8r+HWt7xr41svCGm+bL+8upOIYRnLnIB5AOOtcv4L8F3upan/wlPin95fycxRHH7rgqfunByMdqAOe8N+HviJoWiw3emzko+SdPIj4GTj5yffNb0Hxcl02QQeJ9HbTmHVxL5uf++V+n516mAAMDpUU1rBcRlJYlZT1yKAOe0z4g+GdXANnqIfPrE6/zFdFHcwSKGSVCD/tVympfDDwnqpLXOmkue4mdf5Guef4LaZCxOn3j2o9MM/82oA9P8xD0dfzo3r/AHh+deWn4V63ED9n8XtGB2+xg/zauV8MaD4n8Sa9rWlt4rMI0zysP9jU794J6Z4xigD3wyIOrr+dVbrVLKyTfcXCKv1zXnH/AAqS/m/4/PEzTj0+zBf5NVi1+CnhpZN9+j3bdz5kifyagDS1X4s+FNMBQ35km7IIZOfx21z7+OvF/if914c0EwxH/l6Nwh/8dYD0IrutK8F6BouPsNgI8dMuzfzPvW6qKv3VA+goA8vsPhVPql0t/wCL9SbUpevleX5W3t1Rue35V6TY6fa6bbJb2kQjiToBzVmigAooooAKKKKACiiigAooooAKKKKACsDxF4O0bxPB5eo2okI+6wZlx09CPQVv0UAeSHwf408HnPhvVDe2n/PmYkT/AMeYk9yang+LkumyCDxPo7acw6uJfNz/AN8r9Pzr1SoZrWC4jKSxKynrkUAc9pnxB8M6uAbPUQ+fWJ1/mK6KO5gkUMkqEH/arlNS+GHhPVSWudNJc9xM6/yNc8/wW0yFidPvHtR6YZ/5tQB6f5iHo6/nRvX+8Pzry0/CvW4gfs/i9owO32MH+bVyvhjQfE/iTXta0tvFZhGmeVh/sanfvBPTPGMUAe+GRB1dfzqrdapZWSb7i4RV+ua84/4VJfzf8fniZpx6fZgv8mqxa/BTw0sm+/R7tu58yRP5NQBpar8WfCmmAob8yTdkEMnP47a59/HXi/xP+68OaCYYj/y9G4Q/+OsB6EV3WleC9A0XH2GwEeOmXZv5n3rdVFX7qgfQUAeX2Hwqn1S6W/8AF+pNqUvXyvL8rb26o3Pb8q9JsdPtdNtkt7SIRxJ0A5qzRQAUUUUAFFFFABRRRQAUUUUAFFFFABRRRQAUUUUAFFFFABRRRQAUUUUAFFFFABRRRQAUUUUAFFFFABRRRQAUUUUAFFFFABRRRQAUUUUAFFFFABRRRQAUUUUAFFFFABXLeNfGtl4Q03zZf3l1JxDCM5c5APIBx1o8a+NbLwhpvmy/vLqTiGEZyxyAeQDjrXL+C/Bd7qWp/wDCU+Kf3l/JzFCcDyuCp+6cHIx2oAPBfgu91LU/+Ep8U/vL+TmKI4HlcFTypwcjHavUAABgdKAABgUtABRRRQAUUUUAI33G+leWfDH/AJH3xp9bX/0Bq9Tb7jfSvLPhj/yPvjT62v8A6A1AHqlFFFABRRRQAUUUUAFFFFABRRRQAUUUUAFFFFABRRRQAUUUUAFFFFABRRRQAjfcb6V5Z8Mf+R98afW1/wDQGr1NvuN9K8s+GP8AyPvjT62v/oDUAeqUUUUAFFFFABRRRQAUUUUAFFFFABRRRQAUUUUAFFFFABRRRQAUUUUAFFFFABRRRQAUUUUAFFFFABRRRQAUUUUAFFFFABRRRQAUUUUAFFFFABRRRQAUUUUAFFFFABRRRQAUUUUAFct418a2XhDTfNk/eXUnEMIzlzkA8gHHWjxr41svCGm+bL+8upOIYRnLnIB5AOOtcv4L8F3upan/AMJT4p/eX8nMURx+64Kn7pwcjHagA8F+C73UtS/4SnxT+8v5OYoTj91wVPKnByMdq9QAAGAOKUDAwOlFABRRRQAUUUUAFFFFACN9xvpXlnwx/wCR98afW1/9AavU2+430ryz4Y/8j740+tr/AOgNQB6pRRRQAUUUUAFFFFABRRRQAUUUUAFFFFABRRRQAUUUUAFFFFABRRRQAUUUUAI33G+leWfDH/kffGn1tf8A0Bq9Tb7jfSvLPhj/AMj740+tr/6A1AHqlFFFABRRRQAUUUUAFFFFABRRRQAUUUUAFFFFABRRRQAUUUUAFFFFABRRRQAUUUUAFFFFABRRRQAUUUUAFFFFABRRRQAUUUUAFFFFABRRRQAUUUUAFFFFABRRRQAUUUUAFct418a2XhDTfNl/eXUnEMIzlzkA8gHHWjxr41svCGm+bL+8upOIYRnLHIB5AOOtcv4L8F3upan/AMJT4p/eX8nMUJwPK4Kn7pwcjHagA8F+C73UtT/4SnxT+8v5OYojgeVwVPKnByMdq9QAAGB0oAAGBS0AFFFFABRRRQAUUUUAFFFFACN9xvpXlnwx/wCR98afW1/9AavU2+430ryz4Y/8j740+tr/AOgNQB6pRRRQAUUUUAFFFFABRRRQAUUUUAFFFFABRRRQAUUUUAFFFFABRRRQAUUUUAI33G+leWfDH/kffGn1tf8A0Bq9Tb7jfSvLPhj/AMj740+tr/6A1AHqlFFFABRRRQAUUUUAFFFFABRRRQAUUUUAFFFFABRRRQAUUUUAFFFFABRRRQAUUUUAFFFFABRRRQAUUUUAFFFFABRRRQAUUUUAFFFFABRRRQAUUUUAFFFFABRRRQAVy3jXxrZeENN82T95dScQwjOXOQDyAcdaPGvjWy8Iab5sv7y6k4hhGcucgHkA461y/gvwXe6lqf8AwlPin95fycxRHH7rgqeVODkY7UAHgvwXe6lqf/CU+Kf3l/JzFCcfuuCvVTg5GO1eoAADA6UAADA6UtABRRRQAUUUUAFFFFABRRRQAUUUUAI33G+leWfDH/kffGn1tf8A0Bq9Tb7jfSvLPhj/AMj740+tr/6A1AHqlFFFABRRRQAUUUUAFFFFABRRRQAUUUUAFFFFABRRRQAUUUUAFFFFABRRRQAjfcb6V5Z8Mf8AkffGn1tf/QGr1NvuN9K8s+GP/I++NPra/wDoDUAeqUUUUAFFFFABRRRQAUUUUAFFFFABRRRQAUUUUAFFFFABRRRQAUUUUAFFFFABRRRQAUUUUAFFFFABRRRQAUUUUAFFFFABRRRQAUUUUAFFFFABRRRQAUUUUAFct418a2XhDTfNl/eXUnEMIzlzkA8gHHWjxr41svCGm+bL+8upOIYRnLHIB5AOOtcv4L8F3upan/wlPin95fycxQnA8rgr1U4ORjtQAeC/Bd7qWp/8JT4p/eX8nMURwPK4KnlTg5GO1eoAADA6UAADApaACiiigAooooAKKKKACiiigAooooAKKKKAEb7jfSvLPhj/AMj740+tr/6A1ept9xvpXlnwx/5H3xp9bX/0BqAPVKKKKACiiigAooooAKKKKACiiigAooooAKKKKACiiigAooooAKKKKACiiigBG+430ryz4Y/8j740+tr/AOgNXqbfcb6V5Z8Mf+R98afW1/8AQGoA9UooooAKKKKACiiigAooooAKKKKACiiigAooooAKKKKACiiigAooooAKKKKACiiigAooooAKKKKACiiigAooooAKKhuLqC0iaSeRURepNcNq/wAXvDWnOYbe4a6uf+eYjcfrtxQB39FeU/8ACeeNNc40TwoVT/nqbxOfwYexoFl8U77k6n/Z4P8AD5MMmKAPVdw9RRuX+8PzryweBPHdz81x42Kt6fYI/wDGj/hW3i9OV8dEn/sHp/jQB6nkHvS15UfCPxFsebXxh5nt9hiH8zSed8U9O5Nv/aYH+1DFn/P9KAPVqK8qX4sajpeE8QeHWssdZBcCT9FX6V1uh/EHw54gKpY3+6Q/wtGy+vqB6UAdRXLeNfGtl4Q03zZP3l1JxDCM5c5APIBx1o8Z+NrHwlpnnORLcycQwgn5zkA8gHGM1y/gvwXe6lqf/CU+Kf3l/JzFEcfuuCp5U4ORjtQAeC/Bd7qWp/8ACU+Kf3l/JzFCcfuuCvVTg5GO1eoAADA6UAADA6UtABRRRQAUUUUAFFFFABRRRQAUUUUAFFQ3F1BaRNJPIqIvUmuG1f4veGtOcw29w11c/wDPMRuP124oA7+ivKf+E88aa5xonhQqn/PU3ic/gw9jQLL4p33J1P8As8H+HyYZMUAeqOw2NyOleWfDIgePPGmT3tf/AEBqX/hBPHd0N1x41Kt6fYI/8ap2nwi8R6dcT3Np40KzXGPNP2Bfmx06tQB6/kHvS15UfCPxFsebXxh5nt9hiH8zSed8U9O5Nv8A2mB/tQxZ/wA/0oA9WorypfixqOl4TxB4dayx1kFwJP0VfpXW6H8QfDniAqljf7pD/C0bL6+oHpQB1FFIrKwypBHsaWgAooooAKKKKACiiigAooooAKKKKACiiigAoqG4uoLSJpJ5FRF6k1w2r/F7w1pzmG3uGurn/nmI3H67cUAd/RXlP/CeeNNc40TwoVT/AJ6m8Tn8GHsaBZfFO+5Op/2eD/D5MMmKAPVHYbG5HSvLPhkQPHnjTJ72v/oDUv8Awgnju6G648alW9PsEf8AjVO0+EXiPTrie5tPGhWa4x5p+wL82OnVqAPX8g96WvKj4R+Itjza+MPM9vsMQ/maTzvinp3Jt/7TA/2oYs/5/pQB6tRXlS/FjUdLwniDw61ljrILgSfoq/Sut0P4g+HPEBVLG/3SH+Fo2X19QPSgDqKKRWVhlSCPY0tABRRRQAUUUUAFFFFABRRRQAUUUUAFFFFABRRRQAUUUUAFFFFABRRRQAUUUUAFFFZeva9Y+HdMkv7+URxJjsTnkDt9RQBfuLiK1haWZwiL1JrzTVPifc6pfPpfg+wOoT9DNv8AL2cZ6OuD0P5VlW+n698Vrn7XqLNY+Hwf3Vv8reZ2PIww+Zc/jXqmkaHp+hWaWmn24iiXoMk+/U/WgDziD4Xap4hlW88Xau1yTybYRBNvb7yMPQV32j+E9F0FAmn2SxAerFv5k+tbVFACBVXoAPoKWiigAooooAKKKKAGNFG4IZFOfUVyGu/DLw3roZ5rPZcfwyLI4x07Aj0rsqKAPCdR+HPiHwtrUGs6ex1mO3zthO2LaCMdSTnr+legeE/iTpXiJxZyj7JqC8Nbtk46/wAWAOgzXbda5Dxd8PtL8UxGRl8i+XmO4XPy9OwIB4GKAOvByMiivJ9C8Y6r4Q1VNB8XktG5xBe4HzcEn5UBx1A5NerI6uoZSCp5BFADqKKKACiiigAooooAKKKy9e16x8O6ZJf38ojiTHYnPIHb6igC/cXEVrC0szhEXqTXmmqfE+51S+fS/B9gdQn6Gbf5ezjPR1weh/Ksq30/Xvitc/a9RZrHw+D+6t/lbzOx5GGHzLn8a9U0jQ9P0KzS00+3EUS9Bkn36n60AecQfC7VPEMq3ni7V2uSeTbCIJt7feRh6Cu+0fwnougoE0+yWID1Yt/Mn1raooAQKq9AB9BS0UUAFFFFABRRRQAxoo3BDIpz6iuQ134ZeG9dDPNZ7Lj+GRZHGOnYEeldlRQB5FLoXjnwO3maNeHVdPHW2KRxYH+8xJ6kn8K6fwp8SdL8RyfZJf8ARNRHDW7bjjr/ABYA6DNdt1rkPF3w+0vxTEZGXyL5eY7hc/L07AgHgYoA68HIyKK8n0LxjqvhDVU0HxeS0bnEF7gfNwSflQHHUDk16sjq6hlIKnkEUAOooooAKKKKACiiigAoorL17XrHw7pkl/fyiOJMdic8gdvqKAL9xcRWsLSzOERepNeaap8T7nVL59L8H2B1CfoZt/l7OM9HXB6H8qyrfT9e+K1z9r1FmsfD4P7q3+VvM7HkYYfMufxr1TSND0/QrNLTT7cRRL0GSffqfrQB5xB8LtU8QyreeLtXa5J5NsIgm3t95GHoK77R/Cei6CgTT7JYgPVi38yfWtqigBAqr0AH0FLRRQAUUUUAFFFFADGijcEMinPqK5DXfhl4b10M81nsuP4ZFkcY6dgR6V2VFAHkUuheOfA7eZo14dV08dbYpHFgf7zEnqSfwrp/CnxJ0vxHJ9kl/wBE1EcNbtuOOv8AFgDoM123WuQ8XfD7S/FMRkZfIvl5juFz8vTsCAeBigDrwcjIoryfQvGOq+ENVTQfF5LRucQXuB83BJ+VAcdQOTXqyOrqGUgqeQRQA6iiigAooooAKKKKACiiigAooooAKKKKACiiigAooooAKKKKACiiigCC7u4bK1kuJ32xoMk15FpFlcfFTxIdY1HI0G1P+jQf89MghuRgjDKDzWp8VtQuNQn07wlYPiXUS3mYH3dm1x1/xr0HR9Lt9G0uGxtUCRRjgfU5P86ALkcaQxhEUKoGABT6KKACiiigAoooPSgBrOq/eYD6mkEsbHAkQ/RhXmtz4M1vxN4y1F9elZdDTZ9miGP3mV+blSCMMB1rG8eeArLwh4cm13w072Vxa7TtLNJuywX+InHU0AezUVyvw68QXHibwTYapd/6+XeG6dnI7AeldVQAUUUUAFFFFAGN4l8N2PifSZLG9jDKw4PIIIIPYj0FcJ4D12+8Pa5J4N12QtIh/wBElIA35BdunTGR1NeqV558V/D8l7oiaxZfLqFgcxEDk7mUHvjpQB6HRWJ4S1yPxF4btNTj6Sgj8iR/StugAooooAKKKKAILu7hsrWS4nfbGgyTXkWkWVx8VPEh1jUcjQbU/wCjQf8APTIIbkYIwyg81qfFbULjUJ9O8JWD4l1Et5mB93Ztcdf8a9B0fS7fRtLhsbVAkUY4H1OT/OgC5HGkMYRFCqBgAU+iigAooooAKKKKACmmRA20uoPoTVLWNVttF0ua/u32RRgZOCepwOnua+bL681fU/iHper6gWiF40myHI+XamOo654oA+oqKbH/AKtfoKdQAUUUUAFFFFAGN4l8N2PifSZLG9jDKw4PIIIIPYj0FcJ4D12+8Pa5J4N12QtIh/0SUgDfkF26dMZHU16pXnnxX8PyXuiJrFl8uoWBzEQOTuZQe+OlAHodFYnhLXI/EXhu01OPpKCPyJH9K26ACiiigAooooAgu7uGytZLid9saDJNeRaRZXHxU8SHWNRyNBtT/o0H/PTIIbkYIwyg81qfFbULjUJ9O8JWD4l1Et5mB93Ztcdf8a9B0fS7fRtLhsbVAkUY4H1OT/OgC5HGkMYRFCqBgAU+iigAooooAKKKKAEJAGScU3zos48xP++hXlvijxDqPiTxung/SLj7NFH/AMfcwUN1QOvBA9CODV+8+EOhmyZrJXh1DGRceY7c/wC6Wx7UAeiggjIpa5bwDba9aeF7eDxEMXylt3K9Nxx93jpiupoAKKKKACiiigDG8S+G7HxPpMljexhlYcHkEEEHsR6CuE8B67feHtck8G67IWkQ/wCiSkAb8gu3TpjI6mvVK88+K/h+S90RNYsvl1CwOYiBydzKD3x0oA9DorE8Ja5H4i8N2mpx9JQR+RI/pW3QAUUUUAFFFFABRRRQAUUUUAFFFFABRRRQAUUUUAFFFFABR0opG+6fpQB5Toq/2z8a9YujymneV5ftviIP8q9Xryv4fHyfiX4xik++xtsf98GvVKACiiigAooooAKKKQkAEnoKAIL6a4gs5JLW2+0TD7sW8Lu/E14j4513xDq0A0/xNZHQNJkP71g63G7BBH3RkcgfnXsWleIdL1qSeOwuRK8GPMG0jGenX6VnePBZt4PvhebfKwuc/wC8KALfhS20yz8N2kGkMGslB8sjPqc9eeua2q8k+Akty/hWVJc+Qh/dZ/33zXrdABRRRQAUUUUAFRXMSzW0kbjKlTxUtNf/AFbfQ0AeX/Bt2tYNU0YnixZMf8DLNXqVeV/Cz5/Fvi2VfuObfb+CtXqlABRRRQAUdKKRvun6UAeU6Kv9s/GvWLo8pp3leX7b4iD/ACr1evK/h8fJ+JfjGKT77G2x/wB8GvVKACiiigAooooAKQkAEnoKWquo20t5Yy28M/kO4wJNu7H4UAec6o7/ABC8X/2TCc6Np5/0o/8APXcuV9CMMvauZ+JMaxfEzQUQYVTIAP8AtmtdLo3w18WeH7T7LpfjryIMk7f7NRupJ6k57mvOfHOj+IrXx5pVvfeJPtl25k8u4+yKmz5Bn5RweOKAPpVP9Wv0FOrm/DGkeIdN81ta8R/2srhfLX7IsOzrnp1zx+VdJQAUUUUAFFFFABUVzEs1tJG4ypU8VLTX/wBW30NAHl/wbdrWDVNGJ4sWTH/AyzV6lXlfws+fxb4tlX7jm32/grV6pQAUUUUAFHSikb7p+lAHlOir/bPxr1i6PKad5Xl+2+Ig/wAq9Xryv4fHyfiX4xik++xtsf8AfBr1SgAooooAKKKKACmyHETn/ZNOprjcjD1GKAPmTwlr2qn4h6nBpkHmahesgjl3AbNqHPBGDxmvSNch+Inh3T31QeIP7SSPBa2+yxR9wPvc+v6Vyfg2zTw98brrT7kbXcgxk/8AXIk/zr27xBdW9podzNcMBEF5z9aAMrwL4xt/GWhJfRp5UwyJIs528kDnA9K6ivFf2erWeLTdVuJARDMyeX+DPmvaqACiiigAooooAKiuYlmtpI3GVKnipaa/+rb6GgDy/wCDbtawapoxPFiyY/4GWavUq8r+Fnz+LfFsq/cc2+38FavVKACiiigAooooAKKKKACiiigAooooAKKKKACiiigAooooAKKKKAPJ7xj4c+NUVzL8lvq+fm/65xY/mfavWByM1w/xN8Ly+INA8+yH/EwteYCO2WXd1OOgq74C8WReKtAjmJ23ceRNH3Xkgdh6UAdXRRRQAUUUUAFIRkEHoaWigDz66+GXkatNqWgaqdLuJsbz5Xm5wMD7x+v51UvfhjrOu4j8Q+KzqNsOsX2NYs/ip9hXplFAFDR9HstC02LT9Ph8q3iztXJPU5PX3NX6KKACiiigAooooAKztd1OHR9GuL6c4jjXn8Tj+taNeS/EPUZvFevW3grTHyHJ+2MB93AV1649D0NAGl8G9Omh8LHUrgYmvWJb/gLsBXpFVrCyh0+yitYE2xxjAFWaACiiigAooooA8nvGPhz41RXMvyW+r5+b/rnFj+Z9q9YHIzXD/E3wvL4g0Dz7If8AEwteYCO2WXd1OOgq74C8WReKtAjmJ23ceRNH3Xkgdh6UAdXRRRQAUUUUAFFFFAFXUYLq5sZIrO6+yztjbNsD7efQ15bqnwi8RazqsOpX3jbzLqAny3/s9RtyMHgNjoK9cooAw/Dml61pkEiazrv9qucbG+zLFt69h17flW5RRQAUUUUAFFFFABWdrupw6Po1xfTnEca8/icf1rRryX4h6jN4r1628FaY+Q5P2xgPu4CuvXHoehoA0vg3p00PhY6lcDE16xLf8BdgK9IqtYWUOn2UVrAm2OMYAqzQAUUUUAFFFFAHk94x8OfGqK5l+S31fPzf9c4sfzPtXrA5Ga4f4m+F5fEGgefZD/iYWvMBHbLLu6nHQVd8BeLIvFWgRzE7buPImj7ryQOw9KAOrooooAKKKKACiiigDkfF3gGw8UyRXW/7Pfw58u4AJ25xnjIB4FYVz8NNc1aIWut+LDfWQ6wfY1jz36qc9QK9LooAoaPo9loWmxWFhEIrePO1ck9Tk9fc1foooAKKKKACiiigArO13U4dH0a4vpziONefxOP61o15L8Q9Rm8V69beCtMfIcn7YwH3cBXXrj0PQ0AaXwb06aHwsdSuBia9Ylv+AuwFekVWsLKHT7KK1gTbHGMAVZoAKKKKACiiigAooooAKKKKACiiigAooooAKKKKACiiigAooooAQgEYPSvJvFehaj4K15vFegRmS2kI+2WwIGcAKvJz6k8CvWqRlV1KsAQeoNAGL4a8T6f4o01LyxlDA9VwQRyR3A9DW3XlviD4faho2ovrvg2UwXXV7bAIk4A6ucDAJPSr/hr4pWV/cf2drUR07Ul4MRJfPU9QuOmPzoA9DopqOrrlGBHsadQAUUUUAFFFFABRRRQAUUUUAFFU9R1Wy0q1a4vJ1jjXqev6CvMNR8eaz4yuH0zwZbt5PR77IG3v9xwPQigDZ8dePTpsg0TQx9o1mbhVHGzoTyRj7pNX/APgtfDFi890/nalc4M8pGM4Jxxkjoe1P8GeAbHwrE0zN9p1CXmW4II3dccZIHBxXYUAFFFFABRRRQAUUUUAIQCMHpXk3ivQtR8Fa83ivQIzJbSEfbLYEDOAFXk59SeBXrVIyq6lWAIPUGgDF8NeJ9P8Uaal5Yyhgeq4II5I7gehrbry3xB8PtQ0bUX13wbKYLrq9tgEScAdXOBgEnpV/wANfFKyv7j+ztaiOnakvBiJL56nqFx0x+dAHodFNR1dcowI9jTqACiiigAooooAKKKKACiiigAoqnqOq2WlWrXF5Osca9T1/QV5hqPjzWfGVw+meDLdvJ6PfZA29/uOB6EUAbPjrx6dNkGiaGPtGszcKo42dCeSMfdJq/4B8Fr4YsXnun87UrnBnlIxnBOOMkdD2p/gzwDY+FYmmZvtOoS8y3BBG7rjjJA4OK7CgAooooAKKKKACiiigBCARg9K8m8V6FqPgrXm8V6BGZLaQj7ZbAgZwAq8nPqTwK9apGVXUqwBB6g0AYvhrxPp/ijTUvLGUMD1XBBHJHcD0NbdeW+IPh9qGjai+u+DZTBddXtsAiTgDq5wMAk9Kv8Ahr4pWV/cf2drUR07Ul4MRJfPU9QuOmPzoA9DopqOrrlGBHsadQAUUUUAFFFFABRRRQAUUUUAFFU9R1Wy0q1a4vJ1jjXqev6CvMNR8eaz4yuH0zwZbt5PR77IG3v9xwPQigDZ8dePTpsg0TQx9o1mbhVHGzoTyRj7pNX/AAD4LXwxYvPdP52pXODPKRjOCccZI6HtT/BngGx8KxNMzfadQl5luCCN3XHGSBwcV2FABRRRQAUUUUAFFFFABRRRQAUUUUAFFFFABRRRQAUUUUAFFFFABRRRQAUUUUAFYHiLwdo3ieDy9RtRIR91gzLjp6EegrfooA8kPg/xp4POfDeqG9tP+fMxIn/jzEnuTU8Hxcl02QQeJ9HbTmHVxL5uf++V+n516pUM1rBcRlJYlZT1yKAOe0z4g+GdXANnqIfPrE6/zFdFHcwSKGSVCD/tVympfDDwnqpLXOmkue4mdf5Guef4LaZCxOn3j2o9MM/82oA9P8xD0dfzo3r/AHh+deXf8Kq1uPi38XtEPT7GD/NqT/hV/ic8N44JHp/Z6/8AxVAHqRkQdXX86q3WqWVkm+4uEVfrmvOP+FSX83/H54macen2YL/JqsWvwU8NLJvv0e7bufMkT+TUAaWq/FnwppgKG/Mk3ZBDJz+O2uffx14v8T/uvDmgmGI/8vRuEP8A46wHoRXdaV4L0DRcfYbAR46Zdm/mfet1UVfuqB9BQB5fYfCqfVLpb/xfqTalL18ry/K29uqNz2/KvSbHT7XTbZLe0iEcSdAOas0UAFFFFABRRRQAUUUUAFFFFABRRRQAVgeIvB2jeJ4PL1G1EhH3WDMuOnoR6Ct+igDyQ+D/ABp4POfDeqG9tP8AnzMSJ/48xJ7k1PB8XJdNkEHifR205h1cS+bn/vlfp+deqVDNawXEZSWJWU9cigDntM+IPhnVwDZ6iHz6xOv8xXRR3MEihklQg/7VcpqXww8J6qS1zppLnuJnX+Rrnn+C2mQsTp949qPTDP8AzagD0/zEPR1/Ojev94fnXl3/AAqrW4+Lfxe0Q9PsYP8ANqT/AIVf4nPDeOCR6f2ev/xVAHqRkQdXX86q3WqWVkm+4uEVfrmvOP8AhUl/N/x+eJmnHp9mC/yarFr8FPDSyb79Hu27nzJE/k1AGlqvxZ8KaYChvzJN2QQyc/jtrn38deL/ABP+68OaCYYj/wAvRuEP/jrAehFd1pXgvQNFx9hsBHjpl2b+Z963VRV+6oH0FAHl9h8Kp9Uulv8AxfqTalL18ry/K29uqNz2/KvSbHT7XTbZLe0iEcSdAOas0UAFFFFABRRRQAUUUUAFFFFABRRRQAVgeIvB2jeJ4PL1G1EhH3WDMuOnoR6Ct+igDyQ+D/Gng858N6ob20/58zEif+PMSe5NTwfFyXTZBB4n0dtOYdXEvm5/75X6fnXqlZ2szWVnpc9zeqnkoPmJH5frQBk6Z8QfDOrgfY9RD59Y3X+Yroo7mCRQySoQf9qvFPAngPTvGltea5rdmXguiPs0YkZdm0lW5UjOcDrW+/wW0yFidPvHtR6YZ/5tQB6f5iHo6/nRvX+8Pzry7/hVWtx8W/i9oh6fYwf5tSf8Kv8AE54bxwSPT+z1/wDiqAPUjIg6uv51VutUsrJN9xcIq/XNecf8Kkv5v+PzxM049PswX+TVYtfgp4aV998j3THqfMkX+TUAaWq/FrwnpgKG/Mkw6RiF+fx21z7+OvF/if8AdeHNBMMR/wCXo3CH/wAdYD0IrP0HTrTwV8T5dIuIQbK+x9kdj93bGS3qep717Oqqo+VQB7CgDy+w+FU+qXS3/i/Um1KXr5Xl+Vt7dUbnt+Vek2On2um2yW9pEI4k6Ac1ZooAKKKKACiiigAooooAKKKKACiiigAooooAKKKKACiiigAooooAKKKKACiiigAooooAKKKKACiiigAooooAKKKKACiiigAooooAKKKKACiiigAooooAKKKKACiiigAooooAKKKKACiiigAooooAKKKKACiiigAooooAKKKKACiiigAooooAKKKKACiiigAooooAKKKKACvK/ijqE+t6hY+DdPf97elvPx/Ds2uOv0PevSdT1CDS9PmvLh9kcY5P6CvNvhdYT63qN94y1BMyXpXyM/w7NyHp9B2oA9J0zT4NL06Gzt02Rxjgfqat0UUAFFFFABRRRQBwPxU8Oy6t4fF/Z8ahZHMJH+0y7u+Ogrd8FeI4vE/hq21BD8zAhl9MMR6D0rfdQ6FT0IxXknh1j4E+JNzoTnGnaiQbU9hsQs3qerd6APXaKOtFABRRRQAUUUUAFFFFABRRRQAUUUUAFFFFABRRRQAUUUUAFFFFABRRRQAUUUUAFFFFABRRRQAUUUUAFFFFABRRRQAUUUUAFFFFABRRRQAUUUUAFFFFABRRRQAUUUUAFFFFABRRRQAUUUUAFFFFABRRRQAUUUUAFFFFABRRRQAUUUUAFFFFABRRRQAUUUUAFFFFABRRVTU9Qg0vT5ry4fZFGOT+goA82+KOoT63qFj4N09/3t6W8/A+7s2uOv0PevSdM0+DS9Ohs7dNkcY4H6mvNvhdp8+t6jfeMtQTMl6V8jP8Ozch6fQdq9UoAKKKKACiiigAooooAK4H4qeHZdW8Pi/s+NQsjmEj/aZd3fHQV31NdQ6FT0IxQBgeC/EcXifw1bagh+ZgQy+mGI9B6V0NeReHWPgT4k3OhOcafqJBtj2GxCzep6nvXrvagAooooAKKKKACiiigAooooAKKKKACiiigAooooAKKKKACiiigAooooAKKKKACiiigAooooAKKKKACiiigAooooAKKKKACiiigAooooAKKKKACiiigAooooAKKKKACiiigAooooAKKKKACiiigAooooAKKKKACiiigAooooAKKKKACiiigAooooAKKKKACiiigAryv4o6hPreoWPg3T3/AHt6W8/H8Oza46/Q969J1PUINL0+a8uH2Rxjk/oK82+F1hPreo33jLUEzJelfIz/AA7NyHp9B2oA9J0zT4NL06Gzt02Rxjgfqat0UUAFFFFABRRRQAUUUUAFFFFAHA/FTw7Lq3h8X9nxqFkcwkf7TLu746Ct3wV4ji8T+GrbUEPzMCGX0wxHoPSt91DoynoRivJPDrHwJ8SbnQnONO1Eg2p7DYhZvU9W70Aeu0UUUAFFFFABRRRQAUUUUAFFFFABRRRQAUUUUAFFFFABRRRQAUUUUAFFFFABRRRQAUUUUAFFFFABRRRQAUUUUAFFFFABRRRQAUUUUAFFFFABRRRQAUUUUAFFFFABRRRQAUUUUAFFFFABRRRQAUUUUAFFFFABRRRQAUUUUAFFFFABRRRQAUUUUAFFFFABRRVTU9Qg0vT5ry4fZHGOT+goA82+KOoT63qFj4N098y3pbz8D7uza46/Q969J0zT4NL06Gzt02Rxjgfqa82+F1hPreo33jLUEzJelfIz/Ds3Ien0HavVKACiiigAooooAKKKKACiiigAooooAK4H4qeHZdX8Pi/s+NQsjmEj/aZd3fHQV31NdQ6FTyCMUAYHgrxHF4n8NW2oIfmYEMvphiPQeldDXkXh1j4E+JNzoTnGnaiQbU9hsQs3qep71671oAKKKKACiiigAooooAKKKKACiiigAooooAKKKKACiiigAooooAKKKKACiiigAooooAKKKKACiiigAooooAKKKKACiiigAooooAKKKKACiiigAooooAKKKKACiiigAooooAKKKKACiiigAooooAKKKKACiiigAooooAKKKKACiiigAooooAKKKKACvK/ijqE+t6hY+DdPf97elvPx/Ds2uOv0PevSdT1CDS9PmvLh9kcY5P6CvNvhdYT63qN94y1BMyXpXyM/w7NyHp9B2oA9J0zT4NL06Gzt02Rxjgfqat0UUAFFFFABRRRQAUUUUAFFFFABRRRQAUUUUAcD8VPDsureHxf2fGoWRzCR/tMu7vjoK3fBXiOLxP4attQQ/MwIZfTDEeg9K33UOhU9CMV5J4dY+BPiTc6E5xp2okG1PYbELN6nq3egD12ijrRQAUUUUAFFFFABRRRQAUUUUAFFFFABRRRQAUUUUAFFFFABRRRQAUUUUAFFFFABRRRQAUUUUAFFFFABRRRQAUUUUAFFFFABRRRQAUUUUAFFFFABRRRQAUUUUAFFFFABRRRQAUUUUAFFFFABRRRQAUUUUAFFFFABRUNxdQWkTSTyKiL1JrhtX+L3hrTnMNvcNdXP/PMRuP124oA7+ivKf+E88aa5xonhQqn/AD1N4nP4MPY0Cy+Kd9ydT/s8H+HyYZMUAeq7h6ijcv8AeH515YPAnju5+a48bFW9PsEf+NH/AArbxenK+OiT/wBg9P8AGgD1PIPelryo+EfiLY82vjDzPb7DEP5mmmX4qacD+4/tPH+1DFn/AD/SgB/xR1CfW9QsfBunv+9vS3n4H3dm1x1+h716TpmnwaXp0NnbpsjjHA/U14PofiHUPDXi3UNd8WaSy3Fxs2v5oby8KVPCA5yCK9b0P4g+HPEBVLG/3SH+Fo2X19QPSgDqKKRWVhlSCPY0tABRRRQAUUUUAFFFFABRRRQAUUUUAFFFFABXA/FTw7Lq3h8X9nxqFkcwkf7TLu746Cu4uLqC0iaSeRURepNcJrXxb8M2W62gnN1cEY8sRuP124oA6DwX4ji8T+GrbUEPzMCGX0wxHoPSuhr588JT+NNPv9Qfw7oRawuShjQ3CDy8Zz97k5JNdaLL4p33J1P+zwf4fJhkxQB6ruHqKNy/3h+deWDwJ47ufmuPGxVvT7BH/jR/wrbxenK+OiT/ANg9P8aAPU8g96WvKj4R+Itjza+MPM9vsMQ/maTzvinp3Jt/7TA/2oYs/wCf6UAerUV5UvxY1HS8J4g8OtZY6yC4En6Kv0rrdD+IPhzxAVSxv90h/haNl9fUD0oA6iikVlYZUgj2NLQAUUUUAFFFFABRRRQAUUUUAFFFFABRRRQAUUUUAFFFFABRRRQAUUUUAFFFFABRRRQAUUUUAFFFFABRRRQAUUUUAFFFFABRRRQAUUUUAFFFFABRRRQAUUUUAFFFFABRRWXr2vWPh3TJL+/lEcSY7E55A7fUUAX7i4itYWlmcIi9Sa801T4n3OqXz6X4PsDqE/Qzb/L2cZ6OuD0P5VlW+n698Vrn7XqLNY+Hwf3Vv8reZ2PIww+Zc/jXqmkaHp+hWaWmn24iiXoMk+/U/WgDziD4Xap4hlW88Xau1yTybYRBNvb7yMPQV32j+E9F0FAmn2SxAerFv5k+tbVFACBVXoAPoKWiigAooooAKKKKAGNFG4IZFOfUVyGu/DLw3roZ5rPZcfwyLI4x07Aj0rsqKAPIpdC8c+B28zRrw6rp462xSOLA/wB5iT1JP4V0/hT4k6X4jk+yS/6JqI4a3bccdf4sAdBmu261yHi74faX4piMjL5F8vMdwufl6dgQDwMUAdeDkZFFeT6F4x1XwhqqaD4vJaNziC9wPm4JPyoDjqBya9WR1dQykFTyCKAHUUUUAFFFFABRRRQAUUVl69r1j4d0yS/v5RHEmOxOeQO31FAF+4uIrWFpZnCIvUmvNNU+J9zql8+l+D7A6hP0M2/y9nGejrg9D+VZVvp+vfFa5+16izWPh8H91b/K3mdjyMMPmXP416ppGh6foVmlpp9uIol6DJPv1P1oA84g+F2qeIZVvPF2rtck8m2EQTb2+8jD0Fd9o/hPRdBQJp9ksQHqxb+ZPrW1RQAgVV6AD6CloooAKKKKACiiigBjRRuCGRTn1Fchrvwy8N66Geaz2XH8MiyOMdOwI9K7KigDyKXQvHPgdvM0a8Oq6eOtsUjiwP8AeYk9ST+FdP4U+JOl+I5Pskv+iaiOGt23HHX+LAHQZrtutch4u+H2l+KYjIy+RfLzHcLn5enYEA8DFAHXg5GRRXk+heMdV8Iaqmg+LyWjc4gvcD5uCT8qA46gcmvVkdXUMpBU8gigB1FFFABRRRQAUUUUAFFFFABRRRQAUUUUAFFFFABRRRQAUUUUAFFFFABRRRQAUUUUAFFFFABRRRQAUUUUAFFFFABRRRQAUUUUAFFFFABRRRQAUUUUAFFFFAEF3dw2VrJcTvtjQZJryLSLK4+KniQ6xqORoNqf9Gg/56ZBDcjBGGUHmtT4rahcahPp3hKwfEuolvMwPu7Nrjr/AI16Do+l2+jaXDY2qBIoxwPqcn+dAFyONIYwiKFUDAAp9FFABRRRQAUUUj/cb6UANM0QODKgPuwpPPh/56p/30K+f3+Ed54z8TardSaxJYKhj2r5W/dkY/vD0qPVfgENI02W+uPFziOMDP8Aop7nA/j96APoZXR/usrfQ5p1eZ/BTQJdI8HrdTsxluidwJzja7Ad69MoAKKKKACiiigDG8S+G7HxPpMljexhlYcHkEEEHsR6CuE8B67feHtck8G67IWkQ/6JKQBvyC7dOmMjqa9Urzz4r+H5L3RE1iy+XULA5iIHJ3MoPfHSgD0OisTwlrkfiLw3aanH0lBH5Ej+lbdABRRRQAUUUUAQXd3DZWslxO+2NBkmvItIsrj4qeJDrGo5Gg2p/wBGg/56ZBDcjBGGUHmtT4rahcahPp3hKwfEuolvMwPu7Nrjr/jXoOj6Xb6NpcNjaoEijHA+pyf50AXI40hjCIoVQMACn0UUAFFFFABRRQeBmgBGZVGWYD6mmiaInAkQ/wDAhXiOtalqPjb4qv4XN0YdLhxuUKDuzGG9j1HrWp4x+HOn+HPD02reHmezvbfaQxZn3ZYDozEdCaAPXaK4v4YeJrnxR4Ptry9O65+YO3HPzMB0AHQV2lABRRRQAUUUUAY3iXw3Y+J9Jksb2MMrDg8gggg9iPQVwngPXb7w9rkng3XZC0iH/RJSAN+QXbp0xkdTXqleefFfw/Je6ImsWXy6hYHMRA5O5lB746UAeh0VieEtcj8ReG7TU4+koI/Ikf0rboAKKKKACiiigAooooAKKKKACiiigAooooAKKKKACiiigAooooAKKKKACiiigAooooAKKKKACiiigAooooAKKKKACiiigAooooAKKKKACiiigAo6UUjfdP0oA8p0Vf7Z+NesXR5TTvK8v23xEH+Ver15X8Pj5PxL8YxSffY22P8Avg16pQAUUUUAFFFFABRRRQAgAHQAV5t8TbqTV7zTvCNq2X1AuZcfw7Nrj+XrXo8sixRNIxwFGa8x+H6N4m8War4rmGYXKC09sKUb09O4oA9LtLeO0tY4Il2ogwBU1FFABRRRQAUUUUAFRXMSzW0kbjKlTxUtNf8A1bfQ0AeX/Bt2tYNU0YnixZMf8DLNXqVeV/Cz5/Fvi2VfuObfb+CtXqlABRRRQAUdKKRvun6UAeU6Kv8AbPxr1i6PKad5Xl+2+Ig/yr1evK/h8fJ+JfjGKT77G2x/3wa9UoAKKKKACiiigAoopsmfKfHXBoA8R8cR2mifEeLVtCvM66+d9mIz+8+QAfMflGFJNJ428TeKtR0M2etaOdC0+XHm3XnJcdCCPlUZ64H41T+GciyfFPVW1H/j8ynl7v8AcbPt0xXsPi37J/wjV39r2+TtGc/UUAVPAOn6VpvhK0g0eYT2oDbZMEbvmJPB565rp68b/Z+kuW0O+WXPkKy+Vn/efNeyUAFFFFABRRRQAVFcxLNbSRuMqVPFS01/9W30NAHl/wAG3a1g1TRieLFkx/wMs1epV5X8LPn8W+LZV+45t9v4K1eqUAFFFFABRRRQAUUUUAFFFFABRRRQAUUUUAFFFFABRRRQAUUUUAFFFFABRRRQAUUUUAFFFFABRRRQAUUUUAFFFFABRRRQAUUUUAFFFFABRRRQAUUUUAeT3jHw58aormX5LfV8/N/1zix/M+1esDkZrh/ib4Xl8QaB59kP+Jha8wEdssu7qcdBV3wF4si8VaBHMTtu48iaPuvJA7D0oA6uiiigAooooAKKKKAMrxFpU2t6Hcafb3f2SSXbibZv24IPT8MU3wzoMPhrQbfS4G3pDu+bGM5Yn1PrWvRQAUUUUAFFFFABRRRQAVna7qcOj6NcX05xHGvP4nH9a0a8l+IeozeK9etvBWmPkOT9sYD7uArr1x6HoaANL4N6dND4WOpXAxNesS3/AAF2Ar0iq1hZQ6fZRWsCbY4xgCrNABRRRQAUUUUAeT3jHw58aormX5LfV8/N/wBc4sfzPtXrA5Ga4f4m+F5fEGgefZD/AImFrzAR2yy7upx0FXfAXiyLxVoEcxO27jyJo+68kDsPSgDq6KKKACiiigAooooA4PxL8MrLWtYGs2Fz/Z+p95wpfPAH3ScdBWde/DPXtZhFtrni831p3i+xLHnv1U57CvTaKAM3QtCsfDulxafp8PlQR5wMk9ST39ya0qKKACiiigAooooAKztd1OHR9GuL6c4jjXn8Tj+taNeS/EPUZvFevW3grTHyHJ+2MB93AV1649D0NAGl8G9Omh8LHUrgYmvWJb/gLsBXpFVrCyh0+yitYE2xxjAFWaACiiigAooooAKKKKACiiigAooooAKKKKACiiigAooooAKKKKACiiigAooooAKKKKACiiigAooooAKKKKACiiigAooooAKKKKACiiigAooooAKKKKAEIBGD0rybxXoWo+CtebxXoEZktpCPtlsCBnACryc+pPAr1qkZVdSrAEHqDQBi+GvE+n+KNNS8sZQwPVcEEckdwPQ1t15b4g+H2oaNqL674NlMF11e2wCJOAOrnAwCT0q/4a+KVlf3H9na1EdO1JeDESXz1PULjpj86APQ6Kajq65RgR7GnUAFFFFABRRRQAUUUUAFFFFABRVPUdVstKtWuLydY416nr+grzDUfHms+Mrh9M8GW7eT0e+yBt7/AHHA9CKANnx149OmyDRNDH2jWZuFUcbOhPJGPuk1f8A+C18MWLz3T+dqVzgzykYzgnHGSOh7U/wZ4BsfCsTTM32nUJeZbggjd1xxkgcHFdhQAUUUUAFFFFABRRRQAhAIweleTeK9C1HwVrzeK9AjMltIR9stgQM4AVeTn1J4FetUjKrqVYAg9QaAMXw14n0/xRpqXljKGB6rggjkjuB6GtuvLfEHw+1DRtRfXfBspguur22ARJwB1c4GASelX/DXxSsr+4/s7Wojp2pLwYiS+ep6hcdMfnQB6HRTUdXXKMCPY06gAooooAKKKKACiiigAooooAKKp6jqtlpVq1xeTrHGvU9f0FeYaj481nxlcPpngy3byej32QNvf7jgehFAGz468enTZBomhj7RrM3CqONnQnkjH3Sav+AfBa+GLF57p/O1K5wZ5SMZwTjjJHQ9qf4M8A2PhWJpmb7TqEvMtwQRu644yQODiuwoAKKKKACiiigAooooAKKKKACiiigAooooAKKKKACiiigAooooAKKKKACiiigAooooAKKKKACiiigAooooAKKKKACiiigAooooAKKKKACiiigAooooAKKKKACiiigArA8ReDtG8TweXqNqJCPusGZcdPQj0Fb9FAHkh8H+NPB5z4b1Q3tp/wA+ZiRP/HmJPcmp4Pi5Lpsgg8T6O2nMOriXzc/98r9Pzr1SoZrWC4jKSxKynrkUAc9pnxB8M6uAbPUQ+fWJ1/mK6KO5gkUMkqEH/arlNS+GHhPVSWudNJc9xM6/yNc8/wAFtMhYnT7x7UemGf8Am1AHp/mIejr+dG9f7w/OvLv+FVa3Hxb+L2iHp9jB/m1J/wAKv8TnhvHBI9P7PX/4qgD1IyIOrr+dVbrVLKyTfcXCKv1zXnH/AAqS/m/4/PEzTj0+zBf5NVi1+CnhpZN9+j3bdz5kifyagDS1X4s+FNMBQ35km7IIZOfx21z7+OvF/if914c0EwxH/l6Nwh/8dYD0IrutK8F6BouPsNgI8dMuzfzPvW6qKv3VA+goA8vsPhVPql0t/wCL9SbUpevleX5W3t1Rue35V6TY6fa6bbJb2kQjiToBzVmigAooooAKKKKACiiigAooooAKKKKACsDxF4O0bxPB5eo2okI+6wZlx09CPQVv0UAeSHwf408HnPhvVDe2n/PmYkT/AMeYk9yang+LkumyCDxPo7acw6uJfNz/AN8r9Pzr1SoZrWC4jKSxKynrkUAc9pnxB8M6uAbPUQ+fWJ1/mK6KO5gkUMkqEH/arlNS+GHhPVSWudNJc9xM6/yNc8/wW0yFidPvHtR6YZ/5tQB6f5iHo6/nRvX+8Pzry7/hVWtx8W/i9oh6fYwf5tSf8Kv8TnhvHBI9P7PX/wCKoA9SMiDq6/nVW61Sysk33Fwir9c15x/wqS/m/wCPzxM049PswX+TVYtfgp4aWTffo923c+ZIn8moA0tV+LPhTTAUN+ZJuyCGTn8dtc+/jrxf4n/deHNBMMR/5ejcIf8Ax1gPQiu60rwXoGi4+w2Ajx0y7N/M+9bqoq/dUD6CgDy+w+FU+qXS3/i/Um1KXr5Xl+Vt7dUbnt+Vek2On2um2yW9pEI4k6Ac1ZooAKKKKACiiigAooooAKKKKACiiigAooooAKKKKACiiigAooooAKKKKACiiigAooooAKKKKACiiigAooooAKKKKACiiigAooooAKKKKACiiigAooooAKKKKACiiigAooooAKKKKACiiigAooooAKKKKACiiigAooooAKKKKACiiigAooooAKKKKACiiigAooooAKKKKACiiigAooooAKKKKACiiigAooooAKKKKACiiigAooooAKKKKACiiigAooooAKKKKACiiigAooooAKKKKACiiigAooooAKKKKACiiigAooooAKKKKACiiigAooooAKKKKACiiigAooooAKKKKACiiigAooooAKKKKACiiigAooooAKKKKACiiigAooooAKKKKACiiigAooooAKKKKACiiigAooooAKKKKACiiigAooooAKKKKACiiigAooooAKKKKACiiigAooooAKKKKACiiigAooooA//Z;imageBorder=#97D077;strokeWidth=3;" vertex="1" parent="dYbXDlQR-0rIkNIVQ8Nb-12">
          <mxGeometry x="238.60000000000002" y="63.84000000000003" width="264.62" height="272.33" as="geometry" />
        </mxCell>
      </root>
    </mxGraphModel>
  </diagram>
</mxfile>
